<svg width="512" height="512" viewBox="0 0 512 512" fill="none" xmlns="http://www.w3.org/2000/svg">
<path d="M381.5 190.1C391.3 205.7 390.2 224.1 378.6 231.4C404.4 309.3 362.7 406.5 291.7 451.2C217.4 498 107 493.7 49.8999 429.1C39.2999 435.7 22.7999 430.4 16.1999 420C9.5999 409.6 11.9999 392.3 22.5999 385.6C-10.9001 306.2 32.9999 204.8 107.3 158C178.4 113.3 283.9 118 342.9 175C346.1 173 349.7 172 353.5 172.1C363.3 172.1 374.4 178.8 381.5 190.1V190.1Z" fill="#EDED3B"/>
<path d="M132.5 477C70.5999 419.7 66.2999 311.9 111.5 238.5C148.7 178.2 223.4 138.6 292.8 142.8C234.6 118.7 161 124.2 107.2 158.1C32.8999 204.9 -11.1001 306.3 22.4999 385.7C11.9999 392.3 9.5999 409.6 16.0999 420.1C22.5999 430.6 39.2999 435.9 49.7999 429.2C71.3999 453.6 100.5 469.4 132.5 477V477Z" fill="#D3CF39"/>
<path d="M398.2 182.4L410.1 179C456.3 164.5 480.8 115.8 472.3 65.8C470.8 56.8 468.9 29.5 468.9 29.5C468.9 29.5 445.9 42.3 437.8 45.8C387.5 67.3 366 114 380.4 163.5L383.4 173.8C385.1 180.3 391.7 184.1 398.2 182.4Z" fill="#6B9337"/>
<path d="M398.2 182.4L410.2 179C417 176.9 423.5 173.9 429.6 170.2L424.9 161.7C402 120.5 408.8 75 443.7 42.9C441.4 44.1 439.3 45.1 437.8 45.7C387.5 67.2 366.1 113.9 380.4 163.4L383.4 173.7C385.1 180.2 391.7 184.1 398.2 182.4V182.4Z" fill="#59752C"/>
<path d="M488.1 242.2C479.3 204 446.9 176.7 409.4 180.9L402.6 181.7C402 181.8 401.3 181.9 400.7 182.1L400.2 182.3C397.6 183.1 395.4 185 394.4 187.5C393.8 189 393.6 190.6 393.8 192.2L394.7 200.3C399.2 239.3 428 266 469.8 266.4C476.5 266.5 496.5 268.8 496.5 268.8C496.5 268.8 489.7 249 488.1 242.2V242.2Z" fill="#5D8430"/>
<path d="M416 193.5L416.6 185.4C416.7 183.6 417.4 181.9 418.4 180.5C415.4 180.4 412.3 180.6 409.3 180.9L402.5 181.7C401.9 181.8 401.2 181.9 400.6 182.1L400.2 182.2C397.6 183 395.3 184.9 394.3 187.5C393.7 189 393.5 190.6 393.7 192.2L394.6 200.3C398.5 234.3 420.9 258.8 454.2 264.9C427.7 251.1 413.5 224.7 416 193.5V193.5Z" fill="#59752C"/>
<path d="M89.8999 242.2C91.8999 239 93.9999 235.8 96.0999 232.7C97.9999 230 97.3999 226.3 94.6999 224.3C91.9999 222.3 88.2999 223 86.2999 225.7C83.8999 229 81.6999 232.4 79.5999 235.9C78.9999 236.9 78.6999 237.9 78.6999 239C78.6999 241 79.6999 243 81.5999 244.1C84.4999 246 88.0999 245.1 89.8999 242.2V242.2Z" fill="#151515"/>
<path d="M118.4 208C164 168 223.4 167.3 246.9 168.9C250.2 169.1 253.1 166.6 253.3 163.3C253.5 160 251 157.1 247.7 156.9C222.8 155.2 159.5 155.9 110.5 198.9C108.5 200.6 106.6 202.4 104.7 204.2C103.5 205.4 102.9 206.9 102.9 208.5C102.9 210 103.5 211.5 104.6 212.7C106.9 215.1 110.7 215.1 113.1 212.8C114.8 211.3 116.6 209.6 118.4 208V208Z" fill="#151515"/>
<path d="M294.8 456.3C330.7 433.7 359.9 398.1 377 356C393.9 314.5 396.8 271.2 385.5 233.6C389.2 230.1 391.7 225.6 393 220.5C404.1 252.2 432.4 272 469.6 272.4C474.8 272.5 490.2 274.1 495.7 274.8C497.7 275 499.8 274.2 501.1 272.6C502.4 271 502.8 268.9 502.1 266.9C502 266.7 495.5 247.3 494 240.9C487 210.9 467.2 188.2 442.3 179C459.7 177.5 479.3 179 498.8 187C501.9 188.3 505.4 186.8 506.6 183.7C507.9 180.6 506.4 177.1 503.3 175.9C482.9 167.5 462.6 165.5 444.4 166.7C453.2 159.2 460.7 150 466.5 139.4C478.5 117.5 482.7 91 478.2 64.7C476.7 56.1 474.8 29.3 474.8 29C474.7 27 473.5 25.1 471.7 24.1C469.9 23.1 467.7 23.1 465.9 24.1C465.7 24.2 443.1 36.9 435.4 40.1C393.6 58 369.9 92.8 369.9 133.3C369.9 143.6 371.4 154.2 374.6 165L377.6 175.3C377.7 175.7 377.9 176.1 378 176.6C367.7 167.3 354.5 163.7 343.8 167.8C314.8 141.3 274.5 125.2 229.8 122.4C184.5 119.5 139.8 130.4 103.9 153C66.4999 176.5 35.3999 214.6 18.6999 257.4C9.4999 280.8 4.89988 304.6 4.89989 327.4C4.89989 347.1 8.2999 366.1 15.0999 383.7C10.8999 387.9 7.89988 393.7 6.79988 400.3C5.39988 408.5 6.89989 416.8 10.8999 423.1C14.8999 429.4 21.6999 434.4 29.6999 436.7C36.1999 438.6 42.6999 438.4 48.2999 436.4C76.2999 466.1 117.1 484.4 163.7 487.9C209.7 491.4 257.4 479.9 294.8 456.3V456.3ZM482.3 243.6C483.2 247.6 485.7 255.5 487.8 261.8C481.5 261.1 473.7 260.4 469.8 260.4C432 260 404.8 236.1 400.6 199.6L399.7 191.5C399.6 190.5 399.8 189.6 400.4 188.9C400.7 188.5 401.4 187.9 402.3 187.8L410.1 186.9C443.4 183 473.8 206.9 482.3 243.6ZM389.1 172.1L386.1 161.8C372.4 114.5 393.6 71.2 440.1 51.3C445.3 49.1 456 43.3 463.5 39.2C464.2 48.1 465.3 60.9 466.3 66.7C474.7 116.3 449.5 161.3 406.3 173.7L396.4 176.6C393.4 177.5 390.1 175.5 389.1 172.1ZM164.7 476C119.5 472.6 80.2999 454.6 54.2999 425.2C52.3999 423 49.0999 422.5 46.5999 424.1C43.0999 426.3 38.1999 426.7 33.0999 425.3C27.9999 423.8 23.4999 420.7 21.0999 416.9C18.6999 413.1 17.7999 407.7 18.6999 402.5C19.5999 397.3 22.0999 393 25.5999 390.8C28.0999 389.2 29.0999 386.1 27.8999 383.4C12.6999 347.3 13.3999 304.1 29.8999 261.9C45.6999 221.4 75.0999 185.4 110.3 163.2C144.1 141.9 186.3 131.7 229 134.5C272.4 137.3 311.3 153.2 338.5 179.5C340.5 181.4 343.5 181.7 345.9 180.3C354.5 174.9 368.5 180.9 376.4 193.4C380.2 199.5 382.1 206.1 382.1 211.9C382.1 218.2 379.8 223.6 375.3 226.5C373 228 371.9 230.8 372.8 233.5C384.7 269.3 382.2 311.3 365.8 351.7C349.7 391.5 322.2 425.1 288.4 446.4C253.2 468.4 208.1 479.2 164.7 476V476Z" fill="#151515"/>
</svg>
