<svg width="2504" height="1291" viewBox="0 0 2504 1291" fill="none" xmlns="http://www.w3.org/2000/svg">
<g clip-path="url(#clip0)">
<path d="M829.154 21.449C834.975 21.4254 853.572 20.5497 870.666 19.7092C887.651 18.7782 904.762 18.1369 908.692 18.2842C912.521 18.4405 920.633 18.2101 926.709 17.6616C932.684 17.1221 943.006 16.8931 949.75 17.0874C956.396 17.2907 969.252 17.3349 978.369 17.1142C1004.11 16.3968 1017.25 16.3144 1026.02 16.6277C1030.45 16.8296 1039.3 16.9347 1045.63 16.9657C1069.62 16.9082 1100.4 17.5429 1110.5 18.1376C1113.83 18.3389 1120.16 18.4695 1124.57 18.3727C1128.98 18.2758 1136.43 18.5068 1141.19 18.8809C1155.04 19.9397 1172.67 20.5572 1176.95 20.1706C1179.14 19.9728 1182.57 20.165 1184.51 20.4921C1186.45 20.9189 1192.11 21.3117 1197.14 21.36C1202.07 21.517 1210.24 21.8842 1215.29 22.2314C1230.36 23.4811 1236.21 23.7563 1242.54 23.7874C1245.85 23.7894 1250.4 24.082 1252.63 24.3821C1254.87 24.6823 1263.45 25.2127 1271.83 25.6615C1280.1 26.1193 1288.58 26.6587 1290.52 26.9858C1293.68 27.5039 1299.85 27.9513 1320.35 29.313C1323.08 29.5682 1330.16 30.0343 1335.9 30.3185C1341.66 30.7023 1346.73 31.2487 1347.36 31.4935C1347.88 31.7473 1350.83 32.1837 1354.06 32.2944C1357.19 32.5136 1364.78 33.2335 1370.97 33.8802C1377.04 34.4362 1385.75 35.2564 1390.2 35.6575C1405.07 36.8256 1413.89 37.7364 1414.94 38.2441C1415.57 38.5885 1418.82 38.9979 1422.35 39.1812C1429.21 39.5657 1430.12 39.5844 1444.43 41.3044C1449.71 41.9323 1457.02 42.7788 1460.67 43.2519C1478.33 45.2727 1483.91 45.9733 1489.1 46.7099C1500.8 48.4644 1513.19 49.9569 1519.57 50.5856C1523.21 50.8594 1527.99 51.5323 1530.25 52.1313C1532.51 52.6306 1536.59 53.3665 1539.42 53.6127C1542.17 53.9675 1547.24 54.6134 1550.6 55.1135C1556.51 55.9863 1564.85 57.2408 1576.55 58.8958C1591.5 61.0598 1597.31 61.9416 1608.34 64.0579C1611.3 64.5939 1616.71 65.5117 1620.36 65.9847C1624.03 66.5574 1629.23 67.3935 1632.09 67.9385C1638.22 69.0921 1646.38 70.5639 1658.11 72.6172C1662.91 73.4894 1670.88 74.9791 1675.98 75.9238C1680.99 76.8775 1687.73 78.1764 1690.8 78.803C1693.87 79.4296 1698.47 80.3197 1701.02 80.792C1703.58 81.364 1708.38 82.2361 1711.76 82.9353C1715.13 83.535 1719.53 84.443 1721.48 84.9694C1723.44 85.4957 1729.9 87.0207 1735.83 88.1923C1741.77 89.4635 1751.19 91.5244 1756.83 92.8226C1762.47 94.1208 1770.06 95.8456 1773.74 96.6175C1782.45 98.5422 1786.87 99.6495 1790.69 100.811C1794.71 102.054 1800.16 103.469 1804.04 104.124C1808.23 104.95 1815.93 106.865 1818.43 107.844C1819.58 108.343 1823.27 109.215 1826.66 110.013C1830.03 110.713 1834.46 111.919 1836.43 112.545C1838.39 113.171 1842.11 114.341 1844.68 115.013C1847.26 115.784 1850.77 116.873 1852.63 117.408C1854.39 118.052 1856.34 118.479 1856.84 118.434C1857.44 118.38 1859.18 118.825 1860.85 119.477C1862.41 120.139 1865.62 121.155 1867.88 121.754C1882.29 125.674 1941.43 145.638 1947.11 148.538C1947.95 148.965 1949.83 149.699 1951.27 150.171C1956.23 151.731 1973.61 158.496 1977.29 160.273C1979.29 161.297 1983.58 163.219 1986.72 164.642C2005.74 172.866 2008.78 174.298 2022.08 181.531C2027.57 184.549 2032.21 186.942 2032.51 186.915C2033.2 186.852 2044.54 193.36 2051.58 197.945C2055.2 200.229 2062.02 204.633 2066.82 207.714C2077.69 214.665 2096.99 230.494 2105.2 239.19C2111.65 246.138 2123.99 260.487 2125.41 262.869C2125.88 263.63 2126.92 265.142 2127.72 266.175C2132.18 272.198 2134.92 275.867 2136.17 277.461C2138.58 280.857 2152.72 303.98 2155.37 308.861C2156.81 311.443 2158.63 314.893 2159.58 316.514C2160.52 318.036 2162.71 322.356 2164.56 326.105C2166.29 329.764 2168.11 333.214 2168.55 333.577C2169.75 334.673 2200.9 336.078 2213.51 335.642C2226.53 335.27 2258.9 332.347 2267.29 330.786C2270.56 330.29 2275.21 329.469 2277.68 329.045C2282.92 328.17 2295.26 325.752 2297.41 325.155C2301.61 323.872 2308.79 322.22 2309.51 322.356C2309.92 322.42 2312.27 321.806 2314.81 320.974C2317.35 320.243 2322.45 318.879 2326.19 318.039C2329.84 317.308 2336.66 315.085 2341.33 313.359C2345.98 311.533 2352.8 309.21 2356.62 308.162C2366.43 305.57 2410.47 286.232 2423.08 279.069C2429 275.723 2436.56 271.626 2440.01 269.809C2443.47 268.091 2447.28 265.839 2448.6 264.816C2449.9 263.695 2454.54 260.565 2459.01 257.852C2463.49 255.138 2468.12 251.909 2469.32 250.796C2472.74 247.476 2473.6 248.2 2471.57 252.4C2470.47 254.608 2468.71 258.482 2467.54 261.098C2466.37 263.714 2464.76 266.972 2463.99 268.447C2463.22 269.923 2460.63 274.674 2458.31 279C2450.24 294.088 2446.57 300.142 2437.67 313.898C2422.41 337.265 2416.14 345.762 2395.39 370.529C2376.82 392.889 2369.8 400.752 2359.37 410.931C2357.16 413.139 2354.5 415.889 2353.4 417.093C2352.4 418.188 2348.61 421.843 2345.11 425.272C2341.5 428.71 2337.15 432.818 2335.4 434.483C2333.65 436.247 2329.27 440.056 2325.84 443.177C2322.4 446.199 2317.75 450.334 2315.61 452.234C2313.48 454.233 2310.39 456.721 2308.88 457.761C2307.27 458.81 2304.19 461.398 2301.97 463.506C2299.74 465.514 2297.49 467.224 2296.89 467.278C2296.39 467.323 2294.61 468.689 2292.95 470.345C2291.3 472.1 2286.61 475.737 2282.44 478.523C2278.37 481.3 2273.09 485.09 2270.75 486.908C2265.96 490.653 2260.84 493.928 2239.72 506.879L2225.16 515.824L2226.56 523.53C2227.25 527.785 2228.41 532.901 2229.09 534.848C2232.88 545.751 2243.33 662.585 2242.5 684.548C2242.3 688.984 2242.17 697.531 2242.22 703.651C2242.19 721.125 2240.6 756.912 2239.68 761.113C2239.47 762.136 2239.18 765.576 2238.96 768.708C2238.38 777.897 2237.19 790.255 2236.48 793.532C2236.03 795.179 2235.4 800.457 2234.92 805.219C2234.35 809.99 2233.61 815.177 2233.17 816.924C2232.82 818.562 2232.34 821.115 2232.17 822.537C2232 823.958 2231.34 827.832 2230.64 831.209C2229.94 834.585 2228.84 840.107 2228.24 843.475C2226.68 851.849 2223.04 868.242 2221.75 872.877C2221.15 875.04 2220.26 878.535 2219.64 880.598C2216.33 892.846 2215.8 894.801 2210.45 911.149C2208.07 918.191 2197.64 944.938 2194.76 950.92C2193.17 954.378 2191.58 957.935 2191.25 958.768C2190.93 959.6 2189.57 962.334 2188.27 964.66C2186.98 967.085 2185.9 969.493 2185.94 969.991C2186 970.588 2185.21 971.864 2184.2 972.959C2183.2 974.054 2182.41 975.33 2182.45 975.828C2182.5 976.326 2182.08 977.267 2181.65 978.009C2181.11 978.761 2178.21 983.34 2175.25 988.327C2172.18 993.322 2168.24 999.703 2166.4 1002.68C2159.99 1012.8 2143.32 1032.88 2136.17 1039.25C2134.03 1041.15 2132.3 1043.11 2132.34 1043.51C2132.37 1043.91 2131.63 1044.58 2130.66 1044.97C2129.79 1045.35 2128.01 1046.81 2126.74 1048.23C2124.08 1051.08 2107.52 1064.52 2101.94 1068.24C2099.85 1069.64 2096.83 1071.72 2095.32 1072.86C2090.16 1076.84 2062.19 1094.02 2053.94 1098.28C2049.44 1100.69 2044.46 1103.35 2042.94 1104.29C2041.31 1105.14 2039.18 1106.04 2038.08 1106.04C2035.88 1106.24 2031.1 1107.77 2022.94 1110.82C2008.67 1116.22 1895.67 1156.85 1837.69 1177.45C1818.9 1184.06 1802.08 1190.1 1800.24 1190.87C1795.5 1192.8 1782.95 1196.24 1770.56 1199.07C1764.75 1200.4 1759.56 1201.77 1758.89 1202.23C1758.33 1202.68 1754.51 1203.73 1750.36 1204.51C1741.97 1206.07 1729.67 1208.79 1719.26 1211.43C1715.42 1212.28 1708.03 1213.85 1702.7 1214.84C1697.36 1215.72 1689.76 1217.21 1685.93 1218.16C1674.62 1220.78 1636.34 1228.26 1622.1 1230.65C1602.31 1233.94 1575.21 1238.49 1564.74 1240.34C1557.91 1241.46 1541.46 1243.85 1528.06 1245.56C1514.66 1247.37 1494.75 1250.28 1483.66 1252.08C1472.68 1253.88 1451.73 1256.47 1437.09 1257.79C1422.55 1259.11 1400.78 1261.57 1388.69 1263.37C1362.52 1267.04 1239.46 1276.44 1193.63 1278.17C1177.92 1278.78 1157.01 1279.57 1147.11 1279.96C1108.09 1281.57 1062.69 1282.46 1046.37 1281.92C1041.65 1281.85 1031.71 1281.84 1024.29 1282.01C1007.45 1282.32 990.577 1282.24 982.601 1281.76C979.269 1281.56 973.131 1281.41 969.021 1281.48C964.91 1281.55 957.36 1281.32 952.408 1280.97C947.356 1280.62 936.085 1280.33 927.239 1280.23C918.403 1280.22 908.834 1279.88 906.1 1279.63C903.257 1279.28 896.186 1278.81 890.139 1278.56C884.191 1278.29 878.94 1277.96 878.415 1277.71C877.89 1277.45 873.943 1277.11 869.606 1276.9C848.358 1276.21 822.095 1274.46 820.728 1273.78C820.203 1273.53 816.953 1273.12 813.422 1272.93C805.446 1272.45 793.297 1271.34 787.295 1270.47C784.751 1270.1 778.568 1269.45 773.607 1269C768.546 1268.55 761.847 1267.75 758.688 1267.23C755.429 1266.72 751.789 1266.45 750.495 1266.57C749.2 1266.68 746.158 1266.35 743.596 1265.78C741.134 1265.2 734.517 1264.19 728.931 1263.49C718.584 1262.32 717.769 1262.19 703.493 1259.76C699.003 1258.97 693.707 1258.14 691.77 1257.81C686.474 1256.98 673.302 1254.56 669.808 1253.67C666.93 1252.92 659.579 1251.58 652.436 1250.32C650.698 1249.97 647.729 1249.34 645.774 1248.81C635.4 1246.23 631.399 1245.29 625.877 1244.18C622.501 1243.48 618.59 1242.43 617.133 1241.86C615.666 1241.19 613.621 1240.77 612.724 1240.85C611.828 1240.93 610.796 1240.62 610.353 1240.16C610.009 1239.69 608.244 1239.05 606.415 1238.81C603.066 1238.41 598.015 1236.96 593.118 1234.99C591.652 1234.32 589.905 1233.87 589.307 1233.93C588.709 1233.98 585.098 1232.9 581.26 1231.54C577.331 1230.29 572.769 1228.69 571.104 1228.04C561.057 1224.63 540.411 1216.15 530.862 1211.59C509.773 1201.55 478.941 1180.33 462.455 1164.55C454.981 1157.4 445.39 1147.92 443.472 1145.58C442.36 1144.38 438.786 1140.38 435.647 1136.75C432.399 1133.03 428.933 1129.12 428.029 1128C427.124 1126.88 425.089 1124.35 423.415 1122.49C421.271 1119.87 408.335 1102.27 400.619 1091.32C399.009 1089.05 379.337 1056.89 377.646 1053.73C376.796 1052.1 375.485 1049.81 374.861 1048.46C374.138 1047.12 371.633 1042.73 369.363 1038.71C366.993 1034.71 364.778 1030.19 364.253 1028.83C363.829 1027.47 363.006 1026.13 362.481 1025.88C361.956 1025.63 361.459 1024.57 361.351 1023.37C361.252 1022.28 360.465 1020.24 359.543 1018.92C358.611 1017.49 356.902 1014.13 355.763 1011.53C353.105 1005.44 349.027 996.973 346.965 993.043C346.016 991.421 345.247 989.583 345.184 988.886C345.04 987.292 341.325 978.39 339.272 974.56C338.313 972.839 337.518 970.702 337.428 969.706C337.347 968.809 336.461 966.781 335.521 965.259C334.589 963.837 333.712 961.908 333.64 961.111C333.559 960.215 332.719 957.58 331.688 955.062C327.313 944.413 319.495 922.326 316.631 912.845C315.601 909.223 314.39 905.818 314.037 905.248C313.594 904.786 312.636 901.961 311.986 899.208C310.64 894.309 308.291 886.087 305.029 875.537C304.18 872.803 302.382 866.238 300.992 860.841C299.601 855.444 297.921 849.069 297.098 846.634C295.373 840.865 290.921 821.588 289.071 812.216C288.304 808.168 286.959 802.165 285.965 798.941C283.742 791.009 281.685 779.347 272.531 722.439C267.742 692.75 261.592 624.627 260.923 593.862C259.788 541.251 259.644 524.095 260.518 517.088C260.864 514.245 261.121 508.198 261.196 503.472C261.301 494.626 262.153 478.484 263.064 469.667C263.31 466.833 263.903 460.052 264.305 454.494C264.706 448.935 265.453 441.638 265.854 438.289C266.354 434.93 267.082 428.539 267.583 424.076C268.084 419.613 268.929 413.412 269.456 410.352C269.983 407.292 270.674 402.711 270.947 400.176C271.977 390.444 275.246 373.281 281.121 346.042C285.379 326.48 286.504 322.262 289.425 313.464C290.214 311.083 290.804 308.72 290.759 308.222C290.714 307.724 291.25 305.869 291.912 304.303C292.564 302.638 293.082 300.583 293.01 299.786C292.938 298.989 293.491 297.333 294.198 296.265C294.896 295.097 295.458 293.54 295.395 292.843C295.332 292.146 297.137 286.561 299.396 280.433C303.168 269.952 305.889 262.276 307.957 256.266C308.528 254.808 310.179 250.844 311.774 247.386C313.37 243.929 315.555 239.213 316.552 236.914C321.774 224.695 323.995 220.378 332.035 205.997C336.874 197.327 343.581 185.978 347.034 180.846C354.61 169.118 374.525 145.029 383.23 136.914C386.754 133.684 390.541 130.028 391.546 128.934C393.467 126.852 402.616 119.199 405.088 117.67C405.849 117.2 409.064 115.002 412.18 112.813C421.419 106.155 443.236 94.2451 453.796 89.9784C456.702 88.8123 460.18 87.2934 461.52 86.5699C462.861 85.8465 465.478 84.807 467.325 84.1381C469.182 83.5689 473.746 81.8516 477.522 80.3057C481.199 78.7689 487.139 76.7265 490.652 75.606C494.175 74.5851 500.034 72.7509 503.837 71.5039C513.481 68.2234 523.759 65.2873 535.159 62.5512C540.565 61.2598 545.654 59.7963 546.423 59.4256C547.193 59.0549 550.535 58.2512 553.803 57.7553C557.063 57.1597 561.282 56.0759 563.13 55.4071C564.977 54.7383 568.527 54.0162 571.016 53.7914C573.506 53.5666 580.116 52.267 585.812 50.8491C591.516 49.5308 601.676 47.5091 608.503 46.3907C615.339 45.3719 627.11 43.4055 634.725 42.1155C642.34 40.8256 657.687 38.4359 668.878 36.7227C692.465 33.2879 813.618 21.7472 829.154 21.449ZM864.046 22.0138C865.857 22.0511 868.845 21.7814 870.52 21.4293C872.294 21.0683 870.882 20.995 867.297 21.3187C863.711 21.6424 862.335 21.9675 864.046 22.0138ZM649.917 41.3463C651.23 41.4286 653.421 41.2308 654.897 40.8967C656.472 40.5537 655.359 40.4534 652.67 40.6962C649.881 40.948 648.704 41.2551 649.917 41.3463ZM1148.65 21.4205C1149.66 21.5298 1151.25 21.3859 1152.13 21.1058C1153.1 20.7171 1152.29 20.5899 1150.39 20.7607C1148.5 20.9316 1147.72 21.2027 1148.65 21.4205ZM1193.5 23.3949C1194.22 23.5311 1195.42 23.4232 1195.99 23.1701C1196.66 22.8083 1196.15 22.6541 1194.75 22.78C1193.36 22.9059 1192.88 23.15 1193.5 23.3949ZM1319.3 31.0144C1319.63 31.2862 1320.53 31.3049 1321.2 30.9432C1321.97 30.5724 1321.64 30.3006 1320.55 30.3995C1319.44 30.3989 1318.87 30.7516 1319.3 31.0144ZM1433.82 42.7645C1434.15 43.0363 1435.05 43.0549 1435.72 42.6932C1436.49 42.3225 1436.17 42.0507 1435.07 42.1496C1433.97 42.1489 1433.39 42.5016 1433.82 42.7645ZM262.509 503.554C262.88 504.324 263.151 503.998 263.052 502.902C263.053 501.798 262.7 501.227 262.438 501.653C262.166 501.978 262.147 502.884 262.509 503.554ZM2223.96 520.251C2224.32 520.921 2224.47 520.405 2224.35 519.011C2224.22 517.616 2223.98 517.136 2223.73 517.761C2223.59 518.476 2223.7 519.671 2223.96 520.251ZM2233.38 580.146C2233.77 581.115 2233.9 580.3 2233.72 578.408C2233.55 576.516 2233.28 575.737 2233.06 576.66C2232.96 577.674 2233.1 579.268 2233.38 580.146ZM2238.68 638.907C2239.07 639.876 2239.2 639.061 2239.03 637.169C2238.86 635.277 2238.59 634.498 2238.37 635.421C2238.26 636.435 2238.4 638.029 2238.68 638.907ZM290.474 813.294C290.844 814.064 291.116 813.738 291.017 812.643C291.018 811.538 290.665 810.968 290.402 811.393C290.131 811.719 290.112 812.624 290.474 813.294ZM2234.01 798.473C2234.38 799.143 2234.53 798.628 2234.4 797.233C2234.28 795.839 2234.03 795.359 2233.79 795.983C2233.65 796.699 2233.76 797.894 2234.01 798.473ZM829.999 1273.04C830.325 1273.31 831.23 1273.33 831.901 1272.97C832.67 1272.6 832.345 1272.33 831.249 1272.43C830.144 1272.43 829.574 1272.78 829.999 1273.04ZM1725.71 1208.34C1726.72 1208.45 1728.32 1208.31 1729.2 1208.03C1730.16 1207.64 1729.35 1207.51 1727.46 1207.68C1725.57 1207.85 1724.79 1208.12 1725.71 1208.34ZM939 1279.27C939.326 1279.54 940.232 1279.56 940.902 1279.2C941.672 1278.83 941.346 1278.55 940.25 1278.65C939.146 1278.65 938.575 1279 939 1279.27ZM1641.86 1224.95C1642.88 1225.06 1644.47 1224.91 1645.35 1224.63C1646.32 1224.24 1645.5 1224.12 1643.61 1224.29C1641.72 1224.46 1640.94 1224.73 1641.86 1224.95ZM1027.86 1280.38C1028.58 1280.52 1029.97 1280.39 1030.85 1280.11C1031.82 1279.72 1031.2 1279.58 1029.61 1279.72C1027.92 1279.87 1027.24 1280.14 1027.86 1280.38ZM1570.2 1237.44C1570.91 1237.58 1572.31 1237.45 1573.18 1237.17C1574.15 1236.78 1573.54 1236.64 1571.94 1236.78C1570.25 1236.93 1569.57 1237.2 1570.2 1237.44ZM1101.1 1279.79C1102.42 1279.88 1104.61 1279.68 1106.08 1279.34C1107.66 1279 1106.55 1278.9 1103.86 1279.14C1101.07 1279.39 1099.89 1279.7 1101.1 1279.79Z" fill="#FFC107"/>
</g>
<defs>
<clipPath id="clip0">
<rect width="2504" height="1291" fill="white" transform="matrix(-1 0 0 1 2504 0)"/>
</clipPath>
</defs>
</svg>
