<svg xmlns="http://www.w3.org/2000/svg" width="2504" height="1291" fill="none"  xmlns:v="https://vecta.io/nano"><path d="M1619 2c-5.8.5-24.4 1.3-41.5 2-17 .6-34.1 1.5-38 2-3.8.5-11.9 1-18 1-6 0-16.3.7-23 1.5-6.6.8-19.4 2-28.5 2.6-25.7 1.6-38.8 2.7-47.5 3.8-4.4.6-13.2 1.5-19.5 2.1-23.9 2.1-54.5 5.5-64.5 7-3.3.5-9.6 1.2-14 1.5s-11.8 1.2-16.5 2c-13.7 2.3-31.2 4.5-35.5 4.5-2.2 0-5.6.5-7.5 1-1.9.6-7.5 1.5-12.5 2-4.9.6-13 1.7-18 2.5-14.9 2.6-20.7 3.4-27 4-3.3.3-7.8 1-10 1.5s-10.7 1.8-19 3c-8.2 1.2-16.6 2.5-18.5 3-3.1.8-9.2 1.8-29.5 5-2.7.5-9.7 1.6-15.4 2.4-5.7.9-10.7 1.9-11.3 2.2-.5.3-3.4 1-6.6 1.4-3.1.5-10.6 1.9-16.7 3.1l-19 3.5c-14.7 2.5-23.4 4.2-24.4 4.8-.6.4-3.8 1.1-7.3 1.6-6.8 1-7.7 1.1-21.8 4.1l-16 3.4-28 6c-11.5 2.8-23.7 5.4-30 6.6-3.6.6-8.3 1.7-10.5 2.5-2.2.7-6.2 1.8-9 2.3l-11 2.5-25.5 6.1c-14.7 3.5-20.4 4.9-31.2 8-2.9.8-8.2 2.2-11.8 3l-11.5 3-25.5 7-17.5 4.9-24.5 7.1c-2.5.8-7.2 2.1-10.5 3.1-3.3.9-7.6 2.2-9.5 2.9s-8.2 2.8-14 4.5l-20.5 6.5-16.5 5.3c-8.5 2.7-12.8 4.2-16.5 5.7-3.9 1.6-9.2 3.5-13 4.5-4.1 1.2-11.6 3.8-14 5-1.1.6-4.7 1.8-8 2.9-3.3 1-7.6 2.6-9.5 3.4s-5.5 2.3-8 3.2l-7.7 3.1c-1.7.8-3.6 1.4-4.1 1.4-.6 0-2.3.6-3.9 1.4-1.5.8-4.6 2.1-6.8 2.9-14 5.2-71.1 30.4-76.5 33.8-.8.5-2.6 1.4-4 2-4.8 2-21.5 10.3-25 12.4-1.9 1.2-6 3.5-9 5.2-18.2 9.9-21.1 11.6-33.7 20-5.2 3.5-9.6 6.3-9.9 6.3-.7 0-11.4 7.5-18 12.7l-14.3 11.1c-10.2 7.9-28 25.4-35.4 34.8-5.8 7.5-16.8 22.9-18 25.4-.4.8-1.3 2.4-2 3.5l-7.4 12c-2.1 3.6-14.1 27.9-16.3 33l-3.5 8c-.8 1.6-2.6 6.1-4.1 10-1.4 3.8-2.9 7.4-3.3 7.8-1.1 1.2-32 5.4-44.6 6.1-13 .8-45.5.8-54 0-3.3-.2-8-.6-10.5-.8-5.3-.4-17.8-1.7-20-2.1-4.3-.9-11.6-1.9-12.3-1.7-.4.1-2.8-.3-5.4-.9-2.6-.5-7.8-1.4-11.6-1.9-3.7-.4-10.7-2-15.5-3.3-4.8-1.4-11.8-3.1-15.7-3.8-10-1.7-55.6-17-68.8-23L37 394.2c-3.6-1.4-7.6-3.3-9-4.2-1.4-1-6.3-3.7-11-6s-9.6-5.1-10.9-6.1c-3.7-3-4.5-2.2-2.1 1.8 1.3 2.1 3.4 5.8 4.8 8.3a159.93 159.93 0 0 0 4.2 7l6.6 10c9.4 14.3 13.6 20 23.7 32.9 17.3 21.9 24.3 29.8 47.2 52.6 20.5 20.6 28.2 27.8 39.5 37 2.4 2 5.3 4.5 6.5 5.6 1.1 1 5.2 4.3 9 7.4l10.5 8.3c1.9 1.6 6.6 5 10.3 7.8l11 8.1c2.3 1.8 5.6 4 7.2 4.9 1.7.9 5 3.2 7.4 5.1 2.4 1.8 4.8 3.3 5.4 3.3.5 0 2.4 1.2 4.2 2.7 1.8 1.6 6.8 4.8 11.2 7.2 4.3 2.4 9.9 5.7 12.4 7.3 5.1 3.3 10.5 6.1 32.7 17.1l15.3 7.6-.7 7.8c-.3 4.3-1 9.5-1.5 11.5-2.8 11.2-2.7 128.5.1 150.3.6 4.4 1.5 12.9 2 19 1.6 17.4 6.4 52.9 7.7 57 .3 1 .9 4.4 1.4 7.5 1.4 9.1 3.7 21.3 4.7 24.5.6 1.6 1.7 6.8 2.6 11.5 1 4.7 2.2 9.8 2.8 11.5.5 1.6 1.2 4.1 1.5 5.5s1.3 5.2 2.3 8.5l3.5 12c2.3 8.2 7.4 24.2 9.1 28.7l2.8 7.5c4.4 11.9 5.1 13.8 11.9 29.6 3 6.8 15.8 32.5 19.2 38.2l4.2 7.5c.4.8 2 3.4 3.5 5.6 1.5 2.3 2.8 4.6 2.8 5.1 0 .6.9 1.8 2 2.8s2 2.2 2 2.7.5 1.4 1 2.1c.6.7 3.9 5 7.3 9.7l10.1 13.5c7.3 9.5 25.7 28 33.4 33.7 2.3 1.7 4.2 3.5 4.2 3.9s.8 1 1.8 1.3c.9.3 2.8 1.6 4.2 2.9 2.9 2.6 20.6 14.5 26.5 17.7 2.2 1.2 5.4 3 7 4 5.5 3.5 34.9 18.1 43.5 21.6l11.5 5c1.7.7 3.9 1.4 5 1.3 2.2 0 7.1 1.1 15.5 3.4 14.7 4.1 130.9 34.4 190.5 49.7l38.5 10c4.9 1.5 17.7 3.8 30.3 5.5 5.9.8 11.2 1.7 11.9 2.1.6.4 4.5 1.1 8.7 1.5 8.5.8 21 2.4 31.6 4.1 3.9.5 11.4 1.4 16.8 1.9 5.4.4 13.1 1.2 17 1.8 11.5 1.6 50.3 5.6 64.7 6.7l58 4.5c6.9.5 23.5 1.4 37 1.9l44.8 2.5c11.1.8 32.2 1.5 46.9 1.5 14.6 0 36.5.5 48.7 1.2 26.4 1.3 149.8-.4 195.6-2.8l46.5-2.4c39-1.9 84.3-5.1 100.5-7.1a693.84 693.84 0 0 1 22-1.9c16.8-1.2 33.6-2.8 41.5-4 3.3-.5 9.4-1.2 13.5-1.5s11.6-1.2 16.5-2c5-.8 16.2-2.1 25-3 8.8-.8 18.3-2 21-2.5 2.8-.6 9.8-1.7 15.8-2.5 5.9-.8 11.1-1.6 11.6-1.9s4.4-1 8.7-1.6c21.1-2.6 47.1-6.7 48.4-7.5.5-.3 3.7-1 7.2-1.5 7.9-1.2 19.9-3.4 25.8-4.8 2.5-.6 8.6-1.8 13.5-2.7 5-.9 11.6-2.3 14.7-3.1 3.2-.8 6.8-1.4 8.1-1.4s4.3-.6 6.8-1.4c2.4-.8 8.9-2.4 14.4-3.6 10.2-2.1 11-2.3 25-6l11.5-3c5.2-1.3 18.1-4.9 21.5-6.1 2.8-1 10-3 17-4.9 1.7-.5 4.6-1.4 6.5-2.1 10.1-3.5 14-4.8 19.4-6.4 3.3-1 7.1-2.4 8.5-3.1 1.4-.8 3.4-1.4 4.3-1.4s1.9-.4 2.3-.9c.3-.5 2-1.3 3.8-1.7 3.3-.7 8.2-2.6 12.9-5 1.4-.8 3.1-1.4 3.7-1.4s4.1-1.4 7.8-3.1c3.8-1.6 8.2-3.6 9.8-4.4 9.7-4.3 29.5-14.6 38.6-20 20.1-11.9 48.9-35.8 63.9-53 6.8-7.8 15.5-18.1 17.2-20.6 1-1.3 4.2-5.6 7-9.5l6.8-9.4c.8-1.2 2.6-3.9 4.1-5.9 1.9-2.8 13.2-21.5 19.9-33.1 1.4-2.4 18.1-36.2 19.5-39.5.7-1.7 1.8-4.1 2.3-5.5.6-1.4 2.7-6 4.6-10.2 2-4.2 3.8-8.9 4.2-10.3.3-1.4 1-2.8 1.5-3.1s.9-1.4.9-2.6c0-1.1.6-3.2 1.4-4.6.8-1.5 2.2-5 3.1-7.7 2.1-6.3 5.4-15.1 7.1-19.2.8-1.7 1.4-3.6 1.4-4.3 0-1.6 2.9-10.8 4.6-14.8.8-1.8 1.4-4 1.4-5 0-.9.7-3 1.5-4.6.8-1.5 1.5-3.5 1.5-4.3 0-.9.6-3.6 1.4-6.2 3.4-11 9.2-33.7 11.2-43.4.7-3.7 1.6-7.2 1.9-7.8.4-.5 1.1-3.4 1.5-6.2.9-5 2.5-13.4 4.8-24.2.6-2.8 1.8-9.5 2.7-15s2-12 2.6-14.5c1.2-5.9 3.9-25.5 4.9-35 .4-4.1 1.2-10.2 1.9-13.5 1.5-8.1 2.5-19.9 6.5-77.4 2.1-30 2.1-98.4 0-129.1-3.6-52.5-5-69.6-6.5-76.5-.6-2.8-1.4-8.8-1.9-13.5-.9-8.8-3.2-24.8-4.9-33.5l-2.6-15a418.63 418.63 0 0 0-3-16c-.8-3.3-2.1-9.6-3-14s-2.3-10.5-3.1-13.5-1.9-7.5-2.4-10c-1.9-9.6-6.7-26.4-15-53-6-19.1-7.5-23.2-11.2-31.7-1-2.3-1.8-4.6-1.8-5.1s-.7-2.3-1.5-3.8c-.8-1.6-1.5-3.6-1.5-4.4s-.7-2.4-1.5-3.4c-.8-1.1-1.5-2.6-1.5-3.3s-2.3-6.1-5.1-12l-10.7-23.3a199.91 199.91 0 0 0-4.6-8.5l-5.7-10c-6.3-11.7-8.9-15.8-18.2-29.4-5.6-8.2-13.3-18.9-17.2-23.7-8.6-11-30.6-33.2-40-40.5-3.8-2.9-7.9-6.2-9-7.2-2.1-1.9-11.9-8.7-14.5-10-.8-.4-4.2-2.3-7.5-4.2-9.8-5.8-32.6-15.7-43.5-19-3-.9-6.6-2.1-8-2.7s-4.1-1.4-6-1.9c-1.9-.4-6.6-1.7-10.5-2.9-3.8-1.2-9.9-2.7-13.5-3.5-3.6-.7-9.6-2-13.5-2.9-9.9-2.4-20.4-4.4-32-6.1-5.5-.8-10.7-1.8-11.5-2.1s-4.2-.8-7.5-1c-3.3-.3-7.6-1-9.5-1.5s-5.5-.9-8-.9-9.2-.7-15-1.6c-5.8-.8-16.1-1.9-23-2.4l-26.5-1.9-34.5-2.3c-23.8-1.3-145.5-1.9-161-.8zm-34.7 3.7c-1.8.2-4.8.2-6.5 0-1.8-.2-.4-.4 3.2-.4s5 .2 3.3.4zm215 0c-1.3.2-3.5.2-5 0-1.6-.2-.5-.4 2.2-.4 2.8 0 4 .2 2.8.4zm-498.5 25c-1 .2-2.6.2-3.5 0-1-.3-.2-.5 1.7-.5s2.7.2 1.8.5zm-44.5 6c-.7.2-1.9.2-2.5 0-.7-.3-.2-.5 1.2-.5s1.9.2 1.3.5zm-124.6 18.9c-.3.3-1.2.4-1.9.1-.8-.3-.5-.6.6-.6 1.1-.1 1.7.2 1.3.5zm-113 22c-.3.3-1.2.4-1.9.1-.8-.3-.5-.6.6-.6 1.1-.1 1.7.2 1.3.5zm1208 353.6c-.3.8-.6.5-.6-.6-.1-1.1.2-1.7.5-1.3.3.3.4 1.2.1 1.9zm-1952 193c-.3.7-.5.2-.5-1.2s.2-1.9.5-1.3c.2.7.2 1.9 0 2.5zm-4 60.5c-.3 1-.5.2-.5-1.7s.2-2.7.5-1.8c.2 1 .2 2.6 0 3.5zm0 59c-.3 1-.5.2-.5-1.7s.2-2.7.5-1.8c.2 1 .2 2.6 0 3.5zm1956-1.5c-.3.8-.6.5-.6-.6-.1-1.1.2-1.7.5-1.3.3.3.4 1.2.1 1.9zm-1937 160c-.3.7-.5.2-.5-1.2s.2-1.9.5-1.3c.2.7.2 1.9 0 2.5zm1441 346.4c-.3.3-1.2.4-1.9.1-.8-.3-.5-.6.6-.6 1.1-.1 1.7.2 1.3.5zm-897.9 16.1c-1 .2-2.6.2-3.5 0-1-.3-.2-.5 1.7-.5s2.7.2 1.8.5zm789.9-.1c-.3.3-1.2.4-1.9.1-.8-.3-.5-.6.6-.6 1.1-.1 1.7.2 1.3.5zm-704.9 9.1c-1 .2-2.6.2-3.5 0-1-.3-.2-.5 1.7-.5s2.7.2 1.8.5zm616.5 0c-.7.2-2.1.2-3 0-1-.3-.4-.5 1.2-.5 1.7 0 2.4.2 1.8.5zm-544 6c-.7.2-2.1.2-3 0-1-.3-.4-.5 1.2-.5 1.7 0 2.4.2 1.8.5zm471 0c-1.3.2-3.5.2-5 0-1.6-.2-.5-.4 2.2-.4 2.8 0 4 .2 2.8.4z" fill="#6562ff"/></svg>