<svg xmlns="http://www.w3.org/2000/svg" width="2504" height="1291" fill="none"  xmlns:v="https://vecta.io/nano"><g clip-path="url(#A)"><path d="M829.154 21.449c5.821-.024 24.418-.899 41.512-1.74 16.985-.931 34.096-1.572 38.026-1.425 3.829.156 11.941-.074 18.017-.623 5.975-.54 16.297-.768 23.041-.574 6.646.203 19.502.248 28.619.027 25.741-.717 38.881-.8 47.651-.486 4.43.202 13.28.307 19.61.338 23.99-.057 54.77.577 64.87 1.172 3.33.201 9.66.332 14.07.235s11.86.134 16.62.508c13.85 1.059 31.48 1.676 35.76 1.29 2.19-.198 5.62-.006 7.56.322 1.94.427 7.6.82 12.63.868 4.93.157 13.1.524 18.15.871 15.07 1.25 20.92 1.525 27.25 1.556 3.31.002 7.86.295 10.09.595 2.24.3 10.82.831 19.2 1.279 8.27.458 16.75.997 18.69 1.324 3.16.518 9.33.965 29.83 2.327 2.73.255 9.81.721 15.55 1.006 5.76.384 10.83.93 11.46 1.175.52.254 3.47.69 6.7.801 3.13.219 10.72.939 16.91 1.586l19.23 1.777c14.87 1.168 23.69 2.079 24.74 2.587.63.344 3.88.754 7.41.937 6.86.385 7.77.403 22.08 2.123l16.24 1.947 28.43 3.458c11.7 1.755 24.09 3.247 30.47 3.876 3.64.274 8.42.947 10.68 1.546 2.26.499 6.34 1.235 9.17 1.481l11.18 1.501 25.95 3.782c14.95 2.164 20.76 3.046 31.79 5.162 2.96.536 8.37 1.454 12.02 1.927l11.73 1.954 26.02 4.679 17.87 3.307 25.04 4.868c2.56.572 7.36 1.444 10.74 2.143 3.37.6 7.77 1.508 9.72 2.034 1.96.526 8.42 2.051 14.35 3.223l21 4.63 16.91 3.795c8.71 1.925 13.13 3.032 16.95 4.194 4.02 1.243 9.47 2.658 13.35 3.313 4.19.826 11.89 2.741 14.39 3.72 1.15.499 4.84 1.371 8.23 2.169 3.37.7 7.8 1.906 9.77 2.532 1.96.626 5.68 1.796 8.25 2.468l7.95 2.395c1.76.644 3.71 1.071 4.21 1.026.6-.054 2.34.391 4.01 1.043 1.56.662 4.77 1.678 7.03 2.277 14.41 3.92 73.55 23.884 79.23 26.784.84.427 2.72 1.161 4.16 1.633 4.96 1.56 22.34 8.325 26.02 10.102 2 1.024 6.29 2.946 9.43 4.369 19.02 8.224 22.06 9.656 35.36 16.889 5.49 3.018 10.13 5.411 10.43 5.384.69-.063 12.03 6.445 19.07 11.03l15.24 9.769c10.87 6.951 30.17 22.78 38.38 31.476 6.45 6.948 18.79 21.297 20.21 23.679a47.01 47.01 0 0 0 2.31 3.306l8.45 11.286c2.41 3.396 16.55 26.519 19.2 31.4l4.21 7.653c.94 1.522 3.13 5.842 4.98 9.591 1.73 3.659 3.55 7.109 3.99 7.472 1.2 1.096 32.35 2.501 44.96 2.065 13.02-.372 45.39-3.295 53.78-4.856 3.27-.496 7.92-1.317 10.39-1.741 5.24-.875 17.58-3.293 19.73-3.89 4.2-1.283 11.38-2.935 12.1-2.799.41.064 2.76-.55 5.3-1.382 2.54-.731 7.64-2.095 11.38-2.935 3.65-.731 10.47-2.954 15.14-4.68 4.65-1.826 11.47-4.149 15.29-5.197 9.81-2.592 53.85-21.93 66.46-29.093l16.93-9.26c3.46-1.718 7.27-3.97 8.59-4.993 1.3-1.121 5.94-4.251 10.41-6.964 4.48-2.714 9.11-5.943 10.31-7.056 3.42-3.32 4.28-2.596 2.25 1.604-1.1 2.208-2.86 6.082-4.03 8.698s-2.78 5.874-3.55 7.349L2458.31 279c-8.07 15.088-11.74 21.142-20.64 34.898-15.26 23.367-21.53 31.864-42.28 56.631-18.57 22.36-25.59 30.223-36.02 40.402-2.21 2.208-4.87 4.958-5.97 6.162-1 1.095-4.79 4.75-8.29 8.179l-9.71 9.211c-1.75 1.764-6.13 5.573-9.56 8.694l-10.23 9.057c-2.13 1.999-5.22 4.487-6.73 5.527-1.61 1.049-4.69 3.637-6.91 5.745-2.23 2.008-4.48 3.718-5.08 3.772-.5.045-2.28 1.411-3.94 3.067-1.65 1.755-6.34 5.392-10.51 8.178-4.07 2.777-9.35 6.567-11.69 8.385-4.79 3.745-9.91 7.02-31.03 19.971l-14.56 8.945 1.4 7.706c.69 4.255 1.85 9.371 2.53 11.318 3.79 10.903 14.24 127.737 13.41 149.7-.2 4.436-.33 12.983-.28 19.103-.03 17.474-1.62 53.261-2.54 57.462-.21 1.023-.5 4.463-.72 7.595-.58 9.189-1.77 21.547-2.48 24.824-.45 1.647-1.08 6.925-1.56 11.687-.57 4.771-1.31 9.958-1.75 11.705-.35 1.638-.83 4.191-1 5.613s-.83 5.295-1.53 8.672l-2.4 12.266c-1.56 8.374-5.2 24.767-6.49 29.402l-2.11 7.721c-3.31 12.248-3.84 14.203-9.19 30.551-2.38 7.042-12.81 33.789-15.69 39.771l-3.51 7.848c-.32.832-1.68 3.566-2.98 5.892-1.29 2.425-2.37 4.833-2.33 5.331.06.597-.73 1.873-1.74 2.968-1 1.095-1.79 2.371-1.75 2.869.05.498-.37 1.439-.8 2.181-.54.752-3.44 5.331-6.4 10.318l-8.85 14.353c-6.41 10.12-23.08 30.2-30.23 36.57-2.14 1.9-3.87 3.86-3.83 4.26.03.4-.71 1.07-1.68 1.46-.87.38-2.65 1.84-3.92 3.26-2.66 2.85-19.22 16.29-24.8 20.01-2.09 1.4-5.11 3.48-6.62 4.62-5.16 3.98-33.13 21.16-41.38 25.42l-11 6.01c-1.63.85-3.76 1.75-4.86 1.75-2.2.2-6.98 1.73-15.14 4.78-14.27 5.4-127.27 46.03-185.25 66.63l-37.45 13.42c-4.74 1.93-17.29 5.37-29.68 8.2-5.81 1.33-11 2.7-11.67 3.16-.56.45-4.38 1.5-8.53 2.28-8.39 1.56-20.69 4.28-31.1 6.92-3.84.85-11.23 2.42-16.56 3.41-5.34.88-12.94 2.37-16.77 3.32-11.31 2.62-49.59 10.1-63.83 12.49l-57.36 9.69c-6.83 1.12-23.28 3.51-36.68 5.22l-44.4 6.52c-10.98 1.8-31.93 4.39-46.57 5.71-14.54 1.32-36.31 3.78-48.4 5.58-26.17 3.67-149.23 13.07-195.06 14.8l-46.52 1.79c-39.02 1.61-84.42 2.5-100.74 1.96-4.72-.07-14.66-.08-22.08.09-16.84.31-33.713.23-41.689-.25a214.71 214.71 0 0 0-13.58-.28c-4.111.07-11.661-.16-16.613-.51-5.052-.35-16.323-.64-25.169-.74-8.836-.01-18.405-.35-21.139-.6-2.843-.35-9.914-.82-15.961-1.07-5.948-.27-11.199-.6-11.724-.85-.525-.26-4.472-.6-8.809-.81-21.248-.69-47.511-2.44-48.878-3.12-.525-.25-3.775-.66-7.306-.85-7.976-.48-20.125-1.59-26.127-2.46-2.544-.37-8.727-1.02-13.688-1.47-5.061-.45-11.76-1.25-14.919-1.77-3.259-.51-6.899-.78-8.193-.66-1.295.11-4.337-.22-6.899-.79-2.462-.58-9.079-1.59-14.665-2.29-10.347-1.17-11.162-1.3-25.438-3.73l-11.723-1.95c-5.296-.83-18.468-3.25-21.962-4.14-2.878-.75-10.229-2.09-17.372-3.35-1.738-.35-4.707-.98-6.662-1.51l-19.897-4.63c-3.376-.7-7.287-1.75-8.744-2.32-1.467-.67-3.512-1.09-4.409-1.01s-1.928-.23-2.371-.69c-.344-.47-2.109-1.11-3.938-1.35-3.349-.4-8.4-1.85-13.297-3.82-1.466-.67-3.213-1.12-3.811-1.06-.598.05-4.209-1.03-8.047-2.39-3.929-1.25-8.491-2.85-10.156-3.5-10.047-3.41-30.693-11.89-40.242-16.45-21.089-10.04-51.921-31.26-68.407-47.04-7.474-7.15-17.065-16.63-18.983-18.97-1.112-1.2-4.686-5.2-7.825-8.83l-7.618-8.75c-.905-1.12-2.94-3.65-4.614-5.51-2.144-2.62-15.08-20.22-22.796-31.17-1.61-2.27-21.282-34.43-22.973-37.59-.85-1.63-2.161-3.92-2.785-5.27-.723-1.34-3.228-5.73-5.498-9.75-2.37-4-4.585-8.52-5.11-9.88-.424-1.36-1.247-2.7-1.772-2.95s-1.022-1.31-1.13-2.51c-.099-1.09-.886-3.13-1.808-4.45-.932-1.43-2.641-4.79-3.78-7.39-2.658-6.09-6.736-14.557-8.798-18.487-.949-1.622-1.718-3.46-1.781-4.157-.144-1.594-3.859-10.496-5.912-14.326-.959-1.721-1.754-3.858-1.844-4.854-.081-.897-.967-2.925-1.907-4.447-.932-1.422-1.809-3.351-1.881-4.148-.081-.896-.921-3.531-1.952-6.049-4.375-10.649-12.193-32.736-15.057-42.217-1.03-3.622-2.241-7.027-2.594-7.597-.443-.462-1.401-3.287-2.051-6.04-1.346-4.899-3.695-13.121-6.957-23.671-.849-2.734-2.647-9.299-4.037-14.696s-3.071-11.772-3.894-14.207c-1.725-5.769-6.177-25.046-8.027-34.418-.767-4.048-2.112-10.051-3.106-13.275-2.223-7.932-4.28-19.594-13.434-76.502-4.789-29.689-10.939-97.812-11.608-128.577-1.135-52.611-1.279-69.767-.405-76.774.346-2.843.603-8.89.678-13.616.105-8.846.957-24.988 1.868-33.805l1.241-15.173c.401-5.559 1.148-12.856 1.549-16.205.5-3.359 1.228-9.75 1.729-14.213s1.346-10.664 1.873-13.724 1.218-7.641 1.491-10.176c1.03-9.732 4.299-26.895 10.174-54.134 4.258-19.562 5.383-23.78 8.304-32.578.789-2.381 1.379-4.744 1.334-5.242s.491-2.353 1.153-3.919c.652-1.665 1.17-3.72 1.098-4.517s.481-2.453 1.188-3.521c.698-1.168 1.26-2.725 1.197-3.422s1.742-6.282 4.001-12.41l8.561-24.167c.571-1.458 2.222-5.422 3.817-8.88l4.778-10.472c5.222-12.219 7.443-16.536 15.483-30.917 4.839-8.67 11.546-20.019 14.999-25.151 7.576-11.728 27.491-35.817 36.196-43.932 3.524-3.23 7.311-6.886 8.316-7.98 1.921-2.082 11.07-9.735 13.542-11.264.761-.47 3.976-2.668 7.092-4.857 9.239-6.658 31.056-18.568 41.616-22.835 2.906-1.166 6.384-2.685 7.724-3.408s3.958-1.763 5.805-2.432c1.857-.569 6.421-2.286 10.197-3.832 3.677-1.537 9.617-3.579 13.13-4.7 3.523-1.021 9.382-2.855 13.185-4.102 9.644-3.281 19.922-6.217 31.322-8.953 5.406-1.291 10.495-2.755 11.264-3.126s4.112-1.174 7.38-1.67c3.26-.596 7.479-1.679 9.327-2.348s5.397-1.391 7.886-1.616 9.1-1.524 14.796-2.942c5.704-1.318 15.864-3.34 22.691-4.458l26.222-4.275 34.153-5.393c23.587-3.435 144.74-14.976 160.276-15.274zm34.892.565c1.811.037 4.799-.232 6.474-.584 1.774-.361.362-.434-3.223-.111s-4.962.649-3.251.695zM649.917 41.346c1.313.082 3.504-.115 4.98-.45 1.575-.343.462-.443-2.227-.201-2.789.252-3.966.559-2.753.65zm498.733-19.926c1.01.109 2.6-.035 3.48-.315.97-.389.16-.516-1.74-.345-1.89.171-2.67.442-1.74.66zm44.85 1.974c.72.136 1.92.028 2.49-.225.67-.362.16-.516-1.24-.39-1.39.126-1.87.37-1.25.615zm125.8 7.619c.33.272 1.23.291 1.9-.071.77-.371.44-.643-.65-.544-1.11-.001-1.68.352-1.25.615zm114.52 11.75c.33.272 1.23.29 1.9-.071.77-.371.45-.642-.65-.544-1.1-.001-1.68.352-1.25.615zM262.509 503.554c.371.77.642.444.543-.652.001-1.104-.352-1.675-.614-1.249-.272.325-.291 1.231.071 1.901zm1961.451 16.697c.36.67.51.154.39-1.24-.13-1.395-.37-1.875-.62-1.25-.14.715-.03 1.91.23 2.49zm9.42 59.895c.39.969.52.154.34-1.738-.17-1.892-.44-2.671-.66-1.748-.1 1.014.04 2.608.32 3.486zm5.3 58.761c.39.969.52.154.35-1.738s-.44-2.671-.66-1.748c-.11 1.014.03 2.608.31 3.486zM290.474 813.294c.37.77.642.444.543-.651.001-1.105-.352-1.675-.615-1.25-.271.326-.29 1.231.072 1.901zm1943.536-14.821c.37.67.52.155.39-1.24-.12-1.394-.37-1.874-.61-1.25-.14.716-.03 1.911.22 2.49zM829.999 1273.04c.326.27 1.231.29 1.902-.07.769-.37.444-.64-.652-.54-1.105 0-1.675.35-1.25.61zm895.711-64.7c1.01.11 2.61-.03 3.49-.31.96-.39.15-.52-1.74-.35s-2.67.44-1.75.66zM939 1279.27c.326.27 1.232.29 1.902-.07.77-.37.444-.65-.652-.55-1.104 0-1.675.35-1.25.62zm702.86-54.32c1.02.11 2.61-.04 3.49-.32.97-.39.15-.51-1.74-.34s-2.67.44-1.75.66zm-614 55.43c.72.14 2.11.01 2.99-.27.97-.39.35-.53-1.24-.39-1.69.15-2.37.42-1.75.66zm542.34-42.94c.71.14 2.11.01 2.98-.27.97-.39.36-.53-1.24-.39-1.69.15-2.37.42-1.74.66zm-469.1 42.35c1.32.09 3.51-.11 4.98-.45 1.58-.34.47-.44-2.22-.2-2.79.25-3.97.56-2.76.65z" fill="#ffc107"/></g><defs><clipPath id="A"><path fill="#fff" transform="matrix(-1 0 0 1 2504 0)" d="M0 0h2504v1291H0z"/></clipPath></defs></svg>