<svg xmlns="http://www.w3.org/2000/svg" width="334" height="334" fill="none"  xmlns:v="https://vecta.io/nano"><path fill-rule="evenodd" d="M180.384 1.863l-8.345 23.068-5.767-23.832-7.142-.386 9.146 31.768 6.712.363L187.547 2.25l-7.163-.388zm-35.552 26.106l-11.121 1.986-.98 6.711-6.744 1.204 5.951-32.786 5.878-1.05 17.031 28.682-6.745 1.204-3.27-5.952zm-10.328-3.45l7.696-1.374-5.931-10.815-1.765 12.19zM116.219 42.62l5.897-2.594-12.614-28.575-5.897 2.594 5.112 11.579-11.499 5.058-5.112-11.579-5.897 2.594 12.614 28.575 5.897-2.594-5.406-12.246 11.498-5.058 5.406 12.246zM72.586 60.264c-.826-.893-1.773-1.285-2.841-1.176-1.078.099-2.681.642-4.808 1.629-2.137.977-3.922 1.649-5.356 2.017-3.911.997-6.97.303-9.175-2.081-1.146-1.24-1.819-2.663-2.018-4.269-.198-1.627.102-3.314.902-5.063.81-1.758 2.031-3.389 3.662-4.892 1.642-1.513 3.381-2.561 5.219-3.145 1.828-.595 3.594-.676 5.3-.244 1.716.423 3.21 1.322 4.483 2.698l-4.735 4.363c-.971-1.05-2.056-1.559-3.253-1.526-1.207.023-2.41.587-3.61 1.692-1.157 1.067-1.829 2.143-2.014 3.228a3.11 3.11 0 0 0 .815 2.81c.69.746 1.641 1.027 2.855.843 1.224-.194 2.771-.744 4.642-1.651 3.442-1.673 6.332-2.479 8.671-2.416s4.334.988 5.985 2.773c1.836 1.986 2.526 4.239 2.07 6.76-.465 2.511-1.971 4.939-4.518 7.286-1.768 1.629-3.674 2.792-5.719 3.49-2.054.687-3.985.822-5.793.406-1.797-.426-3.38-1.379-4.75-2.861l4.751-4.378c2.341 2.532 5.027 2.401 8.058-.391 1.126-1.038 1.796-2.073 2.01-3.107.204-1.044-.073-1.976-.831-2.795zm-33.308 14.06l3.143-1.237c-.072-1.569-.475-3.1-1.21-4.591s-1.609-2.636-2.62-3.434L35.98 63l-3.065 3.869 2.848 2.248c1.591 1.31 2.763 3.046 3.515 5.208zm-6.733 4.592l-4.721 8.323 22.674 12.814-3.175 5.599-22.674-12.815-4.657 8.212-4.542-2.567 12.553-22.134 4.542 2.567zm-8.324 48.685l3.776-11.764-4.807-1.538-3.776 11.765-7.098-2.27 4.418-13.766-4.971-1.59-6.385 19.894 29.782 9.524 6.398-19.934-4.93-1.577-4.431 13.807-7.977-2.551zm3.402 29.169l1.528-13.576 5.144.576-2.247 19.971L.97 160.26l.719-6.394 25.934 2.904zm278.502 32.052l1.265-13.604 25.984 2.408.596-6.407-31.139-2.885-1.86 20.01 5.154.478zm5.167 15.659l-3.552 11.834 4.835 1.446 3.552-11.834 7.14 2.136-4.157 13.847 5 1.496 6.007-20.011-29.957-8.961-6.02 20.051 4.959 1.484 4.169-13.888 8.024 2.4zm-7.461 48.855l4.566-8.409-22.906-12.395 3.071-5.656 22.907 12.394 4.504-8.295 4.589 2.483-12.142 22.361-4.589-2.483zm-6.478 4.415l-3.116 1.305c.106 1.567.543 3.089 1.311 4.564s1.666 2.601 2.694 3.376l2.656 2.004 2.98-3.935-2.897-2.185c-1.619-1.275-2.829-2.985-3.628-5.129zm-32.998 14.705c.845.875 1.8 1.246 2.866 1.114 1.076-.122 2.666-.7 4.771-1.733 2.116-1.024 3.886-1.735 5.311-2.133 3.889-1.082 6.961-.455 9.218 1.881 1.173 1.214 1.877 2.622 2.111 4.224.234 1.622-.03 3.315-.791 5.081-.772 1.776-1.957 3.432-3.555 4.971-1.608 1.548-3.324 2.634-5.149 3.258-1.814.634-3.578.754-5.293.359-1.725-.386-3.239-1.252-4.541-2.6l4.639-4.466c.994 1.029 2.089 1.514 3.286 1.455 1.206-.049 2.396-.639 3.572-1.77 1.134-1.092 1.781-2.182 1.943-3.271.172-1.079-.12-2.009-.876-2.791-.706-.731-1.663-.991-2.872-.78-1.22.22-2.755.804-4.605 1.751-3.405 1.748-6.277 2.616-8.616 2.604s-4.354-.893-6.044-2.642c-1.879-1.945-2.618-4.183-2.218-6.713.411-2.521 1.863-4.982 4.358-7.383 1.732-1.667 3.613-2.872 5.642-3.613 2.039-.732 3.966-.909 5.782-.532 1.806.386 3.41 1.305 4.812 2.756l-4.655 4.481c-2.395-2.48-5.078-2.292-8.047.566-1.103 1.062-1.75 2.112-1.941 3.15-.181 1.048.116 1.974.892 2.776zm-44.034 18.834l-5.847 2.703 13.145 28.336 5.847-2.704-5.327-11.482 11.403-5.271 5.326 11.482 5.848-2.703-13.145-28.335-5.848 2.703 5.634 12.144-11.402 5.271-5.634-12.144zm-28.504 15.057l11.081-2.198.851-6.729 6.72-1.332-5.323 32.893-5.856 1.161-17.577-28.352 6.72-1.332 3.384 5.889zm10.392 3.252l-7.668 1.521 6.137 10.7 1.531-12.221zm-45.789 23.294l7.99-23.195 6.132 23.739 7.147.276-9.632-31.623-6.717-.259-12.089 30.786 7.169.276zm-32.556-23.703l11.989 3.049 2.068-8.106-14.07-3.578 1.278-5.009 20.315 5.167-7.723 30.26-20.273-5.155 1.289-5.051 14.029 3.568 1.84-7.212-11.988-3.049 1.246-4.884zm-29.929-13.881l-10.511-6.515-2.742 4.409 10.511 6.515-4.261 6.851-11.825-7.33-2.754 4.428 17.3 10.722 16.5-26.527-5.475-3.393-6.743 10.84zm-48.473-14.904l14.246-14.855c2.367-2.468 5.015-3.678 7.943-3.631 2.918.038 5.717 1.337 8.396 3.897 2.638 2.521 4.064 5.22 4.279 8.097s-.831 5.549-3.137 8.016l-14.41 15.026-4.655-4.449L72.4 277.62c1.416-1.477 2.099-2.892 2.05-4.246-.07-1.354-.731-2.628-1.983-3.825-2.617-2.501-5.264-2.398-7.939.31l-14.395 15.01-4.671-4.464zm6.443-43.386l-3.5-5.402-26.263 16.952 3.488 5.385 17.316-11.178-10.492 21.713 3.5 5.402 26.263-16.952-3.5-5.403-17.28 11.154 10.468-21.671zm-17.958-14.321l1.991 4.748-19.71 9.026-2.555-6.093 20.274-7.681zm4.126 1.066c-.404-.963-.443-1.853-.118-2.671.319-.83.921-1.431 1.806-1.8.872-.365 1.716-.369 2.533-.013.811.343 1.419.996 1.822 1.959.398.95.438 1.84.119 2.671-.325.817-.923 1.408-1.795 1.773s-1.713.374-2.525.031c-.83-.35-1.444-1-1.842-1.95zm-22.587-25.331c1.043.786 2.299 1.06 3.768.821l.742-.121c1.512-.246 2.63-.907 3.354-1.981.722-1.088.962-2.373.719-3.854-.244-1.496-.88-2.632-1.906-3.406-1.043-.787-2.292-1.061-3.747-.824l-.912.148c-1.423.261-2.497.921-3.224 1.981-.729 1.046-.969 2.331-.719 3.855.24 1.467.881 2.594 1.923 3.381zM212.84 26.028l-11.928-3.275-2.223 8.065 14 3.844-1.373 4.984-20.213-5.55L199.4 3.987l20.171 5.539-1.385 5.025-13.958-3.833-1.977 7.176 11.928 3.276-1.339 4.859zm30.013 14.374l10.39 6.706 2.823-4.358-10.39-6.706 4.386-6.771 11.689 7.545 2.834-4.376-17.099-11.038-16.985 26.221 5.411 3.493 6.941-10.715zm48.104 15.559l-14.514 14.594c-2.412 2.425-5.081 3.587-8.008 3.486-2.917-.09-5.691-1.44-8.324-4.049-2.591-2.568-3.968-5.293-4.131-8.173s.932-5.533 3.283-7.958l14.68-14.762 4.574 4.532-14.545 14.625c-1.442 1.451-2.151 2.853-2.126 4.208.045 1.355.683 2.641 1.913 3.86 2.571 2.548 5.219 2.493 7.944-.165l14.665-14.747 4.589 4.547zm-6.932 43.454l3.4 5.466 26.57-16.469-3.388-5.448-17.519 10.858 10.89-21.517-3.4-5.466-26.57 16.469 3.399 5.466L294.89 77.94l-10.865 21.476zm17.816 14.8l-1.902-4.784 19.876-8.656 2.44 6.14-20.414 7.3zm-4.105-1.142c.385.97.408 1.861.068 2.672-.335.825-.948 1.414-1.84 1.767-.878.348-1.722.336-2.532-.035-.805-.358-1.4-1.022-1.786-1.993-.38-.957-.403-1.847-.068-2.672.34-.812.949-1.391 1.827-1.739s1.72-.343 2.525.015c.823.366 1.425 1.028 1.806 1.985zm22.181 25.932c-1.028-.806-2.278-1.103-3.752-.892l-.744.106c-1.517.218-2.648.856-3.392 1.916-.743 1.074-1.007 2.355-.793 3.841.215 1.5.829 2.647 1.84 3.441 1.027.806 2.27 1.105 3.73.896l.915-.131c1.427-.233 2.514-.873 3.261-1.919.748-1.032 1.013-2.312.793-3.84-.212-1.472-.831-2.611-1.858-3.418z" fill="#000"/></svg>