<svg xmlns="http://www.w3.org/2000/svg" width="3725.416" height="202.828" viewBox="0 0 985.683 53.665"  xmlns:v="https://vecta.io/nano"><path d="M918.657 53.026c-.821-1.315-4.709-4.146-5.693-4.146-.545 0-2-.581-3.235-1.29-2.217-1.274-5.501-2.275-6.538-1.991-.294.08-1.886.262-3.538.404-2.422.208-3.567 0-5.915-1.074-2.097-.959-3.86-1.336-6.304-1.348-3.222-.015-6.537-.936-6.537-1.814 0-.223-.304-.406-.677-.406s-.969-.469-1.327-1.042-1.493-1.441-2.522-1.93c-1.854-.88-2.921-.774-6.754.671-.991.374-2.869.617-7.964 1.032-3.299.269-4.299.143-6.177-.774-1.233-.602-3.394-1.511-4.803-2.02-1.909-.69-3.043-1.58-4.447-3.493-1.587-2.162-2.285-2.653-4.42-3.11-1.395-.298-2.898-.505-3.342-.458-1.905.199-11.012-1.452-13.428-2.434-.739-.3-4.072-.576-7.407-.613-4.067-.045-6.195-.28-6.462-.711-.219-.354-1.426-.808-2.683-1.009s-3.224-1.046-4.372-1.878c-1.856-1.345-2.164-1.42-2.78-.678-.381.459-1.186 1.061-1.788 1.338-2.292 1.054-3.712 2.02-4.168 2.836-.26.465-.683.845-.94.845s-1.473.967-2.703 2.149c-3.11 2.988-4.871 2.927-7.966-.277-2.276-2.356-2.399-2.408-5.739-2.408-1.877 0-4.045.24-4.818.534-.779.296-2.289.356-3.392.134-1.093-.22-4.526-.279-7.628-.131-5.724.273-9.502-.45-11.644-2.228-.45-.373-1.492-.627-2.316-.564-.946.072-1.618-.197-1.823-.73-.178-.464-.54-.71-.804-.547s-.749-.027-1.077-.423c-.453-.545-1.28-.612-3.418-.273-1.739.275-4.056.222-6.043-.138l-4.968-.854c-.96-.148-1.746-.501-1.746-.784s-.471-.365-1.047-.182c-.658.209-1.419-.04-2.048-.669-.551-.551-1.294-.903-1.652-.784s-1.528-.636-2.601-1.678c-1.088-1.057-3.399-2.429-5.224-3.103-1.801-.665-3.395-1.366-3.542-1.558-.6-.779-4.093-1.599-6.811-1.599-1.987 0-2.981-.236-3.18-.754-.159-.415-1.723-1.76-3.474-2.989s-3.185-2.469-3.185-2.755c0-.315-1.063-.38-2.686-.165-1.938.257-2.686.175-2.686-.293 0-.72-3.101-.281-4.002.567-.281.264-1.052.481-1.714.481s-1.332.207-1.488.46c-.301.487-6.746 1.074-14.167 1.29-2.726.079-4.604.377-4.845.767-.535.866-3.128 1.805-5.202 1.883-.937.035-3.027-.583-4.644-1.375-3.125-1.529-3.896-1.696-11.473-2.487-7.367-.769-9.504-1.047-11.495-1.493-1.005-.225-4.238-.217-7.185.019-4.915.393-5.56.331-7.788-.747-1.86-.9-3.241-1.146-5.897-1.05-3.115.113-3.646.303-5.211 1.868-.958.958-2.443 2.011-3.3 2.339-2.044.783-6.448 1.442-8.809 1.318-12.592-.661-12.477-.666-13.654.586-1.373 1.46-5.39 3.477-7.563 3.798-2.508.37-4.287 1.208-6.28 2.957-1.225 1.076-2.076 1.46-2.564 1.159-.467-.289-1.469.015-2.781.843-2.331 1.472-3.299 1.601-4.321.579-.393-.393-1.402-.888-2.242-1.098-1.418-.356-1.501-.521-1.167-2.301l.36-1.918-1.561 1.111c-.858.611-1.871 1.485-2.25 1.942s-.997.831-1.372.831-.83.384-1.01.853c-.252.657-.789.778-2.34.526-4.883-.793-7.162-.42-11.54 1.889-.513.271-1.216.492-1.563.492s-2.836 1.088-5.533 2.417c-4.075 2.009-5.534 2.452-8.643 2.622-6.554.36-11.74 1.327-12.478 2.328-.974 1.319-5.667 1.073-7.225-.379-.63-.587-1.586-1.207-2.125-1.378s-.98-.484-.98-.696c0-.587-3.026-2.246-3.405-1.867-.542.542-3.578.63-3.578.104 0-.266-.867-1.326-1.926-2.355-1.581-1.535-2.332-1.87-4.19-1.87-1.245 0-2.493.201-2.774.447-1.086.951-4.977 1.713-6.257 1.226-.706-.268-3.363-.483-5.905-.477-3.189.008-5.158-.256-6.353-.852-.952-.475-1.893-.764-2.09-.642-.358.221-10.977-.594-13.358-1.026-.692-.125-3.421.028-6.065.34-3.57.422-4.999.409-5.552-.05-.416-.345-1.422-.476-2.277-.295-4.733.999-11.111.304-12.683-1.383-1.257-1.35-1.664-1.322-4.015.276-1.723 1.171-2.327 1.287-5.209 1.001-1.793-.178-3.569-.568-3.948-.867s-2.142-.5-3.918-.446-3.519-.082-3.873-.301-1.66-.483-2.903-.587c-2.216-.186-8.351-2.788-8.983-3.809-.484-.783-4.629-.134-6.191.969-1.025.724-2.819 1.051-7.047 1.285-3.482.193-6.281.632-7.251 1.138-.869.453-1.905.825-2.303.827s-1.485.4-2.417.886l-2.578 1.313c-.486.237-2.104.421-3.594.409s-2.966.137-3.279.331-.864.169-1.225-.054-2.113-.449-3.894-.501c-2.566-.075-3.719.178-5.556 1.223-1.275.725-2.645 1.193-3.044 1.04s-.843.03-.988.406c-.161.42-1.372.717-3.133.769-1.579.047-3.354.129-3.945.183-2.48.226-4.028-.119-4.028-.899 0-.893-.228-.915-9.4-.916-3.432 0-7.373.344-9.404.823-1.922.453-3.856.784-4.297.735s-1.938.102-3.328.336c-3.009.505-5.263-.603-5.263-2.589 0-1.944-2.271-3.085-5.501-2.765-2.359.234-2.991.075-4.657-1.168-1.06-.791-2.01-1.625-2.111-1.853s-.826-.747-1.612-1.153c-1.357-.702-3.217-.999-10.521-1.682-1.751-.164-3.408-.436-3.681-.604-1.081-.668-5.45-.646-8.403.043-3.071.716-5.552.436-8.768-.99-.517-.229-1.275-.288-1.685-.131s-1.484-.437-2.387-1.32c-1.213-1.185-2.318-1.68-4.223-1.89-1.419-.156-2.701-.443-2.85-.637-.983-1.288-2.473-1.495-4.116-.573-3.51 1.972-12.649 2.53-13.879.847-.527-.721-.781-.768-1.23-.226-.311.375-1.733 1.012-3.159 1.416s-3.197 1.112-3.936 1.574c-1.686 1.054-13.609 1.058-15.308.005-.819-.508-8.288 1.055-9.147 1.914-.556.556-1.81.702-4.739.55-3.359-.174-4.195-.038-5.341.862-.747.588-1.718.93-2.157.762s-.959-.048-1.154.267-1.069.574-1.942.574-2.067.242-2.654.537l-2.134 1.074c-.587.295-1.781.537-2.654.537s-1.736.242-1.919.537-.982.557-1.777.581c-2.225.067-6.817 2.72-6.817 3.939 0 .565-.281 1.122-.624 1.237-.609.204-2.868-1.826-2.868-2.578 0-.823-1.676-.949-3.348-.25-2.133.891-3.967.264-6.826-2.333-1.708-1.552-2.053-1.654-4.566-1.346-4.54.556-9.843.45-10.64-.211-.56-.465-.906-.468-1.36-.014s-.827.429-1.463-.1c-.522-.433-2.396-.729-4.817-.761-2.18-.029-4.125-.215-4.324-.413s-.7-.231-1.114-.072-1.176.106-1.693-.118-1.278-.475-1.691-.559-1.888-.524-3.278-.978c-4.435-1.451-6.594-1.514-7.581-.223-.767 1.004-1.067 1.064-2.613.525-1.431-.499-2.016-.45-3.235.27-1.401.828-1.579.817-3.026-.181-1.664-1.147-3.972-1.282-6.104-.357-1.898.824-5.058 1.794-5.842 1.794-1.387 0-5.438 2.211-5.438 2.968 0 .436-.242.792-.537.792-1.04 0-1.349.096-1.974.615-.347.288-1.435.386-2.417.218-3.354-.574-7.155-.894-12.798-1.078-3.102-.101-5.882-.236-6.177-.301-1.623-.356-3.102.184-4.355 1.59-2.261 2.538-9.995 3.842-13.059 2.202-.985-.527-1.452-.386-3.151.95-3.471 2.731-8.232 4.715-12.65 5.271-.838.105-3.035.913-4.882 1.794s-4.182 1.669-5.19 1.751l-1.832.148-.33-6.446C.294 21.432.113 14.362.073 9.266L0 0h985.683l-.157 16.07c-.086 8.838-.359 16.271-.606 16.517s-1.597.412-3.001.369c-2.442-.075-2.581.001-3.214 1.751-.381 1.054-1.31 2.164-2.192 2.621-1.848.956-5.909 1.356-8.295.818-1.359-.306-2.232-.103-3.977.928-1.23.726-2.237 1.648-2.237 2.047 0 1.002-2.912 2.23-6.446 2.719l-3.223.485c-.148.042-.994.255-1.88.474-2.639.652-5.848 2.084-6.794 3.032-.487.488-2.353 1.176-4.146 1.529s-3.415.892-3.604 1.198-.927.411-1.639.232-1.732-.091-2.266.194-1.556.617-2.272.736-1.664.347-2.107.507c-4.293 1.544-8.283 1.9-8.97.799zM133.611 19.518c.369-.149.974-.149 1.343 0s.067.271-.671.271-1.041-.122-.671-.271z"/></svg>