<svg xmlns="http://www.w3.org/2000/svg" width="31" height="33" fill="none" xmlns:v="https://vecta.io/nano"><path d="M11.263 2.76c1.96-3.127 6.514-3.127 8.474 0l.516.824a5 5 0 0 0 4.056 2.342l.97.035c3.687.134 5.965 4.078 4.237 7.338l-.455.86a5 5 0 0 0 0 4.683l.455.86c1.728 3.26-.55 7.205-4.237 7.338l-.97.035a5 5 0 0 0-4.056 2.342l-.516.824c-1.96 3.126-6.514 3.126-8.474 0l-.516-.824a5 5 0 0 0-4.056-2.342l-.97-.035C2.033 26.905-.245 22.96 1.483 19.7l.455-.86a5 5 0 0 0 0-4.683l-.455-.86c-1.728-3.26.55-7.205 4.237-7.338l.97-.035a5 5 0 0 0 4.056-2.342l.516-.824z" fill="#333"/></svg>