<svg xmlns="http://www.w3.org/2000/svg" height="512" width="512"  xmlns:v="https://vecta.io/nano"><path d="M318.006 211.841c-16.814 0-33.145 3.261-48.537 9.69-5.096 2.129-7.501 7.986-5.373 13.082s7.986 7.499 13.082 5.373c12.938-5.405 26.674-8.145 40.828-8.145 58.449 0 106 47.552 106 106s-47.551 106-106 106-106-47.552-106-106c0-14.132 2.732-27.85 8.121-40.77 2.126-5.098-.283-10.953-5.38-13.079s-10.953.283-13.079 5.38c-6.411 15.373-9.662 31.68-9.662 48.469 0 69.477 56.523 126 126 126s126-56.523 126-126-56.523-126-126-126zm0 208c45.215 0 82-36.785 82-82s-36.785-82-82-82-82 36.785-82 82 36.786 82 82 82zm0-144c34.187 0 62 27.814 62 62s-27.813 62-62 62-62-27.813-62-62 27.813-62 62-62zm143.278-112h-30.42l-34.915-59.087a10 10 0 0 0-8.609-4.913H248.673a10 10 0 0 0-8.609 4.913l-34.915 59.087H148v-12c0-19.851-16.149-36-36-36s-36 16.149-36 36v12H50.716C22.751 163.841 0 186.592 0 214.558v246.566c0 27.966 22.751 50.717 50.716 50.717h410.567c27.965 0 50.716-22.751 50.716-50.717V214.558c.001-27.966-22.751-50.717-50.715-50.717zm-206.905-44h127.254l26 44H228.379zM96 151.841c0-8.822 7.178-16 16-16s16 7.178 16 16v12H96zm396 309.283c0 16.938-13.779 30.717-30.716 30.717H50.716c-16.937 0-30.716-13.78-30.716-30.717V214.558c0-16.938 13.779-30.717 30.716-30.717h410.567c16.937 0 30.716 13.779 30.716 30.717v246.566zM318.006 318.341c10.753 0 19.5 8.748 19.5 19.5a10 10 0 1 0 20 0c0-21.78-17.72-39.5-39.5-39.5-5.523 0-10 4.478-10 10s4.477 10 10 10zm0-244.809c5.523 0 10-4.478 10-10V10.159c0-5.522-4.477-10-10-10a10 10 0 0 0-10 10v53.373a10 10 0 0 0 10 10zm47.585 0a9.97 9.97 0 0 0 7.071-2.929l36.691-36.691c3.905-3.905 3.905-10.237-.001-14.143s-10.237-3.904-14.142 0l-36.69 36.692c-3.905 3.905-3.905 10.237 0 14.143a9.97 9.97 0 0 0 7.071 2.928zM263.35 70.604a9.97 9.97 0 0 0 14.142 0c3.905-3.905 3.906-10.237.001-14.143L240.802 19.77c-3.905-3.903-10.237-3.904-14.142 0s-3.906 10.237-.001 14.143zM138 245.841H86c-5.523 0-10 4.478-10 10a10 10 0 0 0 10 10h52a10 10 0 1 0 0-20zm97.96 19.999c2.63 0 5.21-1.07 7.07-2.93a10.06 10.06 0 0 0 2.93-7.07c0-2.63-1.07-5.21-2.93-7.07a10.08 10.08 0 0 0-7.07-2.93c-2.63 0-5.21 1.07-7.07 2.93-1.87 1.86-2.93 4.441-2.93 7.07s1.06 5.21 2.93 7.07a10.06 10.06 0 0 0 7.07 2.93z"/></svg>