<svg xmlns="http://www.w3.org/2000/svg" xmlns:xlink="http://www.w3.org/1999/xlink" height="512" width="512" xmlns:v="https://vecta.io/nano"><path d="M410.374 512H27.5C12.336 512 0 499.663 0 484.5V339.309a7.5 7.5 0 1 1 15 0V484.5c0 6.893 5.607 12.5 12.5 12.5h382.874a7.5 7.5 0 1 1 0 15zM7.5 312.286a7.5 7.5 0 0 1-7.5-7.5V27.5C0 12.337 12.336 0 27.5 0h72.389a7.5 7.5 0 1 1 0 15H27.5C20.607 15 15 20.607 15 27.5v277.286a7.5 7.5 0 0 1-7.5 7.5zM484.5 512h-39.604a7.5 7.5 0 1 1 0-15H484.5c6.893 0 12.5-5.607 12.5-12.5v-457c0-6.893-5.607-12.5-12.5-12.5H134.412a7.5 7.5 0 1 1 0-15H484.5C499.664 0 512 12.336 512 27.5v457c0 15.164-12.336 27.5-27.5 27.5zM175.282 199.343H112.5c-9.649 0-17.5-7.851-17.5-17.5v-56.934c0-9.649 7.851-17.5 17.5-17.5h62.782c9.649 0 17.5 7.851 17.5 17.5v56.934c0 9.649-7.851 17.5-17.5 17.5zM112.5 122.409c-1.378 0-2.5 1.121-2.5 2.5v56.934c0 1.379 1.122 2.5 2.5 2.5h62.782c1.378 0 2.5-1.121 2.5-2.5v-56.934c0-1.379-1.122-2.5-2.5-2.5z"/><use xlink:href="#B"/><use xlink:href="#C"/><path d="M175.282 301.967H112.5c-9.649 0-17.5-7.851-17.5-17.5v-56.934c0-9.649 7.851-17.5 17.5-17.5h62.782c9.649 0 17.5 7.851 17.5 17.5v56.934c0 9.649-7.851 17.5-17.5 17.5zM112.5 225.033c-1.378 0-2.5 1.121-2.5 2.5v56.934c0 1.379 1.122 2.5 2.5 2.5h62.782c1.378 0 2.5-1.121 2.5-2.5v-56.934c0-1.379-1.122-2.5-2.5-2.5z"/><use xlink:href="#B" y="102.624"/><use xlink:href="#C" y="102.624"/><path d="M175.282 404.591H112.5c-9.649 0-17.5-7.851-17.5-17.5v-56.934c0-9.649 7.851-17.5 17.5-17.5h62.782c9.649 0 17.5 7.851 17.5 17.5v56.934c0 9.649-7.851 17.5-17.5 17.5zM112.5 327.657c-1.378 0-2.5 1.121-2.5 2.5v56.934c0 1.379 1.122 2.5 2.5 2.5h62.782c1.378 0 2.5-1.121 2.5-2.5v-56.934c0-1.379-1.122-2.5-2.5-2.5z"/><use xlink:href="#B" y="205.248"/><use xlink:href="#C" y="205.248"/><defs ><path id="B" d="m287.391 199.343h-62.782c-9.649 0-17.5-7.851-17.5-17.5v-56.934c0-9.649 7.851-17.5 17.5-17.5h62.782c9.649 0 17.5 7.851 17.5 17.5v56.934c0 9.649-7.85 17.5-17.5 17.5zm-62.782-76.934c-1.378 0-2.5 1.121-2.5 2.5v56.934c0 1.379 1.122 2.5 2.5 2.5h62.782c1.378 0 2.5-1.121 2.5-2.5v-56.934c0-1.379-1.122-2.5-2.5-2.5z"/><path id="C" d="M399.5 199.343h-62.782c-9.649 0-17.5-7.851-17.5-17.5v-56.934c0-9.649 7.851-17.5 17.5-17.5H399.5c9.649 0 17.5 7.851 17.5 17.5v56.934c0 9.649-7.851 17.5-17.5 17.5zm-62.782-76.934c-1.378 0-2.5 1.121-2.5 2.5v56.934c0 1.379 1.122 2.5 2.5 2.5H399.5c1.378 0 2.5-1.121 2.5-2.5v-56.934c0-1.379-1.122-2.5-2.5-2.5z"/></defs></svg>