<svg xmlns="http://www.w3.org/2000/svg" height="638.667" viewBox="-16 0 479 479.991" width="638.667"  xmlns:v="https://vecta.io/nano"><path d="M224.531 47.992a8 8 0 0 0-8 8V82.23l-42.039 14.008-79.562 15.914c-.965.191-1.891.559-2.727 1.086l-88 56c-3.73 2.371-4.828 7.32-2.457 11.051l56 88c1.273 1.988 3.355 3.313 5.695 3.621a7.99 7.99 0 0 0 6.441-2.023l18.648-16.902v219.008a8 8 0 0 0 8 8h256a8 8 0 0 0 8-8V254.695l18.938 15.488a7.83 7.83 0 0 0 6.16 1.727 7.93 7.93 0 0 0 5.453-3.336l56-80c2.504-3.57 1.68-8.488-1.848-11.055l-88-64a7.93 7.93 0 0 0-3.133-1.367L274.57 96.238 232.531 82.23V62.855c16.063-4.187 26.242-19.973 23.426-36.332S238.27-1.309 221.734.117a31.95 31.95 0 0 0-29.203 31.875 8 8 0 1 0 16 0c0-8.836 7.164-16 16-16s16 7.164 16 16-7.164 16-16 16zm0 48.43l39.441 13.168C261.273 129.305 244.43 144 224.531 144s-36.738-14.695-39.441-34.41zm204.945 89.418l-46.547 66.504-25.324-20.727a8 8 0 0 0-8.504-1.043c-2.793 1.324-4.574 4.145-4.57 7.242v226.176h-240V234.895a8 8 0 0 0-13.383-5.918L66.18 251.68l-46.609-73.23 80-50.906 69.762-13.953c4.656 26.836 27.941 46.43 55.176 46.43s50.52-19.594 55.176-46.43l69.535 13.914zm0 0"/></svg>