<svg xmlns="http://www.w3.org/2000/svg" height="512" viewBox="0 0 24 24" width="512"  xmlns:v="https://vecta.io/nano"><path d="M22.5 21h-21A1.5 1.5 0 0 1 0 19.5v-14A1.5 1.5 0 0 1 1.5 4h21A1.5 1.5 0 0 1 24 5.5v14a1.5 1.5 0 0 1-1.5 1.5zM1.5 5a.5.5 0 0 0-.5.5v14a.5.5 0 0 0 .5.5h21a.5.5 0 0 0 .5-.5v-14a.5.5 0 0 0-.5-.5z"/><path d="M15.5 24h-7a.5.5 0 0 1-.354-.854c1.316-1.316 1.333-2.59 1.333-2.644.001-.275.225-.502.501-.502H14a.5.5 0 0 1 .5.497c.001.063.04 1.336 1.354 2.649A.5.5 0 0 1 15.5 24zm-5.929-1h4.857c-.56-.801-.782-1.537-.87-2h-3.13c-.085.465-.301 1.2-.857 2zm4.929-2.5h.01zm9-2.5H.5a.5.5 0 1 1 0-1h23a.5.5 0 1 1 0 1zm-16-3a.5.5 0 0 1-.354-.853l3.5-3.5c.152-.153.385-.191.577-.094l1.678.839 3.245-3.245a.5.5 0 0 1 .707.707l-3.5 3.5a.5.5 0 0 1-.577.094l-1.678-.839-3.245 3.245A.5.5 0 0 1 7.5 15z"/><path d="M16.5 12a.5.5 0 0 1-.5-.5V9h-2.5a.5.5 0 1 1 0-1h3a.5.5 0 0 1 .5.5v3a.5.5 0 0 1-.5.5z"/></svg>