<svg xmlns="http://www.w3.org/2000/svg" height="512" width="512"  xmlns:v="https://vecta.io/nano"><circle cx="336" cy="56" r="8"/><circle cx="368" cy="56" r="8"/><path d="M248 48h64v16h-64zm0 400h64v16h-64zm240 0h-24V214.627a62.623 62.623 0 0 0-56-62.274V40a24.028 24.028 0 0 0-24-24H176a24.028 24.028 0 0 0-24 24v72H24a8 8 0 0 0-8 8v272a8 8 0 0 0 8 8h128v72a24.028 24.028 0 0 0 24 24h208a24.028 24.028 0 0 0 24-24v-8h72v32h16v-40a8 8 0 0 0-8-8zM176 32h208a8.009 8.009 0 0 1 8 8v41.376A23.882 23.882 0 0 0 384 80H176a23.882 23.882 0 0 0-8 1.376V40a8.009 8.009 0 0 1 8-8zm136 368v-16H32V128h280v-16H168v-8a8.009 8.009 0 0 1 8-8h208a8.009 8.009 0 0 1 8 8v101.177a33.458 33.458 0 0 0-43.657 50.48L388.687 296l-5.089 5.088a72.084 72.084 0 0 0 0 101.824l7.887 7.886A8.006 8.006 0 0 1 384 416H176a8.009 8.009 0 0 1-8-8v-8zm80 72a8.009 8.009 0 0 1-8 8H176a8.009 8.009 0 0 1-8-8v-41.376a23.882 23.882 0 0 0 8 1.376h208a23.882 23.882 0 0 0 8-1.376zm16-24v-40a8.002 8.002 0 0 0-2.343-5.657l-10.745-10.745a56.062 56.062 0 0 1 0-79.195l10.745-10.745a8.001 8.001 0 0 0 0-11.314l-46-46a17.456 17.456 0 1 1 24.686-24.686l26 26a8.001 8.001 0 0 0 11.314-11.314L408 220.687v-52.223a46.65 46.65 0 0 1 40 46.163V448zM288 152h56v16h-56zm72 0h16v16h-16zm-72 32h48v16h-48zm0 32h32v16h-32zm0 32h40v16h-40z"/><path d="M288 280h64v16h-64zm0 32h48v16h-48zm0 32h32v16h-32zm48 0h16v16h-16zM55.919 208H104a8 8 0 0 0 8-8v-48.081a8 8 0 0 0-8-8H55.919a8 8 0 0 0-8 8V200a8 8 0 0 0 8 8zm8-48.081H96V192H63.919zm72 48.081H184a8 8 0 0 0 8-8v-48.081a8 8 0 0 0-8-8h-48.081a8 8 0 0 0-8 8V200a8 8 0 0 0 8 8zm8-48.081H176V192h-32.081zm120.162-16H216a8 8 0 0 0-8 8V200a8 8 0 0 0 8 8h48.081a8 8 0 0 0 8-8v-48.081a8 8 0 0 0-8-8zm-8 48.081H224v-32.081h32.081zm8 31.919H216a8 8 0 0 0-8 8V280a8 8 0 0 0 8 8h48.081a8 8 0 0 0 8-8v-48.081a8 8 0 0 0-8-8zm-8 48.081H224v-32.081h32.081zm-120.162 16H184a8 8 0 0 0 8-8v-48.081a8 8 0 0 0-8-8h-48.081a8 8 0 0 0-8 8V280a8 8 0 0 0 8 8zm8-48.081H176V272h-32.081zm-39.838-16H56a8 8 0 0 0-8 8V280a8 8 0 0 0 8 8h48.081a8 8 0 0 0 8-8v-48.081a8 8 0 0 0-8-8zm-8 48.081H64v-32.081h32.081zm8 31.919H56a8 8 0 0 0-8 8V360a8 8 0 0 0 8 8h48.081a8 8 0 0 0 8-8v-48.081a8 8 0 0 0-8-8zm-8 48.081H64v-32.081h32.081zm88-48.081H136a8 8 0 0 0-8 8V360a8 8 0 0 0 8 8h48.081a8 8 0 0 0 8-8v-48.081a8 8 0 0 0-8-8zm-8 48.081H144v-32.081h32.081zM264 303.919h-48.081a8 8 0 0 0-8 8V360a8 8 0 0 0 8 8H264a8 8 0 0 0 8-8v-48.081a8 8 0 0 0-8-8zM256 352h-32.081v-32.081H256z"/></svg>