<svg xmlns="http://www.w3.org/2000/svg" height="512" width="512"  xmlns:v="https://vecta.io/nano"><path d="M120.464 2.743l8.257 23.217c.354.994 1.053 1.782 1.937 2.18l20.628 9.294c2.914 1.313 2.914 5.956 0 7.269l-20.628 9.294c-.883.398-1.583 1.186-1.937 2.18l-8.257 23.217c-1.166 3.28-5.292 3.28-6.458 0l-8.257-23.217c-.354-.994-1.053-1.782-1.937-2.18l-20.628-9.294c-2.914-1.313-2.914-5.956 0-7.269l20.628-9.294c.883-.398 1.583-1.186 1.937-2.18l8.257-23.217c1.167-3.28 5.292-3.28 6.458 0zm310.518 333.889l6.125 17.222c.262.737.781 1.322 1.437 1.617l15.301 6.894c2.162.974 2.162 4.418 0 5.392l-15.301 6.894c-.655.295-1.174.88-1.437 1.617l-6.125 17.222c-.865 2.433-3.925 2.433-4.791 0l-6.125-17.222c-.262-.737-.781-1.322-1.436-1.617l-15.301-6.894c-2.162-.974-2.162-4.418 0-5.392l15.301-6.894c.655-.295 1.174-.88 1.436-1.617l6.125-17.222c.866-2.434 3.926-2.434 4.791 0zM47.943 82.245l6.125 17.222c.262.737.781 1.322 1.436 1.617l15.301 6.894c2.162.974 2.162 4.418 0 5.392l-15.301 6.894c-.655.295-1.174.88-1.436 1.617l-6.125 17.222c-.865 2.433-3.925 2.433-4.791 0l-6.125-17.222c-.262-.737-.781-1.322-1.437-1.617l-15.3-6.894c-2.162-.974-2.162-4.418 0-5.392l15.301-6.894c.655-.295 1.174-.88 1.437-1.617l6.125-17.222c.865-2.433 3.925-2.433 4.79 0zm-.157-54.152a7.78 7.78 0 0 1-7.777 7.778 7.78 7.78 0 0 1-7.778-7.778 7.78 7.78 0 0 1 7.778-7.778 7.78 7.78 0 0 1 7.777 7.778z"/><circle cx="478.962" cy="306.931" r="14.356"/><path d="M493.525 254.925a10.05 10.05 0 0 0-12.406-6.94l-168.278 47.537L177.42 160.1l41.825-147.301c1.516-5.34-1.584-10.899-6.924-12.416s-10.898 1.584-12.415 6.924l-39.148 137.875c-3.632-1.874-7.682-2.872-11.887-2.872a25.8 25.8 0 0 0-18.368 7.608c-8.852 8.852-9.966 22.555-3.344 32.631l-60.48 60.48c-45.633 45.634-45.633 119.886 0 165.521 12.688 12.688 27.593 21.835 43.476 27.466v24.033H44.069c-14.323 0-25.976 11.653-25.976 25.976s11.653 25.976 25.976 25.976h216.964c14.323 0 25.976-11.653 25.976-25.976s-11.653-25.976-25.976-25.976h-66.085v-26.444c13.547-5.695 26.234-14.039 37.251-25.055l60.48-60.48c4.311 2.834 9.287 4.251 14.262 4.251 6.652 0 13.304-2.533 18.368-7.596 4.906-4.906 7.608-11.429 7.608-18.368 0-5.199-1.517-10.164-4.341-14.391l158.009-44.636a10.05 10.05 0 0 0 6.94-12.405zm-226.62 231.099a5.88 5.88 0 0 1-5.872 5.872H44.069a5.88 5.88 0 0 1-5.872-5.872 5.88 5.88 0 0 1 5.872-5.872h216.964a5.88 5.88 0 0 1 5.872 5.872zm-136.648-25.975V352.164c0-12.293 10.001-22.294 22.294-22.294s22.294 10.001 22.294 22.294v107.885zm87.726-65.715c-6.901 6.901-14.66 12.631-23.035 17.095v-59.265c0-23.378-19.019-42.397-42.397-42.397s-42.397 19.019-42.397 42.397v62.295c-10.771-4.774-20.679-11.543-29.26-20.125-18.309-18.309-28.392-42.651-28.392-68.545s10.083-50.235 28.392-68.545l60.099-60.099 137.09 137.089zm93.11-63.824c-2.289 2.289-6.015 2.289-8.305 0L144.717 172.44a5.88 5.88 0 0 1 0-8.305c1.109-1.109 2.584-1.72 4.152-1.72a5.83 5.83 0 0 1 4.152 1.72l158.071 158.071c1.109 1.109 1.72 2.584 1.72 4.152s-.61 3.043-1.719 4.152zm-191.925-64.408a10.02 10.02 0 0 1-7.11-2.946c-3.924-3.927-3.922-10.291.004-14.216l2.726-2.726a10.06 10.06 0 0 1 14.216 0c3.926 3.926 3.926 10.29 0 14.216l-2.73 2.73c-1.963 1.961-4.535 2.942-7.106 2.942zm-26.742 26.741c-2.573 0-5.145-.982-7.108-2.944-3.925-3.925-3.925-10.29 0-14.216l7.646-7.646a10.06 10.06 0 0 1 14.216 0c3.925 3.926 3.925 10.29 0 14.216l-7.646 7.646a10.02 10.02 0 0 1-7.108 2.944z"/></svg>