<svg xmlns="http://www.w3.org/2000/svg" viewBox="0 0 480 480"  xmlns:v="https://vecta.io/nano"><path d="M416 32v16h64V32h-24V8a8 8 0 0 0-8-8h-32c-2.125 0-4.156.844-5.656 2.344L348.688 64H211.313l48-48H280v16h-24v16h64V32h-24V8a8 8 0 0 0-8-8h-32c-2.125 0-4.156.844-5.656 2.344L188.688 64H43.313l48-48H112v16H88v16h64V32h-24V8a8 8 0 0 0-8-8H88c-2.125 0-4.156.844-5.656 2.344L20.688 64H8a8 8 0 0 0-8 8v304a8 8 0 0 0 8 8h40v88a8 8 0 0 0 8 8h40a8 8 0 0 0 8-8v-88h272v88a8 8 0 0 0 8 8h40a8 8 0 0 0 8-8v-88h40a8 8 0 0 0 8-8V72a8 8 0 0 0-8-8H371.313l48-48H440v16h-24zM88 464H64v-80h24v80zm328 0h-24v-80h24v80zm48-384v288H16V80h448zM319.594 216c-3.766-37.738-33.859-67.83-71.594-71.595V112h-16v32.405c-37.735 3.765-67.829 33.857-71.594 71.595H128v16h32.406c3.766 37.738 33.859 67.83 71.594 71.595V336h16v-32.405c37.735-3.765 67.829-33.857 71.594-71.595H352v-16h-32.406zM232 287.504c-28.906-3.621-51.883-26.598-55.5-55.504H232v55.504zM232 216h-55.5c3.617-28.906 26.594-51.883 55.5-55.504V216zm16 71.504V232h55.5c-3.617 28.906-26.594 51.883-55.5 55.504zM248 216v-55.504c28.906 3.621 51.883 26.598 55.5 55.504H248zM32 96h16v16H32z"/><path d="M48 112h16v16H48z"/><path d="M32 128h16v16H32zm32-32h16v16H64zm0 32h16v16H64zm32-32h16v16H96z"/><path d="M80 112h16v16H80zm-32 32h16v16H48z"/><path d="M32 160h16v16H32zm400 176h16v16h-16zm0-32h16v16h-16z"/><path d="M416 320h16v16h-16z"/><path d="M400 336h16v16h-16zm-32 0h16v16h-16z"/><path d="M384 320h16v16h-16z"/><path d="M400 304h16v16h-16z"/><path d="M416 288h16v16h-16z"/><path d="M432 272h16v16h-16z"/></svg>