<svg xmlns="http://www.w3.org/2000/svg" viewBox="0 0 512 512"  xmlns:v="https://vecta.io/nano"><path d="M512 179.462c0-37.968-14.923-73.527-42.021-100.128-2.955-2.901-7.703-2.858-10.607.098s-2.857 7.704.099 10.606C483.672 113.796 497 145.553 497 179.462c0 54.47-35.334 102.603-86.663 119.208l-69.678-151.643c-3.44-7.485-10.693-12.135-18.931-12.135s-15.491 4.65-18.931 12.135l-41.854 91.088c-9.552-17.986-14.554-38.014-14.554-58.654 0-69.094 56.212-125.305 125.305-125.305 20.949 0 41.677 5.269 59.942 15.239a7.5 7.5 0 1 0 7.186-13.166c-20.462-11.169-43.675-17.073-67.128-17.073-57.192 0-106.493 34.401-128.319 83.593l-97.823-56.477a7.5 7.5 0 0 0-7.5 0L3.75 143.811c-.267.154-.517.326-.757.507-.063.048-.123.098-.185.148a7.28 7.28 0 0 0-.526.463l-.156.153c-.422.434-.786.91-1.086 1.422-.033.056-.062.114-.093.171-.113.204-.216.413-.309.626l-.095.222a7.66 7.66 0 0 0-.27.79c-.004.015-.01.029-.014.044a7.67 7.67 0 0 0-.174.866c-.011.077-.019.155-.028.233a7.27 7.27 0 0 0-.048.723c-.001.041-.009.083-.009.127v155.078a7.5 7.5 0 0 0 3.75 6.495l134.302 77.539c.29.167.589.314.893.44.924.382 1.892.567 2.85.567.327 0 .652-.022.974-.064.063-.008.125-.027.188-.037a7.56 7.56 0 0 0 .76-.15c.116-.031.228-.078.343-.114.196-.062.393-.119.583-.197.091-.037.177-.088.267-.129.21-.096.421-.191.623-.306.007-.004.014-.006.02-.01l62.434-36.047-29.45 64.092a7.5 7.5 0 0 0-.685 3.131c0 15.681 15.597 29.087 45.105 38.77 26.493 8.693 61.57 13.481 98.771 13.481s72.278-4.788 98.772-13.481c29.508-9.683 45.105-23.089 45.105-38.77 0-1.081-.233-2.149-.685-3.131l-11.083-24.122a7.5 7.5 0 1 0-13.631 6.262l10.274 22.362c-2.751 15.426-51.225 35.88-128.753 35.88s-126.002-20.453-128.753-35.88l123.453-268.676c1.408-3.066 4.176-3.398 5.3-3.398s3.892.331 5.3 3.398l98.562 214.506a7.5 7.5 0 0 0 13.631-6.262l-22.574-49.131C473.213 293.305 512 239.853 512 179.462zm-370.198 39.722l-72.796-42.029a7.5 7.5 0 1 0-7.5 12.99l72.796 42.029v137.758L15 301.053V163.296l18.403 10.626a7.5 7.5 0 1 0 7.5-12.99L22.5 150.306l119.302-68.879 96.177 55.528c-3.076 9.655-5.13 19.761-6.042 30.19l-90.135 52.039zm77.016 110.613l-69.516 40.136V232.174l82.186-47.45c.922 24.975 8.413 48.997 21.815 70.022l-34.485 75.051z"/></svg>