<svg xmlns="http://www.w3.org/2000/svg" height="512" viewBox="0 0 64 64" width="512"  xmlns:v="https://vecta.io/nano"><path d="M58.5 16.499h-8.996V6.5a.99.99 0 0 0-.077-.382.99.99 0 0 0-.217-.326L43.208-.209a.99.99 0 0 0-.326-.217.99.99 0 0 0-.382-.077H20.512a.99.99 0 0 0-.382.077.99.99 0 0 0-.326.217l-6.002 6.001a.99.99 0 0 0-.217.326.99.99 0 0 0-.077.382v9.999H5.5c-1.654 0-3 1.346-3 3v36.006a9.01 9.01 0 0 0 8.998 8.998h41c.016 0 .029-.009.045-.009a9.01 9.01 0 0 0 8.954-8.972l.003-36.023c0-1.654-1.346-3-3-3zm-15 0V2.911l4.004 4.003v9.585zm-21.988 0V7.498H41.5v9.001zM41.5 5.498H21.512V1.497H41.5zM15.508 6.914l4.004-4.003v13.588h-4.004zm36.99 55.582c-.012 0-.022.007-.034.007H11.498A7.01 7.01 0 0 1 4.5 55.505V19.499a1 1 0 0 1 1-1h53a1 1 0 0 1 1 1v35.987c-.002 3.869-3.143 7.01-7.002 7.01zm-32.5-26.997c1.93 0 3.5-1.57 3.5-3.5s-1.57-3.5-3.5-3.5-3.5 1.57-3.5 3.5 1.57 3.5 3.5 3.5zm0-5a1.5 1.5 0 1 1 0 3 1.5 1.5 0 1 1 0-3zm29.439 20.292c.021-.067.034-.132.041-.201.003-.032.019-.06.019-.093s-.015-.058-.018-.088a.97.97 0 0 0-.04-.197 1.02 1.02 0 0 0-.076-.187c-.015-.027-.017-.057-.034-.083l-12-18a.99.99 0 0 0-.644-.426c-.063-.013-.126-.001-.19-.001s-.126-.012-.189.001a.99.99 0 0 0-.643.426l-6.17 9.255-2.17-3.255c-.154-.232-.39-.377-.644-.426-.063-.013-.126-.001-.19-.001s-.127-.012-.19.001a.99.99 0 0 0-.642.426l-8 12c-.018.026-.02.056-.034.083a.93.93 0 0 0-.076.187c-.021.065-.034.13-.04.197-.003.03-.018.057-.018.088s.016.061.019.093a.98.98 0 0 0 .041.201c.019.061.041.116.07.172a.87.87 0 0 0 .104.154.91.91 0 0 0 .145.146c.024.02.039.048.066.066.034.022.072.032.107.051l.103.048a1.01 1.01 0 0 0 .344.069h30.01c.116 0 .231-.028.344-.069.036-.014.068-.031.103-.049s.073-.027.107-.05c.027-.019.042-.047.066-.066a.91.91 0 0 0 .145-.146c.041-.05.075-.1.104-.154a.97.97 0 0 0 .07-.172zM36.495 34.299l10.133 15.198H26.362zM23.959 49.497h-3.603l6.133-9.199L28.291 43z"/></svg>