<svg xmlns="http://www.w3.org/2000/svg" height="682.667" viewBox="0 -4 512.002 512" width="682.667"  xmlns:v="https://vecta.io/nano"><path d="M145.91 306.863a7.5 7.5 0 0 0 7.5 7.5h102.824a7.5 7.5 0 1 0 0-15H153.41c-4.141 0-7.5 3.359-7.5 7.5zm110.324 21.742H153.41c-4.141 0-7.5 3.359-7.5 7.5a7.5 7.5 0 0 0 7.5 7.5h102.824a7.5 7.5 0 1 0 0-15zm0 29.243H153.41c-4.141 0-7.5 3.359-7.5 7.5a7.5 7.5 0 0 0 7.5 7.5h102.824a7.5 7.5 0 1 0 0-15zm-46.207 29.242H153.41c-4.141 0-7.5 3.359-7.5 7.5s3.359 7.5 7.5 7.5h56.617a7.5 7.5 0 1 0 0-15zm91.664-297.121c-15.48 0-28.078 12.664-28.078 28.234s12.598 28.23 28.078 28.23 28.078-12.664 28.078-28.23-12.594-28.234-28.078-28.234zm0 41.465c-7.211 0-13.078-5.934-13.078-13.23s5.867-13.234 13.078-13.234 13.078 5.938 13.078 13.234-5.867 13.23-13.078 13.23zm181.614 76.738c0-15.43-12.48-27.984-27.824-27.984s-27.828 12.555-27.828 27.984 12.484 27.977 27.828 27.977 27.824-12.551 27.824-27.977zm-27.824 12.977c-7.074 0-12.828-5.82-12.828-12.977s5.754-12.984 12.828-12.984 12.824 5.824 12.824 12.984-5.754 12.977-12.824 12.977zm0 0"/><path d="M498.523 151.277H482a7.5 7.5 0 1 0 0 15h15v164.094c-11.926 4.5-21.215 14.355-24.902 26.855-.551 1.875-.973 3.777-1.254 5.699-9.426.398-18.258 3.75-25.461 9.336-8.277-5.746-18.121-9.367-28.754-10.035-3.934-18.629-20.395-32.652-40.062-32.652-1.93 0-3.848.133-5.742.402-5.937-17.43-21.812-29.613-40.566-30.469v-133.23H446a7.5 7.5 0 1 0 0-15h-51.879V52.738c0-11.066-8.961-20.066-19.973-20.066H88.363C83.402 13.887 66.367 0 46.16 0h-2.496C19.59 0 0 19.711 0 43.941v387.016a39.01 39.01 0 0 0 .055 1.98c.02.418.051.832.082 1.25.004.031.004.066.008.102 1.766 23.383 21.16 41.867 44.77 41.867h270.348v13.723c0 7.457 6.047 13.523 13.477 13.523h169.785c7.434 0 13.48-6.066 13.48-13.523V164.801c-.004-7.457-6.051-13.523-13.48-13.523zM357.938 340.164c.344 2.211 1.652 4.156 3.578 5.301a7.5 7.5 0 0 0 6.363.613 25.66 25.66 0 0 1 8.688-1.504c11.738 0 21.676 7.906 24.883 18.719a56.4 56.4 0 0 0-20.961 9.055c-9.906-13.191-25.383-21.09-42.187-21.09a53.07 53.07 0 0 0-8.043.625v-37.352c13.82 1 25.523 11.684 27.68 25.633zM15 43.941C15 27.984 27.859 15 43.664 15h2.496c15.809 0 28.664 12.984 28.664 28.941v353.223c-7.945-7.168-18.426-11.543-29.91-11.543S22.949 389.984 15 397.141zm300.258 390.824H176a7.5 7.5 0 1 0 0 15h139.258v11.391H44.914C28.418 461.152 15 447.547 15 430.816c0-16.648 13.418-30.195 29.914-30.195s29.91 13.547 29.91 30.195v11.449c0 4.141 3.359 7.5 7.5 7.5H140c4.141 0 7.5-3.359 7.5-7.5s-3.359-7.5-7.5-7.5h-16.102V121.703a7.5 7.5 0 1 0-15 0v313.063H89.824V47.672h19.074v39.031a7.5 7.5 0 0 0 7.5 7.5c4.141 0 7.5-3.359 7.5-7.5V47.672h250.25c2.695 0 4.973 2.32 4.973 5.066v98.539h-24.906V80.738c0-7.598-6.164-13.781-13.738-13.781H159.645c-7.57 0-13.734 6.184-13.734 13.781v185.613c0 7.598 6.164 13.781 13.734 13.781h155.613zM160.91 251.109l42.387-73.969 50.418 87.992H160.91zm154.348 14.023h-44.254l-4.059-7.082 28.754-50.18 19.559 34.133zm0-100.332v47.035l-9.934-17.34c-2.191-3.82-5.699-6.012-9.625-6.012s-7.434 2.191-9.625 6.016l-27.773 48.469-45.379-79.199c-2.191-3.824-5.699-6.016-9.625-6.016s-7.437 2.191-9.629 6.016l-32.758 57.168V81.957h178.305v69.32h-10.477c-7.434 0-13.48 6.066-13.48 13.523zm125.547 323.602H330.258v-55.719h110.547zm-110.547-70.719v-50.562a37.94 37.94 0 0 1 8.047-.863c14.227 0 27.141 7.934 33.699 20.711a7.51 7.51 0 0 0 5.449 3.973 7.5 7.5 0 0 0 6.438-2.012c7.887-7.629 18.234-11.832 29.141-11.832 22.59 0 41.078 18.039 42.074 40.586zM497 488.402h-41.195v-55.719H497zm0-70.719h-26.891a57.43 57.43 0 0 0-13.387-35.059c5.809-3.734 12.887-5.453 20.207-4.457 2.211.305 4.445-.398 6.09-1.906a7.5 7.5 0 0 0 2.414-5.91 26.42 26.42 0 0 1 1.051-8.875c1.766-5.984 5.535-11.012 10.516-14.352zM375.695 204.555c0-4.141-3.359-7.5-7.5-7.5h-4.785c-4.141 0-7.5 3.359-7.5 7.5s3.359 7.5 7.5 7.5h4.785c4.141 0 7.5-3.359 7.5-7.5zm0 0"/><path d="M404.066 231.992h-4.785c-4.141 0-7.5 3.359-7.5 7.5s3.359 7.5 7.5 7.5h4.785c4.141 0 7.5-3.359 7.5-7.5s-3.359-7.5-7.5-7.5zm58.586 37.348a7.5 7.5 0 1 0 0 15h4.781a7.5 7.5 0 1 0 0-15zm-58.586 20.476h-4.785c-4.141 0-7.5 3.359-7.5 7.5a7.5 7.5 0 0 0 7.5 7.5h4.785a7.5 7.5 0 0 0 7.5-7.5c0-4.141-3.359-7.5-7.5-7.5zm-41.847-24.093h-4.785a7.5 7.5 0 1 0 0 15h4.785a7.5 7.5 0 0 0 7.5-7.5c0-4.141-3.359-7.5-7.5-7.5zM346 457.203h70a7.5 7.5 0 1 0 0-15h-70a7.5 7.5 0 1 0 0 15zm0 21h45a7.5 7.5 0 1 0 0-15h-45a7.5 7.5 0 1 0 0 15zm0 0"/></svg>