<svg xmlns="http://www.w3.org/2000/svg" height="512" viewBox="0 0 74 74" width="512"  xmlns:v="https://vecta.io/nano"><path d="M71 40.5a1 1 0 0 1-1-1v-2.93a1 1 0 1 1 2 0v2.93a1 1 0 0 1-1 1zM69 72H5a3 3 0 0 1-3-3V5a3 3 0 0 1 3-3h64a3 3 0 0 1 3 3v24.56a1 1 0 1 1-2 0V5a1 1 0 0 0-1-1H5a1 1 0 0 0-1 1v64a1 1 0 0 0 1 1h64a1 1 0 0 0 1-1V56.44a1 1 0 0 1 2 0V69a3 3 0 0 1-3 3z"/><path d="M71 50.44a1 1 0 0 1-1-1V46.5a1 1 0 0 1 2 0v2.94a1 1 0 0 1-1 1zM71 19H3a1 1 0 0 1 0-2h68a1 1 0 0 1 0 2zm-59.243-4.748a3.752 3.752 0 1 1 3.752-3.752 3.756 3.756 0 0 1-3.752 3.752zm0-5.5a1.752 1.752 0 1 0 1.752 1.748 1.754 1.754 0 0 0-1.752-1.752zm10.201 5.5A3.752 3.752 0 1 1 25.71 10.5a3.757 3.757 0 0 1-3.752 3.752zm0-5.5A1.752 1.752 0 1 0 23.71 10.5a1.754 1.754 0 0 0-1.752-1.752zm10.201 5.5a3.752 3.752 0 1 1 3.752-3.752 3.757 3.757 0 0 1-3.752 3.752zm0-5.5a1.752 1.752 0 1 0 1.752 1.748 1.754 1.754 0 0 0-1.752-1.752zM65 11.5H41.1a1 1 0 0 1 0-2H65a1 1 0 0 1 0 2zM37.01 64.49A19.99 19.99 0 1 1 57 44.5a20.012 20.012 0 0 1-19.99 19.99zm0-37.98A17.99 17.99 0 1 0 55 44.5a18.01 18.01 0 0 0-17.99-17.99z"/><path d="m37.01 64.49c-5.228 0-9.323-8.781-9.323-19.99s4.095-19.99 9.323-19.99 9.323 8.781 9.323 19.99-4.096 19.99-9.323 19.99zm0-37.98c-3.537 0-7.323 7.229-7.323 17.99s3.786 17.99 7.323 17.99 7.323-7.229 7.323-17.99-3.786-17.99-7.323-17.99z"/><path d="M37.01 64.49a1 1 0 0 1-1-1V25.51a1 1 0 1 1 2 0v37.98a1 1 0 0 1-1 1z"/><path d="M56 45.5H18.021a1 1 0 0 1 0-2H56a1 1 0 0 1 0 2zM53.45 36H20.57a1 1 0 0 1 0-2h32.88a1 1 0 0 1 0 2zm0 19H20.57a1 1 0 1 1 0-2h32.88a1 1 0 0 1 0 2z"/></svg>