<svg xmlns="http://www.w3.org/2000/svg" xmlns:xlink="http://www.w3.org/1999/xlink" height="1249.333" viewBox="-93 0 937 937.5" width="1249.333" xmlns:v="https://vecta.io/nano"><g fill="rgb(0%,0%,0%)"><path d="M608.82 363.484l-21.07 23.031 95.824 87.844C706.133 495.113 718.992 524.355 719 555v382.5h31.25V555a140.99 140.99 0 0 0-45.594-103.676zM484.625 0H78.375C35.25.055.305 35 .25 78.125v781.25c.055 43.125 35 78.07 78.125 78.125H469v-27.953a355.23 355.23 0 0 1 59.875-197.75c4.141-6.203 3.309-14.457-1.953-19.719L417.547 582.703a50.68 50.68 0 0 1-14.762-38.324 50.69 50.69 0 0 1 18.48-36.676c21.293-16.277 51.406-13.953 69.953 5.387l154.234 154.238 22.094-22.094L562.75 540.406V78.125C562.695 35 527.75.055 484.625 0zM531.5 509.156l-18.187-18.187c-29.977-30.625-78.187-33.816-111.937-7.398a81.94 81.94 0 0 0-29.812 59.301 81.95 81.95 0 0 0 23.891 61.926L495.922 705.27a386.33 386.33 0 0 0-58.062 200.98H78.375c-25.883 0-46.875-20.992-46.875-46.875V812.5h390.625v-31.25H31.5V125h500zm0-415.406h-500V78.125c0-25.883 20.992-46.875 46.875-46.875h406.25c25.883 0 46.875 20.992 46.875 46.875zM94 281.25h62.5c17.262 0 31.25-13.988 31.25-31.25v-62.5c0-17.262-13.988-31.25-31.25-31.25H94c-17.262 0-31.25 13.988-31.25 31.25V250c0 17.262 13.988 31.25 31.25 31.25zm0-93.75h62.5V250H94zm156.25 93.75h62.5c17.262 0 31.25-13.988 31.25-31.25v-62.5c0-17.262-13.988-31.25-31.25-31.25h-62.5c-17.262 0-31.25 13.988-31.25 31.25V250c0 17.262 13.988 31.25 31.25 31.25zm0-93.75h62.5V250h-62.5zm0 0"/><path d="M406.5 281.25H469c17.262 0 31.25-13.988 31.25-31.25v-62.5c0-17.262-13.988-31.25-31.25-31.25h-62.5c-17.262 0-31.25 13.988-31.25 31.25V250c0 17.262 13.988 31.25 31.25 31.25zm0-93.75H469V250h-62.5zM94 437.5h62.5c17.262 0 31.25-13.988 31.25-31.25v-62.5c0-17.262-13.988-31.25-31.25-31.25H94c-17.262 0-31.25 13.988-31.25 31.25v62.5c0 17.262 13.988 31.25 31.25 31.25zm0-93.75h62.5v62.5H94zm0 250h62.5c17.262 0 31.25-13.988 31.25-31.25V500c0-17.262-13.988-31.25-31.25-31.25H94c-17.262 0-31.25 13.988-31.25 31.25v62.5c0 17.262 13.988 31.25 31.25 31.25zM94 500h62.5v62.5H94zm0 0"/><use xlink:href="#B"/><path d="M406.5 437.5H469c17.262 0 31.25-13.988 31.25-31.25v-62.5c0-17.262-13.988-31.25-31.25-31.25h-62.5c-17.262 0-31.25 13.988-31.25 31.25v62.5c0 17.262 13.988 31.25 31.25 31.25zm0-93.75H469v62.5h-62.5zm-156.25 250h62.5c17.262 0 31.25-13.988 31.25-31.25V500c0-17.262-13.988-31.25-31.25-31.25h-62.5c-17.262 0-31.25 13.988-31.25 31.25v62.5c0 17.262 13.988 31.25 31.25 31.25zm0-93.75h62.5v62.5h-62.5zM94 750h62.5c17.262 0 31.25-13.988 31.25-31.25v-62.5c0-17.262-13.988-31.25-31.25-31.25H94c-17.262 0-31.25 13.988-31.25 31.25v62.5C62.75 736.012 76.738 750 94 750zm0-93.75h62.5v62.5H94zm0 0"/><use xlink:href="#B" y="312.5"/><path d="M265.875 843.75h31.25V875h-31.25zm0 0"/></g><defs ><path id="B" d="M250.25 437.5h62.5c17.262 0 31.25-13.988 31.25-31.25v-62.5c0-17.262-13.988-31.25-31.25-31.25h-62.5c-17.262 0-31.25 13.988-31.25 31.25v62.5c0 17.262 13.988 31.25 31.25 31.25zm0-93.75h62.5v62.5h-62.5zm0 0"/></defs></svg>