<svg xmlns="http://www.w3.org/2000/svg" height="682.667" viewBox="0 -68 512 512" width="682.667"  xmlns:v="https://vecta.io/nano"><path d="M494.934 0H17.066C7.645.008.008 7.645 0 17.066v204.801c.008 9.422 7.645 17.059 17.066 17.066h477.867A17.09 17.09 0 0 0 512 221.867V17.066A17.09 17.09 0 0 0 494.934 0zM17.066 221.867V17.066h477.867l.008 204.801zM82.832 79.301a8.52 8.52 0 0 0-6.031-2.5 8.53 8.53 0 0 0-6.035 2.5l-34.133 34.133a8.52 8.52 0 0 0-2.5 6.031 8.53 8.53 0 0 0 2.5 6.035l34.133 34.133c3.348 3.234 8.672 3.188 11.965-.105s3.336-8.613.102-11.961l-28.098-28.102 28.098-28.098a8.53 8.53 0 0 0 2.5-6.035 8.52 8.52 0 0 0-2.5-6.031zm358.402 0a8.54 8.54 0 0 0-12.067 12.067l28.098 28.098-28.098 28.102c-2.219 2.145-3.109 5.316-2.328 8.301a8.53 8.53 0 0 0 6.094 6.094c2.985.781 6.156-.109 8.301-2.328l34.133-34.133a8.53 8.53 0 0 0 2.5-6.035 8.52 8.52 0 0 0-2.5-6.031zM256 34.133H119.465a17.09 17.09 0 0 0-17.066 17.066v136.535a17.09 17.09 0 0 0 17.066 17.066H256c4.863-.016 9.484-2.117 12.695-5.77.113-.133.223-.258.324-.395a16.88 16.88 0 0 0 4.047-10.902V51.199c-.008-9.422-7.645-17.055-17.066-17.066zm-46.133 153.602l-7.746-14.211 19.746-36.223 27.48 50.434zM256 51.199l.012 113.094-19.16-35.156a17.07 17.07 0 0 0-29.969 0l-14.484 26.57-23.816-43.676a17.06 17.06 0 0 0-14.973-8.883h-.008c-6.246.004-11.988 3.418-14.973 8.902l-19.164 35.129v-95.98zM119.465 182.824l34.145-62.613 36.816 67.523h-70.961zm0 0"/><path d="M409.602 42.668H298.668c-4.715 0-8.535 3.82-8.535 8.531a8.54 8.54 0 0 0 8.535 8.535h110.934c4.711 0 8.531-3.82 8.531-8.535a8.53 8.53 0 0 0-8.531-8.531zm-17.067 34.133h-93.867c-4.715 0-8.535 3.82-8.535 8.531a8.54 8.54 0 0 0 8.535 8.535h93.867c4.711 0 8.531-3.82 8.531-8.535a8.53 8.53 0 0 0-8.531-8.531zm-25.601 34.133h-68.266c-4.715 0-8.535 3.82-8.535 8.531a8.54 8.54 0 0 0 8.535 8.535h68.266c4.711 0 8.531-3.82 8.531-8.535a8.53 8.53 0 0 0-8.531-8.531zm-25.602 34.132h-42.664c-4.715 0-8.535 3.82-8.535 8.535a8.53 8.53 0 0 0 8.535 8.531h42.664c4.715 0 8.535-3.82 8.535-8.531a8.54 8.54 0 0 0-8.535-8.535zm-25.598 34.133h-17.066c-4.715 0-8.535 3.82-8.535 8.535a8.53 8.53 0 0 0 8.535 8.531h17.066c4.711 0 8.531-3.82 8.531-8.531s-3.82-8.535-8.531-8.535zm-119.468-68.265c14.141 0 25.602-11.461 25.602-25.602s-11.461-25.598-25.602-25.598a25.6 25.6 0 0 0-25.598 25.598c.016 14.133 11.465 25.586 25.598 25.602zm0-34.133c4.715 0 8.535 3.82 8.535 8.531a8.54 8.54 0 0 1-8.535 8.535 8.53 8.53 0 0 1-8.531-8.535 8.54 8.54 0 0 1 8.531-8.531zM128 315.734c0-14.141-11.461-25.602-25.602-25.602S76.8 301.593 76.8 315.734a25.6 25.6 0 0 0 25.598 25.598c14.133-.016 25.586-11.465 25.602-25.598zm-34.133 0c0-4.715 3.82-8.535 8.531-8.535a8.54 8.54 0 0 1 8.535 8.535 8.53 8.53 0 0 1-8.535 8.531 8.54 8.54 0 0 1-8.531-8.531zm136.531 0c0-14.141-11.461-25.602-25.598-25.602s-25.602 11.461-25.602 25.602 11.461 25.598 25.602 25.598c14.133-.016 25.582-11.465 25.598-25.598zm-34.133 0c0-4.715 3.82-8.535 8.535-8.535a8.53 8.53 0 1 1 0 17.066c-4.711 0-8.527-3.82-8.535-8.531zm0 0"/><path d="M332.801 315.734c0-14.141-11.461-25.602-25.602-25.602s-25.598 11.461-25.598 25.602a25.6 25.6 0 0 0 25.598 25.598c14.133-.016 25.586-11.465 25.602-25.598zm-25.602 8.531c-4.711 0-8.531-3.82-8.531-8.531s3.82-8.535 8.531-8.535a8.54 8.54 0 0 1 8.535 8.535c-.008 4.711-3.824 8.527-8.535 8.531zm128-8.531c0-14.141-11.461-25.602-25.598-25.602S384 301.594 384 315.734s11.461 25.598 25.602 25.598a25.63 25.63 0 0 0 25.598-25.598zm-34.133 0c0-4.715 3.82-8.535 8.535-8.535a8.53 8.53 0 1 1 0 17.066 8.54 8.54 0 0 1-8.535-8.531zm-238.933 0c0-32.992-26.742-59.734-59.734-59.734s-59.73 26.742-59.73 59.734 26.742 59.73 59.73 59.73c32.977-.035 59.699-26.758 59.734-59.73zm-102.398 0c0-23.566 19.102-42.668 42.664-42.668s42.668 19.102 42.668 42.668-19.102 42.664-42.668 42.664c-23.551-.027-42.637-19.113-42.664-42.664zm0 0"/></svg>