<svg xmlns="http://www.w3.org/2000/svg" viewBox="0 0 385.792 385.792"  xmlns:v="https://vecta.io/nano"><path d="M332.672 54.528c0-.512-.512-.512-.512-1.024 0 0 0-.512-.512-.512-.512-.512-.512-.512-1.024-.512l-.512-.512h-48.64L195.456.768a4.65 4.65 0 0 0-5.12 0l-86.016 51.2H55.168l-.512.512c-.512 0-.512.512-1.024.512 0 0 0 .512-.512.512 0 .512-.512.512-.512 1.024V382.72c0 .512.512.512.512 1.024 0 0 0 .512.512.512.512.512 1.024 1.024 1.536 1.024.512.512 1.536.512 2.048.512h271.36c.512 0 1.536 0 2.048-.512s1.024-.512 1.536-1.024c0 0 0-.512.512-.512 0-.512.512-.512.512-1.024V56.064c-.512-.512-.512-1.024-.512-1.536zm-140.8-44.032l69.12 40.96h-138.24l69.12-40.96zm122.88 51.2l-28.16 26.112H97.152l-28.16-26.112h245.76zM283.52 98.048v242.688H100.224V98.048H283.52zM61.312 68.352l28.672 26.624v248.32L61.312 369.92V68.352zm8.192 308.224l27.648-26.112h189.44l28.16 26.112H69.504zm252.928-6.656l-28.672-26.624V94.976l28.672-26.624V369.92z"/></svg>