<svg xmlns="http://www.w3.org/2000/svg" xmlns:xlink="http://www.w3.org/1999/xlink" viewBox="0 0 64 64" xmlns:v="https://vecta.io/nano"><path d="M32 0C14.327 0 0 14.327 0 32s14.327 32 32 32 32-14.327 32-32S49.673 0 32 0zm0 62C15.458 62 2 48.542 2 32S15.458 2 32 2s30 13.458 30 30-13.458 30-30 30z"/><use xlink:href="#B"/><use xlink:href="#B" x="14"/><use xlink:href="#B" x="28"/><defs ><path id="B" d="M18 27a5 5 0 1 0 0 10 5 5 0 1 0 0-10zm0 8c-1.654 0-3-1.346-3-3s1.346-3 3-3 3 1.346 3 3-1.346 3-3 3z"/></defs></svg>