<svg xmlns="http://www.w3.org/2000/svg" viewBox="0 0 512 512"  xmlns:v="https://vecta.io/nano"><path d="M400 40h-32V0h-16v40H160V0h-16v40h-32a16.02 16.02 0 0 0-16 16v440a16.02 16.02 0 0 0 16 16h288a16.02 16.02 0 0 0 16-16V56a16.02 16.02 0 0 0-16-16zm-40 40a8.01 8.01 0 0 1 8 8 8.01 8.01 0 0 1-8 8 8.01 8.01 0 0 1-8-8 8.01 8.01 0 0 1 8-8zm-208 0c4.408 0 8 3.592 8 8s-3.592 8-8 8-8-3.592-8-8 3.592-8 8-8zm-40 416V56h32v9.472c-9.288 3.312-16 12.112-16 22.528 0 13.232 10.768 24 24 24s24-10.768 24-24c0-10.416-6.712-19.216-16-22.528V56h192v9.472c-9.288 3.312-16 12.112-16 22.528 0 13.232 10.768 24 24 24s24-10.768 24-24c0-10.416-6.712-19.216-16-22.528V56h32l.008 440H112zm48-72h48v16h-48zm64 0h128v16H224zm-64-32h112v16H160zm128 0h64v16h-64zm56 72h40v16h-40zm-216 0h40v16h-40zm238.928-196l-80-138.56c-2.856-4.952-11-4.952-13.856 0l-37.688 65.288C229.2 192.992 222.72 192 216 192c-39.696 0-72 32.304-72 72s32.304 72 72 72c34.192 0 62.84-23.984 70.144-56H360c2.856 0 5.504-1.52 6.928-4s1.432-5.52 0-8zm-95.424 3.008v.032C268.024 298.6 244.488 320 216 320c-30.88 0-56-25.12-56-56s25.12-56 56-56c7.144 0 13.944 1.392 20.232 3.84a57.11 57.11 0 0 1 7.464 3.552c.264.152.512.312.768.464 1.92 1.128 3.728 2.376 5.472 3.704.472.36.968.696 1.432 1.072 1.672 1.352 3.224 2.824 4.712 4.344.76.784 1.488 1.592 2.2 2.416.832.96 1.616 1.96 2.384 2.968a55.81 55.81 0 0 1 2.768 4.016c.768 1.224 1.504 2.456 2.176 3.736.504.96.96 1.936 1.408 2.92.688 1.536 1.312 3.104 1.864 4.704.272.792.552 1.584.792 2.392a56.06 56.06 0 0 1 1.44 6.24c.12.688.224 1.392.32 2.088.328 2.48.568 4.984.568 7.544 0 2.376-.2 4.704-.496 7.008zM288 264c0-2.984-.24-5.904-.592-8.792-.12-.984-.288-1.952-.448-2.92a71.49 71.49 0 0 0-1.144-5.568c-.272-1.128-.536-2.256-.864-3.36-.528-1.752-1.152-3.448-1.808-5.144-.824-2.16-1.768-4.248-2.792-6.312-.472-.944-.928-1.904-1.44-2.824-.848-1.528-1.752-3-2.712-4.456-.48-.736-.984-1.44-1.496-2.152-3.176-4.48-6.84-8.576-11-12.24-1.152-1.024-2.328-2.016-3.544-2.96-.888-.688-1.768-1.368-2.696-2.016-2.28-1.616-4.632-3.144-7.104-4.496L280 149.44 346.144 264H288z"/></svg>