<svg xmlns="http://www.w3.org/2000/svg" viewBox="0 0 488 488"  xmlns:v="https://vecta.io/nano"><path d="M404 184h-73.752l-11.464-45.824C316.12 127.48 306.536 120 295.504 120H192.496c-11.032 0-20.616 7.48-23.288 18.176L157.752 184H84c-22.056 0-40 17.944-40 40v176c0 22.056 17.944 40 40 40h320c22.056 0 40-17.944 40-40V224c0-22.056-17.944-40-40-40zm24 216c0 13.232-10.768 24-24 24H84c-13.232 0-24-10.768-24-24V224c0-13.232 10.768-24 24-24h80a8 8 0 0 0 7.76-6.056l12.968-51.88a8 8 0 0 1 7.768-6.064h103.016a8 8 0 0 1 7.76 6.064l12.968 51.88A8 8 0 0 0 324 200h80c13.232 0 24 10.768 24 24v176zM244 216c-52.936 0-96 43.064-96 96s43.064 96 96 96 96-43.064 96-96-43.064-96-96-96zm0 176c-44.112 0-80-35.888-80-80s35.888-80 80-80 80 35.888 80 80-35.888 80-80 80zm0-144c-35.288 0-64 28.712-64 64s28.712 64 64 64 64-28.712 64-64-28.712-64-64-64zm0 112c-26.472 0-48-21.528-48-48s21.528-48 48-48 48 21.528 48 48-21.528 48-48 48zM12 80a8 8 0 0 0-8 8v80h16V96h72V80H12zm456 320v72h-72v16h80a8 8 0 0 0 8-8v-80h-16zM20 472v-72H4v80a8 8 0 0 0 8 8h80v-16H20zm104-256H84a8 8 0 0 0-8 8v40a8 8 0 0 0 8 8h40a8 8 0 0 0 8-8v-40a8 8 0 0 0-8-8zm-8 40H92v-24h24v24zM476 48c-17.648 0-32-14.352-32-32a8 8 0 1 0-16 0c0 17.648-14.352 32-32 32a8 8 0 1 0 0 16c17.648 0 32 14.352 32 32a8 8 0 1 0 16 0c0-17.648 14.352-32 32-32a8 8 0 1 0 0-16zm-40 21.496A48.39 48.39 0 0 0 422.504 56 48.39 48.39 0 0 0 436 42.504 48.39 48.39 0 0 0 449.496 56 48.39 48.39 0 0 0 436 69.496zM404 96c-17.648 0-32-14.352-32-32a8 8 0 1 0-16 0c0 17.648-14.352 32-32 32a8 8 0 1 0 0 16c17.648 0 32 14.352 32 32a8 8 0 1 0 16 0c0-17.648 14.352-32 32-32a8 8 0 1 0 0-16zm-40 21.496c-3.552-5.344-8.152-9.936-13.496-13.496A48.39 48.39 0 0 0 364 90.504c3.552 5.344 8.152 9.936 13.496 13.496-5.344 3.552-9.936 8.152-13.496 13.496zM332 40c-17.648 0-32-14.352-32-32a8 8 0 1 0-16 0c0 17.648-14.352 32-32 32a8 8 0 1 0 0 16c17.648 0 32 14.352 32 32a8 8 0 1 0 16 0c0-17.648 14.352-32 32-32a8 8 0 1 0 0-16zm-40 21.496A48.39 48.39 0 0 0 278.504 48 48.39 48.39 0 0 0 292 34.504 48.39 48.39 0 0 0 305.496 48 48.39 48.39 0 0 0 292 61.496z"/></svg>