<svg xmlns="http://www.w3.org/2000/svg" viewBox="0 0 470 470"  xmlns:v="https://vecta.io/nano"><path d="M325 90h-15V32.5a7.5 7.5 0 0 0-7.5-7.5h-70a7.5 7.5 0 1 0 0 15H295v57.5a7.5 7.5 0 0 0 7.5 7.5H325c71.683 0 130 58.318 130 130s-58.317 130-130 130h-22.5a7.5 7.5 0 0 0-7.5 7.5v35c0 12.407-10.094 22.5-22.5 22.5h-235C25.094 430 15 419.907 15 407.5V40h187.5a7.5 7.5 0 1 0 0-15H7.5A7.5 7.5 0 0 0 0 32.5v375C0 428.178 16.822 445 37.5 445h235c20.678 0 37.5-16.822 37.5-37.5V380h15c79.953 0 145-65.047 145-145S404.953 90 325 90zm-22.5 250H325c57.897 0 105-47.103 105-105s-47.103-105-105-105h-22.5a7.5 7.5 0 0 0-7.5 7.5v195a7.5 7.5 0 0 0 7.5 7.5zm7.5-195h15c49.626 0 90 40.374 90 90s-40.374 90-90 90h-15V145z"/><circle cx="84.977" cy="390" r="7.5"/><circle cx="54.977" cy="360" r="7.5"/></svg>