<svg xmlns="http://www.w3.org/2000/svg" xmlns:xlink="http://www.w3.org/1999/xlink" height="645.333" viewBox="-61 0 484 484.375" width="645.333" xmlns:v="https://vecta.io/nano"><path d="M6.383 484.375h349.609c3.313 0 6.195-2.312 6.195-5.625V66.555a6.33 6.33 0 0 0-6.195-6.18h-44.805V48.344c0-3.312-3.07-5.969-6.383-5.969h-30.617V6c0-3.312-2.687-6-6-6s-6 2.688-6 6v36.375H232.41a6.17 6.17 0 0 0-6.223 5.969v12.031h-90V48.344a6.17 6.17 0 0 0-6.223-5.969h-29.777V6c0-3.312-2.687-6-6-6s-6 2.688-6 6v36.375H57.57c-3.312 0-6.383 2.656-6.383 5.969v12.031H6.383a6.33 6.33 0 0 0-6.195 6.18V478.75c0 3.313 2.883 5.625 6.195 5.625zm231.805-430h61v22h-61zm-175 0h61v22h-61zm-51 18h39v10.117c0 3.313 3.07 5.883 6.383 5.883h72.395a6.1 6.1 0 0 0 6.223-5.883V72.375h90v10.117a6.1 6.1 0 0 0 6.223 5.883h72.395c3.313 0 6.383-2.57 6.383-5.883V72.375h39v400h-338zm0 0"/><use xlink:href="#B"/><use xlink:href="#B" y="44"/><path d="M308.188 134.375c0-3.312-2.687-6-6-6h-242c-3.312 0-6 2.688-6 6v205c0 3.313 2.688 6 6 6h242c3.313 0 6-2.687 6-6zm-242 6h230v193h-230zm147.437 65.453l-10.437-1.109v-21.574c.07-1.922-.809-3.754-2.352-4.902-1.59-1.059-3.598-1.262-5.367-.547l-66.781 23.68h-33.93c-6.379 0-11.57 4.75-11.57 11.129v33.766c0 4.5 3 8.406 6 10.316v33.02c0 3.316 3.047 5.77 6.359 5.77h19.352a5.9 5.9 0 0 0 5.754-4.187l9.699-32.82 65.203 22.898a5.93 5.93 0 0 0 1.984.352c1.188.004 2.344-.383 3.293-1.098 1.543-1.145 2.422-2.973 2.355-4.891V252.57l10.438-1.113a17.38 17.38 0 0 0 15.563-17.043v-11.539c-.117-8.805-6.805-16.129-15.562-17.047zm-118.437 7.547h29v32h-29zm15.227 70h-9.227v-26h16.828zm80.773-16.207l-55-19.582v-36.402l55-19.582zm26-32.754c-.129 2.68-2.203 4.855-4.871 5.113l-9.129.969v-23.707l9.129.969c2.668.262 4.742 2.438 4.871 5.117zm57-11.039h-33c-3.312 0-6 2.688-6 6s2.688 6 6 6h33c3.313 0 6-2.687 6-6s-2.687-6-6-6zm-35.5-7.953c.504 0 1.008-.062 1.492-.191l23.363-5.988a6 6 0 0 0 4.32-7.301c-.824-3.211-4.094-5.145-7.301-4.324l-23.359 5.992c-2.934.746-4.852 3.559-4.473 6.563a6 6 0 0 0 5.957 5.25zm24.851 34.906l-23.359-5.988c-3.207-.809-6.461 1.129-7.281 4.328s1.102 6.461 4.301 7.297l23.359 5.988c3.211.824 6.48-1.109 7.301-4.32a6 6 0 0 0-4.32-7.305zm0 0"/><defs ><path id="B" d="M303.211 381.375H59.164c-3.312 0-6 2.688-6 6s2.688 6 6 6h244.047c3.313 0 6-2.687 6-6s-2.687-6-6-6zm0 0"/></defs></svg>