<svg xmlns="http://www.w3.org/2000/svg" height="512" width="512"  xmlns:v="https://vecta.io/nano"><path d="M214.102 452.627h36.173a7.5 7.5 0 1 0 0-15h-36.173a7.5 7.5 0 1 0 0 15zM203.981 75.446h56.414a7.5 7.5 0 1 0 0-15h-56.414a7.5 7.5 0 1 0 0 15z"/><circle cx="180.385" cy="67.174" r="7.5"/><circle cx="283.992" cy="67.174" r="7.5"/><circle cx="232.189" cy="373.999" r="7.5"/><circle cx="183.72" cy="373.999" r="7.5"/><circle cx="277.72" cy="373.999" r="7.5"/><path d="M377.58 121.063h22.732a7.5 7.5 0 1 0 0-15H385.08V82.711a7.5 7.5 0 1 0-15 0v30.852a7.5 7.5 0 0 0 7.5 7.5zm-122.301 37.768h-46.182c-30.206 0-54.78 25.304-54.78 56.407 0 21.953 12.522 42.071 31.903 51.252 1.326.629 2.183 2.033 2.183 3.579v17.443c0 4.288 2.501 8.194 6.371 9.953 1.442.656 2.958.978 4.459.977 2.527 0 5.012-.911 7.027-2.671l26.689-23.293a3.29 3.29 0 0 1 2.158-.832h20.171c30.206 0 54.781-25.305 54.781-56.408s-24.574-56.407-54.78-56.407zm0 97.815h-20.171c-4.405 0-8.676 1.609-12.022 4.531l-19.683 17.179v-8.287c0-7.312-4.224-14.037-10.761-17.135-14.17-6.712-23.325-21.509-23.325-37.696 0-22.832 17.846-41.407 39.78-41.407h46.182c21.936 0 39.781 18.575 39.781 41.407s-17.845 41.408-39.781 41.408zm-2.749-63.694h-40.684a7.5 7.5 0 1 0 0 15h40.684a7.5 7.5 0 1 0 0-15zm-11.545 29.061h-29.139a7.5 7.5 0 1 0 0 15h29.139a7.5 7.5 0 1 0 0-15zm257.753 20.353c-3.512-26.566-25.52-47.946-52.33-50.837-2.21-.237-4.444-.358-6.643-.358h-.002c-15.884 0-30.818 6.148-42.053 17.313-11.249 11.179-17.444 26.045-17.444 41.859 0 10.312 2.722 20.477 7.879 29.411l39.942 68.836c2.442 4.203 6.809 6.712 11.679 6.712a13.37 13.37 0 0 0 11.681-6.714l39.941-68.836c6.544-11.333 9.086-24.261 7.35-37.386zm-20.332 29.872l-38.64 66.592-38.639-66.589a43.87 43.87 0 0 1-5.861-21.898c0-11.79 4.623-22.878 13.017-31.219 8.406-8.354 19.586-12.953 31.482-12.953 1.664 0 3.358.092 5.036.272 20.02 2.158 36.449 18.093 39.065 37.888 1.3 9.821-.592 19.476-5.46 27.907zm-38.639-49.002c-14.055 0-25.489 11.435-25.489 25.489s11.435 25.49 25.489 25.49 25.49-11.435 25.49-25.49-11.435-25.489-25.49-25.489zm0 35.98c-5.784 0-10.489-4.706-10.489-10.49s4.705-10.489 10.489-10.489 10.49 4.705 10.49 10.489-4.706 10.49-10.49 10.49zM364.103 410.58c-3.238-1.933-7.287-1.979-10.566-.116a10.52 10.52 0 0 0-5.317 9.132v48.748a10.52 10.52 0 0 0 5.316 9.132c1.605.91 3.395 1.365 5.183 1.365a10.51 10.51 0 0 0 5.385-1.482l40.813-24.374c3.203-1.914 5.116-5.283 5.116-9.015s-1.913-7.103-5.116-9.016zm-.883 49.834v-32.89l27.536 16.445zM91.896 112.45l30.716-31.614c10.823-11.197 10.823-29.417-.001-40.615-5.308-5.489-12.404-8.513-19.984-8.513-6.849 0-13.304 2.469-18.401 6.995-5.098-4.526-11.553-6.995-18.401-6.995-7.578 0-14.676 3.022-19.985 8.514-10.824 11.197-10.823 29.417.007 40.621l30.712 31.611c2.043 2.083 4.767 3.23 7.668 3.23s5.627-1.148 7.669-3.234zM56.624 70.41c-5.268-5.448-5.268-14.314-.002-19.763 2.458-2.54 5.726-3.939 9.202-3.939s6.744 1.399 9.2 3.938l3.809 3.94a7.5 7.5 0 0 0 5.393 2.288c2.034 0 3.979-.825 5.392-2.287l3.81-3.94c2.456-2.54 5.724-3.938 9.2-3.938s6.745 1.398 9.2 3.938c5.268 5.45 5.268 14.316.007 19.758L84.227 98.839 56.624 70.41zm372.959 305.528h-65.836V175.186a63.08 63.08 0 0 0 13.833 1.544c34.831 0 63.168-28.337 63.168-63.168s-28.337-63.168-63.168-63.168c-4.752 0-9.378.545-13.833 1.544v-6.943c0-12.146-9.882-22.028-22.029-22.028H155.72V12.5c0-6.893-5.607-12.5-12.5-12.5H25.231c-6.893 0-12.5 5.607-12.5 12.5v122.393c0 6.893 5.607 12.5 12.5 12.5h26.077a7.5 7.5 0 1 0 0-15H27.731V15H140.72v117.393H86.976a7.5 7.5 0 1 0 0 15h13.655v214.201H38.72c-6.893 0-12.5 5.607-12.5 12.5v76.442c0 6.893 5.607 12.5 12.5 12.5h61.911v12.18c0 12.146 9.882 22.028 22.028 22.028h187.39v2.256c0 6.893 5.607 12.5 12.5 12.5h107.034c6.893 0 12.5-5.607 12.5-12.5V469a7.5 7.5 0 1 0-15 0v28H325.049V390.938h102.034v42.395a7.5 7.5 0 1 0 15 0v-44.895c0-6.892-5.607-12.5-12.5-12.5zm-3.835-262.375c0 26.56-21.608 48.168-48.168 48.168s-48.168-21.608-48.168-48.168 21.608-48.168 48.168-48.168 48.168 21.608 48.168 48.168zm-84.03-75.595a7.04 7.04 0 0 1 7.029 7.028v12.392c-16.185 8.341-28.316 23.464-32.618 41.595H155.72V37.968zm-212.74 338.626L91.232 410.05l-37.745-33.456zM41.22 448.036v-62.273L83.003 422.8c2.347 2.081 5.288 3.121 8.23 3.121a12.37 12.37 0 0 0 8.228-3.12l41.785-37.038v62.273zm268.829 34.208h-187.39a7.04 7.04 0 0 1-7.028-7.028v-12.18h28.115c6.893 0 12.5-5.607 12.5-12.5v-34.264h153.803zm13.927-132.63h24.771v26.324h-26.198c-6.893 0-12.5 5.607-12.5 12.5v12.834H156.246v-27.179c0-6.893-5.607-12.5-12.5-12.5h-28.115v-11.979h173.012a7.5 7.5 0 1 0 0-15H115.631V147.393h27.589c6.893 0 12.5-5.607 12.5-12.5v-20.91h158.703c.16 24.269 14.075 45.319 34.324 55.755v164.877h-24.771a7.5 7.5 0 0 0-7.5 7.5 7.5 7.5 0 0 0 7.5 7.499z"/></svg>