<svg xmlns="http://www.w3.org/2000/svg" width="694.114" height="608.7" viewBox="0 0 183.651 161.052"  xmlns:v="https://vecta.io/nano"><path d="M6.237 159.433c-6.591-3.314-6.234.133-6.234-60.269V45.511l1.845-2.377c4.066-5.239 4.58-5.361 23.582-5.605l17.113-.22.251-15.009c.278-16.666.418-17.117 6.391-20.683L51.896 0l122.324.024 3.194 1.606c6.591 3.314 6.234-.133 6.234 60.269v53.652l-1.845 2.377c-4.448 5.732-1.054 5.361-51.095 5.583l-44.622.198-.02 12.745c-.022 13.883-.765 18.306-3.514 20.927-3.774 3.597-4.713 3.683-40.096 3.67-32.664-.012-33.06-.029-36.219-1.618zm69.086-4.198c1.43-.437 2.96-1.386 3.402-2.11.503-.824.803-21.004.803-53.985V46.47l-1.783-1.664c-1.602-1.496-2.515-1.664-9.018-1.664h-7.236v2.899c0 3.68-1.742 7.364-4.195 8.871-1.564.961-4.187 1.173-14.516 1.173H30.173l-2.787-2.445c-2.506-2.198-2.787-2.851-2.787-6.471v-4.027h-7.288c-5.953 0-7.642.252-9.223 1.374L6.152 45.89 5.95 98.263c-.216 56.129-.295 54.978 3.907 56.842 2.708 1.202 61.578 1.318 65.466.129zm-53.23-6.084c-.792-.837-.854-1.478-.228-2.349.766-1.066 3.116-1.198 21.268-1.198h20.407v4.314l-20.179.192c-17.677.168-20.314.049-21.268-.959zm5.374-15.378c-6.162-2.236-7.745-9.03-3.061-13.142l2.678-2.351 13.719-.235c8.411-.144 14.891.071 16.749.557 8.181 2.137 8.836 11.978.988 14.854-3.063 1.123-28.147 1.378-31.073.317zm29.981-6.205c.782-.826.841-1.467.216-2.337-1.367-1.9-29.222-1.804-29.64.102-.712 3.241-.142 3.373 14.484 3.373 11.648 0 14.035-.182 14.94-1.139zM17.63 109.332c-4.617-1.657-4.9-2.663-5.17-18.405-.386-22.462-2.086-21.323 31.418-21.032l24.144.21 5.358 4.7v14.616c0 21.874 1.88 20.606-30.461 20.544-13.007-.025-24.387-.31-25.289-.634zm48.233-5.255c1.256-.806 1.382-2.351 1.181-14.56l-.224-13.659-23.266-.191c-16.481-.135-23.594.048-24.39.627-1.816 1.322-1.61 25.584.232 27.37 1.25 1.211 3.08 1.315 23.209 1.315 16.219 0 22.214-.232 23.257-.901zm-40.249-5.686c-1.392-1.221-1.28-5.267.175-6.326.659-.48 1.959-.653 2.912-.387 2.474.689 2.109 7.079-.422 7.397-.907.114-2.106-.193-2.664-.683zm12.307.372c-1.419-.52-1.292-5.638.166-6.699.659-.48 1.959-.653 2.912-.387 1.476.411 1.686.956 1.474 3.834-.25 3.396-1.576 4.343-4.551 3.252zm11.819-.017c-.301-.264-.547-1.86-.547-3.547 0-3.353 2.183-4.857 4.548-3.136 1.44 1.048 1.573 5.101.207 6.299-1.072.94-3.338 1.147-4.209.383zM24.852 84.388c-.886-2.025.905-3.497 4.255-3.497s5.141 1.472 4.255 3.497c-.372.851-1.548 1.176-4.255 1.176s-3.883-.325-4.255-1.176zm-11.967-28.75c-1.112-.976-.601-5.836.714-6.794 2.212-1.61 4.03.07 4.03 3.724 0 2.845-.206 3.178-2.08 3.37-1.144.117-2.343-.018-2.664-.3zm55.329-.416c-.541-.475-.984-1.919-.984-3.21 0-4.034 5.165-5.014 6.26-1.187 1.06 3.705-2.594 6.75-5.276 4.398zm107.349 61.325l1.935-1.374V26.963l-128.305-.368V37.27l14.142.239c13.266.224 14.308.343 16.819 1.914 5.666 3.544 5.495 2.288 5.762 42.366l.24 36.131h43.735c41.838 0 43.819-.06 45.671-1.374zm-73.939-11.393c-7.488-3.431-11.818-11.937-8.789-17.263 1.056-1.856 1.058-2.371.02-4.109a5.9 5.9 0 0 1-.665-4.237c.287-1.237.476-2.816.419-3.508-.13-1.594-.171-11.026-.053-12.224.049-.494-.138-2.889-.414-5.322-.923-8.123 2.994-14.585 11.279-18.61l4.391-2.133h47.551l4.221 1.953c8.128 3.76 12.274 10.531 11.471 18.735-.528 5.393-.528 4.783.005 10.8.238 2.688.077 5.274-.358 5.752-.442.486-.499 1.501-.129 2.306.991 2.157.877 4.818-.293 6.831-.859 1.478-.839 2.161.11 3.842 2.632 4.658-1.13 13.189-7.428 16.847l-3.377 1.961-53.516.414-4.445-2.037zm57.933-4.894c4.886-3.201 7.273-8.49 4.808-10.652-1.126-.988-3.527-1.167-15.601-1.167-14.181 0-14.278.011-15.566 1.736-1.777 2.379-6.455 4.224-9.313 3.674-1.263-.243-3.532-1.56-5.041-2.926l-2.744-2.483h-7.979c-10.709 0-12.206 1.398-8.475 7.911 3.123 5.452 4.667 5.712 32.909 5.541 23.569-.143 24.849-.22 27.004-1.632zm-26.906-17.752c9.804-10.113 8.422-9.472 21.339-9.887l11.21-.36v-5.033H97.974v5.033l4.919.377c6.174.473 6.783.849 14.695 9.059 3.573 3.708 7.13 6.742 7.905 6.742s3.996-2.669 7.159-5.932zm-22.856-.36c-4.085-4.731-8.009-5.938-10.944-3.364-3.066 2.689-.28 4.622 6.659 4.622 4.982 0 5.292-.091 4.285-1.258zm54.527.128c.709-.621 1.288-1.407 1.288-1.746 0-2.129-2.766-2.876-10.649-2.876-9.521 0-9.941.109-12.715 3.298l-2.134 2.454h11.461c9.326 0 11.701-.21 12.749-1.13zm0-21.571c3.939-3.455-1.364-14.05-8.306-16.593-3.346-1.226-44.746-1.403-48.356-.207-5.217 1.729-8.86 6.199-9.728 11.938-.949 6.274-2.536 5.992 33.655 5.992 27.495 0 31.609-.142 32.735-1.13zm-53.638-5.697c-1.899-2.007 3.877-7.415 6.85-6.414 2.168.73 1.687 4.273-.815 5.999-2.55 1.759-4.628 1.902-6.035.415zm18.617.629c-1.112-.976-.601-5.836.714-6.794 2.212-1.61 4.03.07 4.03 3.724 0 2.845-.206 3.178-2.08 3.37-1.144.117-2.343-.018-2.664-.3zm17.196-1.57c-2.48-2.27-2.78-3.858-.977-5.171 2.495-1.816 9.04 3.925 6.969 6.112-1.531 1.618-3.541 1.302-5.992-.942zm-92.55-3.879c.541-.475.984-2.254.984-3.955v-3.092H30.337v2.564c0 5.151.444 5.345 12.163 5.345 7.046 0 10.787-.282 11.449-.863zm123.55-35.25c0-5.57-.209-6.457-1.867-7.909l-1.867-1.636H52.328L50.761 7.09c-1.281 1.387-1.567 2.867-1.567 8.093v6.396l128.305-.368zm-121.77-.223c-1.869-1.975.014-3.57 4.212-3.57 3.453 0 3.6.088 3.6 2.157 0 2.01-.229 2.172-3.35 2.372-2.33.15-3.689-.142-4.462-.959zm15.034-.073c-.886-2.025.905-3.497 4.255-3.497s5.141 1.472 4.255 3.497c-.728 1.664-7.783 1.664-8.511 0zm15.638.14c-1.109-2.534.016-3.637 3.706-3.637 4.154 0 6.068 1.597 4.234 3.535-1.393 1.472-7.308 1.548-7.941.102zm61.116-.102c-.782-.826-.841-1.467-.216-2.337 1.267-1.761 22.211-1.795 23.475-.038.459.638.603 1.69.32 2.337-.755 1.726-21.949 1.759-23.579.038z"/></svg>