<svg xmlns="http://www.w3.org/2000/svg" viewBox="0 0 512 512"  xmlns:v="https://vecta.io/nano"><path d="M507.042 98.917L395.978 47.686l-3.308-.724-.136-.028H119.467l-.133.027c-.556.057-1.105.168-1.64.331-.569.076-1.129.208-1.671.395l-.131.031L4.958 98.917A8.54 8.54 0 0 0 0 106.667V422.4a8.53 8.53 0 0 0 6.025 8.158l110.933 34.133c.809.248 1.65.374 2.496.372l.012.003 273.079-.003a8.44 8.44 0 0 0 2.496-.372l110.933-34.133a8.53 8.53 0 0 0 6.025-8.158V106.667a8.54 8.54 0 0 0-4.957-7.75zM110.933 444.978L17.067 416.1v-24.811l93.867 28.882v24.807zm0-42.667l-93.867-28.882V154.795l93.867-43.324v290.84zm0-309.639l-93.867 43.323v-23.87l93.867-43.321v23.868zM384 448H128v-25.6h256V448zm0-42.667H128V106.667h256v298.666zM384 89.6H128V64h256v25.6zm110.933 326.5l-93.867 28.878v-24.806l93.867-28.882v24.81zm0-42.671l-93.867 28.882v-290.84l93.867 43.324v218.634zm0-237.434l-93.867-43.323V68.804l93.867 43.32v23.871zM153.6 388.267h204.8a8.53 8.53 0 0 0 6.035-2.499c1.6-1.6 2.499-3.771 2.499-6.035V140.8a8.53 8.53 0 0 0-2.499-6.035c-1.6-1.6-3.771-2.499-6.035-2.499H153.6a8.53 8.53 0 0 0-6.035 2.499c-1.6 1.6-2.499 3.771-2.499 6.035v238.933a8.53 8.53 0 0 0 2.499 6.035 8.54 8.54 0 0 0 6.035 2.499zm8.533-238.934h187.733V371.2H162.133V149.333zM40.154 364.258l42.667 13.133a8.66 8.66 0 0 0 2.512.375 8.53 8.53 0 0 0 6.036-2.497c1.601-1.6 2.499-3.772 2.497-6.036v-212.65a8.53 8.53 0 0 0-3.931-7.184c-2.449-1.568-5.528-1.782-8.17-.566L39.1 168.467c-3.028 1.391-4.968 4.418-4.966 7.75V356.1c.002 3.745 2.442 7.052 6.02 8.158zM51.2 181.683L76.8 169.9v187.775L51.2 349.8V181.683zM421.596 376.1c1.47 1.081 3.246 1.665 5.071 1.667.851-.001 1.698-.127 2.512-.375l42.667-13.133c3.578-1.106 6.018-4.413 6.021-8.158V176.217c.001-3.332-1.939-6.359-4.966-7.75l-42.667-19.633a8.53 8.53 0 0 0-8.17.566c-2.449 1.568-3.93 4.276-3.931 7.184v212.65c.001 2.708 1.286 5.255 3.463 6.866zM435.2 169.9l25.6 11.783V349.8l-25.6 7.875V169.9zM187.733 192c2.281.001 4.467-.912 6.071-2.533l8.533-8.633c3.296-3.356 3.256-8.745-.09-12.052a8.54 8.54 0 0 0-12.052.052l-8.533 8.633c-2.419 2.449-3.13 6.112-1.803 9.288s4.432 5.244 7.874 5.245zm45.167-23.1l-51.2 51.2c-2.188 2.149-3.055 5.307-2.27 8.271a8.53 8.53 0 0 0 14.336 3.795l51.2-51.2c3.281-3.341 3.256-8.701-.054-12.012s-8.671-3.334-12.012-.054z"/></svg>