<svg xmlns="http://www.w3.org/2000/svg" height="512" width="512"  xmlns:v="https://vecta.io/nano"><path d="M88.061 391.445a28.23 28.23 0 0 0-19.921 8.766c-5.262 5.485-8.069 12.689-7.905 20.286a28.26 28.26 0 0 0 8.786 19.949c5.339 5.103 12.297 7.891 19.658 7.891l.637-.007c7.601-.166 14.68-3.282 19.93-8.775 10.845-11.345 10.445-29.39-.891-40.227-5.492-5.249-12.727-8.041-20.294-7.883zm10.342 37.746a13.34 13.34 0 0 1-9.414 4.144 13.43 13.43 0 0 1-9.603-3.731 13.36 13.36 0 0 1-4.155-9.431 13.33 13.33 0 0 1 3.742-9.587 13.34 13.34 0 0 1 9.415-4.144l.302-.003c3.482 0 6.775 1.319 9.301 3.734 5.356 5.12 5.542 13.652.412 19.018zm131.552 52.653l.637-.007c7.601-.166 14.68-3.282 19.93-8.775 10.833-11.332 10.437-29.386-.881-40.245-5.503-5.259-12.734-8.035-20.314-7.879-7.596.176-14.671 3.297-19.912 8.78-5.262 5.485-8.069 12.69-7.904 20.287.165 7.605 3.285 14.69 8.786 19.949a28.28 28.28 0 0 0 19.658 7.89zm-9.706-37.753c2.484-2.599 5.831-4.075 9.425-4.158l.319-.004c3.472 0 6.752 1.313 9.268 3.716 5.356 5.143 5.545 13.688.418 19.052a13.34 13.34 0 0 1-9.415 4.144c-3.596.085-7.004-1.247-9.603-3.73a13.36 13.36 0 0 1-4.155-9.431c-.076-3.588 1.249-6.989 3.743-9.589zm252.215-117.423h-.863l-8.982-24.023c-3.149-8.383-10.769-13.592-19.887-13.593l-12.783-78.826c-.012-.075-.025-.149-.04-.224-.772-3.989-2.72-7.376-5.419-9.858V47.809a7.5 7.5 0 0 0-7.5-7.5h-39.498V7.5a7.5 7.5 0 0 0-7.5-7.5H33.045a7.5 7.5 0 0 0-7.5 7.5v146.042a7.5 7.5 0 1 0 15 0V15h321.948v25.309H264.83a7.5 7.5 0 1 0 0 15h144.661v140.758c-6.874 1.429-12.112 6.907-13.206 14.209l-12.775 78.775c-9.117.001-16.737 5.21-19.89 13.604l-8.978 24.012h-.863c-7.715 0-13.992 6.289-13.992 14.02v36.608H209l55.046-57.433c31.136-32.44 49.931-52.021 45.384-101.561-.203-2.185-.743-7.988-6.114-9.851-5.447-1.891-9.301 2.163-12.098 5.102L188.25 321.021 146.624 178.05c-1.147-3.913-2.718-9.271-8.398-10.091-5.617-.811-8.654 3.913-9.952 5.928-26.933 41.809-19.47 67.353-9.14 102.708l26.007 89.35c-5.917 5.601-9.803 4.969-24.906 1.59-6.042-1.352-13.562-3.035-22.923-4.445a57.52 57.52 0 0 0-9.799-.609V55.309h142.053a7.5 7.5 0 1 0 0-15H80.014a7.5 7.5 0 0 0-7.5 7.5v289.149H40.545V188.154a7.5 7.5 0 1 0-15 0v156.304a7.5 7.5 0 0 0 7.5 7.5h39.469v12.869c-9.508 2.808-18.26 8.048-25.255 15.418-21.802 22.876-21.021 59.239 1.742 81.058 11.06 10.602 25.331 15.868 39.604 15.868 15.091 0 30.184-5.892 41.466-17.593l32.627-34.01 13.152 45.145c4.275 14.687 14.012 26.83 27.416 34.192 8.564 4.704 17.97 7.096 27.477 7.096 5.374 0 10.781-.765 16.085-2.309 30.272-8.811 47.785-40.682 39.042-71.04-5.161-17.954-18.79-32.303-36.461-38.385-7.763-2.668-14.284-4.561-20.037-6.232l-5.889-1.74h116.304v105.66a14.01 14.01 0 0 0 13.992 13.991h118.684a14.01 14.01 0 0 0 13.991-13.991V340.688c.001-7.731-6.275-14.02-13.99-14.02zm-177.341-95.511c.441 34.202-13.825 49.068-41.898 78.317l-52.557 54.836c-1.364-3.791-3.595-7.331-6.697-10.297-3.038-2.915-6.644-5.024-10.562-6.245l6.759-7.068zm-160.085-39.276l41.219 141.656-19.118 19.954-23.607-81.102c-8.957-30.661-14.7-50.324 1.506-80.508zM119.26 449.18c-16.217 16.819-43.079 17.399-59.88 1.294-16.809-16.113-17.376-42.976-1.252-59.893 8.013-8.442 19.135-13.128 30.648-13.128a42.47 42.47 0 0 1 6.307.471c8.833 1.331 15.764 2.881 21.878 4.249 16.584 3.711 27.54 6.162 40.383-7.214l9.39-9.786c2.186-2.271 5.144-3.561 8.336-3.629 3.227-.061 6.231 1.1 8.525 3.301 4.707 4.5 4.91 11.96.509 16.745l-64.844 67.59zm125.271-34.729a42.39 42.39 0 0 1 26.924 28.348c6.462 22.437-6.467 45.984-28.819 52.491-10.84 3.155-22.258 1.901-32.15-3.532s-17.078-14.396-20.235-25.238l-15.569-53.443 19.933-20.776c.015-.015.031-.028.046-.043 6.482 9.194 16.73 12.176 30.529 16.182 5.59 1.622 11.925 3.462 19.341 6.011zm226.924 32.123H354.788V405.76h116.667zM354.788 390.76v-49.092h116.667v49.092zm56.329-178.248c.064-.439.26-1.777 1.897-1.814 1.634-.028 2.023 1.431 2.149 2.052l12.373 76.302h-28.831c.001-.001 12.407-76.502 12.412-76.54zm-33.451 95.407c.964-2.566 2.932-3.868 5.848-3.868h59.215c2.916 0 4.884 1.302 5.845 3.857l7.014 18.759h-84.931zm-22.878 189.027v-35.372h116.667v35.372z"/></svg>