<svg xmlns="http://www.w3.org/2000/svg" viewBox="0 0 512 512"  xmlns:v="https://vecta.io/nano"><path d="M147.451 28.49H90.654C75.35 28.49 62.9 40.941 62.9 56.245s12.45 27.753 27.753 27.753h56.797c15.304 0 27.753-12.45 27.753-27.753S162.754 28.49 147.451 28.49zm0 40.508H90.654c-7.033 0-12.754-5.722-12.754-12.754s5.722-12.755 12.754-12.755h56.797c7.033 0 12.754 5.722 12.754 12.755s-5.722 12.754-12.754 12.754zm21.881 54.225c-22.431.001-40.68 18.25-40.68 40.68s18.25 40.68 40.68 40.68 40.68-18.249 40.68-40.68-18.25-40.68-40.68-40.68zm-.001 66.362c-14.16 0-25.68-11.521-25.68-25.68s11.521-25.68 25.68-25.68 25.68 11.521 25.68 25.68-11.52 25.68-25.68 25.68zM470.034 83.998a7.5 7.5 0 0 0 7.5-7.5V50.153c0-27.652-22.497-50.149-50.15-50.149H265.979c-.052 0-.102-.004-.154-.004H72.838C51.68 0 34.466 17.214 34.466 38.372v355.844a7.5 7.5 0 1 0 15 0V38.372C49.466 25.484 59.951 15 72.838 15l193.072.002c12.714 0 23.287 10.518 23.287 23.37l-.12 437.592a23.02 23.02 0 0 1-.257 1.779l-.021.118c-1.626 8.591-8.12 16.171-18.159 18.596-3.973.835-5.759.366-20.294.501v-8.215c0-10.752-8.747-19.5-19.5-19.5h-10.835a7.5 7.5 0 1 0 0 15h10.835c2.439 0 4.5 2.061 4.5 4.5v8.215h-132.03v-8.215c0-2.439 2.061-4.5 4.5-4.5h77.194a7.5 7.5 0 1 0 0-15h-77.194c-10.752 0-19.5 8.748-19.5 19.5v8.215h-15.48c-12.888 0-23.372-10.485-23.372-23.372v-44.368a7.5 7.5 0 1 0-15 0v44.368c0 21.159 17.214 38.372 38.372 38.372l200.34-.715H427.38c27.652 0 50.15-22.497 50.15-50.149V111.497a7.5 7.5 0 1 0-15 0v349.595c0 19.382-15.769 35.149-35.15 35.149H296.804c2.732-3.732 4.718-7.94 5.888-12h124.691c12.766 0 23.15-10.385 23.15-23.149V50.153c0-12.766-10.386-23.149-23.15-23.149H302.476c-1.364-4.39-3.504-8.439-6.247-12h131.154c19.383 0 35.15 15.769 35.15 35.149v26.345a7.5 7.5 0 0 0 7.501 7.5zM304.196 42.003h123.187a8.16 8.16 0 0 1 8.151 8.15v410.939a8.16 8.16 0 0 1-8.151 8.15H304.196V42.003z"/></svg>