<svg xmlns="http://www.w3.org/2000/svg" height="512" width="512"  xmlns:v="https://vecta.io/nano"><path d="M322 401c44.112 0 80 35.888 80 80 0 5.522 4.478 10 10 10s10-4.478 10-10c0-44.112 35.888-80 80-80 5.522 0 10-4.478 10-10s-4.478-10-10-10c-44.112 0-80-35.888-80-80 0-5.522-4.478-10-10-10s-10 4.478-10 10c0 44.112-35.888 80-80 80-5.522 0-10 4.478-10 10s4.478 10 10 10zm90-56.429A100.67 100.67 0 0 0 458.429 391 100.67 100.67 0 0 0 412 437.429 100.67 100.67 0 0 0 365.571 391 100.66 100.66 0 0 0 412 344.571zM10 101c27.57 0 50 22.43 50 50 0 5.522 4.477 10 10 10s10-4.478 10-10c0-27.57 22.43-50 50-50 5.523 0 10-4.478 10-10s-4.477-10-10-10c-27.57 0-50-22.43-50-50 0-5.522-4.477-10-10-10s-10 4.478-10 10c0 27.57-22.43 50-50 50-5.523 0-10 4.478-10 10s4.477 10 10 10zm60-33.976A70.57 70.57 0 0 0 93.975 91 70.55 70.55 0 0 0 70 114.976 70.57 70.57 0 0 0 46.025 91 70.57 70.57 0 0 0 70 67.024z"/><circle cx="279" cy="294" r="10"/><path d="M305.678 271.194a10 10 0 0 0 13.703 3.496C345.499 259.192 375.451 251 406 251c5.522 0 10-4.478 10-10s-4.478-10-10-10c-93.738 0-170-76.262-170-170 0-5.522-4.477-10-10-10s-10 4.478-10 10c0 93.738-76.262 170-170 170-5.523 0-10 4.478-10 10s4.477 10 10 10c93.738 0 170 76.262 170 170 0 5.522 4.477 10 10 10s10-4.478 10-10c0-30.549 8.192-60.501 23.69-86.619 2.818-4.75 1.253-10.885-3.496-13.703a10 10 0 0 0-13.703 3.496 188.66 188.66 0 0 0-16.498 35.931C207.04 304.229 162.753 259.948 106.875 241 162.759 222.05 207.05 177.759 226 121.875c18.948 55.878 63.229 100.165 119.104 119.118-12.485 4.216-24.532 9.734-35.931 16.498-4.748 2.819-6.314 8.953-3.495 13.703z"/></svg>