<svg id="Capa_1" enable-background="new 0 0 512 512" height="512" viewBox="0 0 512 512" width="512" xmlns="http://www.w3.org/2000/svg"><g fill="rgb(0,0,0)"><g><path d="m120.464 2.743 8.257 23.217c.354.994 1.053 1.782 1.937 2.18l20.628 9.294c2.914 1.313 2.914 5.956 0 7.269l-20.628 9.294c-.883.398-1.583 1.186-1.937 2.18l-8.257 23.217c-1.166 3.28-5.292 3.28-6.458 0l-8.257-23.217c-.354-.994-1.053-1.782-1.937-2.18l-20.628-9.294c-2.914-1.313-2.914-5.956 0-7.269l20.628-9.294c.883-.398 1.583-1.186 1.937-2.18l8.257-23.217c1.167-3.28 5.292-3.28 6.458 0z"/><path d="m430.982 336.632 6.125 17.222c.262.737.781 1.322 1.437 1.617l15.301 6.894c2.162.974 2.162 4.418 0 5.392l-15.301 6.894c-.655.295-1.174.88-1.437 1.617l-6.125 17.222c-.865 2.433-3.925 2.433-4.791 0l-6.125-17.222c-.262-.737-.781-1.322-1.436-1.617l-15.301-6.894c-2.162-.974-2.162-4.418 0-5.392l15.301-6.894c.655-.295 1.174-.88 1.436-1.617l6.125-17.222c.866-2.434 3.926-2.434 4.791 0z"/><path d="m47.943 82.245 6.125 17.222c.262.737.781 1.322 1.436 1.617l15.301 6.894c2.162.974 2.162 4.418 0 5.392l-15.301 6.894c-.655.295-1.174.88-1.436 1.617l-6.125 17.222c-.865 2.433-3.925 2.433-4.791 0l-6.125-17.222c-.262-.737-.781-1.322-1.437-1.617l-15.3-6.894c-2.162-.974-2.162-4.418 0-5.392l15.301-6.894c.655-.295 1.174-.88 1.437-1.617l6.125-17.222c.865-2.433 3.925-2.433 4.79 0z"/><path d="m47.786 28.093c0 4.295-3.482 7.778-7.777 7.778s-7.778-3.482-7.778-7.778c0-4.295 3.482-7.778 7.778-7.778 4.295.001 7.777 3.483 7.777 7.778z"/><circle cx="478.962" cy="306.931" r="14.356"/></g><g><path d="m493.525 254.925c-1.509-5.342-7.059-8.453-12.406-6.94l-168.278 47.537-135.421-135.422 41.825-147.301c1.516-5.34-1.584-10.899-6.924-12.416-5.34-1.513-10.898 1.584-12.415 6.924l-39.148 137.875c-3.632-1.874-7.682-2.872-11.887-2.872-6.939 0-13.462 2.701-18.368 7.608-8.852 8.852-9.966 22.555-3.344 32.631l-60.48 60.48c-45.633 45.634-45.633 119.886 0 165.521 12.688 12.688 27.593 21.835 43.476 27.466v24.033h-66.086c-14.323 0-25.976 11.653-25.976 25.976s11.653 25.976 25.976 25.976h216.964c14.323 0 25.976-11.653 25.976-25.976s-11.653-25.976-25.976-25.976h-66.085v-26.444c13.547-5.695 26.234-14.039 37.251-25.055l60.48-60.48c4.311 2.834 9.287 4.251 14.262 4.251 6.652 0 13.304-2.533 18.368-7.596 4.906-4.906 7.608-11.429 7.608-18.368 0-5.199-1.517-10.164-4.341-14.391l158.009-44.636c5.342-1.508 8.45-7.062 6.94-12.405zm-226.62 231.099c0 3.237-2.634 5.872-5.872 5.872h-216.964c-3.238 0-5.872-2.635-5.872-5.872s2.634-5.872 5.872-5.872h216.964c3.238 0 5.872 2.635 5.872 5.872zm-136.648-25.975v-107.885c0-12.293 10.001-22.294 22.294-22.294s22.294 10.001 22.294 22.294v107.885zm87.726-65.715c-6.901 6.901-14.66 12.631-23.035 17.095v-59.265c0-23.378-19.019-42.397-42.397-42.397s-42.397 19.019-42.397 42.397v62.295c-10.771-4.774-20.679-11.543-29.26-20.125-18.309-18.309-28.392-42.651-28.392-68.545 0-25.893 10.083-50.235 28.392-68.545l60.099-60.099 137.09 137.089zm93.11-63.824c-2.289 2.289-6.015 2.289-8.305 0l-158.071-158.07c-2.289-2.29-2.29-6.016 0-8.305 1.109-1.109 2.584-1.72 4.152-1.72 1.569 0 3.043.611 4.152 1.72l158.071 158.071c1.109 1.109 1.72 2.584 1.72 4.152.001 1.569-.61 3.043-1.719 4.152z"/><path d="m119.168 266.102c-2.574 0-5.147-.982-7.11-2.946-3.924-3.927-3.922-10.291.004-14.216l2.726-2.726c3.926-3.924 10.289-3.924 14.216 0 3.926 3.926 3.926 10.29 0 14.216l-2.73 2.73c-1.963 1.961-4.535 2.942-7.106 2.942z"/><path d="m92.426 292.843c-2.573 0-5.145-.982-7.108-2.944-3.925-3.925-3.925-10.29 0-14.216l7.646-7.646c3.926-3.924 10.289-3.924 14.216 0 3.925 3.926 3.925 10.29 0 14.216l-7.646 7.646c-1.963 1.963-4.535 2.944-7.108 2.944z"/></g></g></svg>