<?xml version="1.0" encoding="iso-8859-1"?>
<!-- Generator: Adobe Illustrator 19.0.0, SVG Export Plug-In . SVG Version: 6.00 Build 0)  -->
<svg version="1.1" id="Capa_1" xmlns="http://www.w3.org/2000/svg" xmlns:xlink="http://www.w3.org/1999/xlink" x="0px" y="0px"
	 viewBox="0 0 480 480" style="enable-background:new 0 0 480 480;" xml:space="preserve">
<g>
	<g>
		<path d="M416,32v16h64V32h-24V8c0-4.418-3.578-8-8-8h-32c-2.125,0-4.156,0.844-5.656,2.344L348.688,64H211.313l48-48H280v16h-24
			v16h64V32h-24V8c0-4.418-3.578-8-8-8h-32c-2.125,0-4.156,0.844-5.656,2.344L188.688,64H43.313l48-48H112v16H88v16h64V32h-24V8
			c0-4.418-3.578-8-8-8H88c-2.125,0-4.156,0.844-5.656,2.344L20.688,64H8c-4.422,0-8,3.582-8,8v304c0,4.418,3.578,8,8,8h40v88
			c0,4.418,3.578,8,8,8h40c4.422,0,8-3.582,8-8v-88h272v88c0,4.418,3.578,8,8,8h40c4.422,0,8-3.582,8-8v-88h40c4.422,0,8-3.582,8-8
			V72c0-4.418-3.578-8-8-8H371.313l48-48H440v16H416z M88,464H64v-80h24V464z M416,464h-24v-80h24V464z M464,80v288h-40h-40H96H56
			H16V80H464z"/>
	</g>
</g>
<g>
	<g>
		<path d="M319.594,216c-3.766-37.738-33.859-67.83-71.594-71.595V112h-16v32.405c-37.735,3.765-67.829,33.857-71.594,71.595H128v16
			h32.406c3.766,37.738,33.859,67.83,71.594,71.595V336h16v-32.405c37.735-3.765,67.829-33.857,71.594-71.595H352v-16H319.594z
			 M232,287.504c-28.906-3.621-51.883-26.598-55.5-55.504H232V287.504z M232,216h-55.5c3.617-28.906,26.594-51.883,55.5-55.504V216z
			 M248,287.504V232h55.5C299.883,260.906,276.906,283.883,248,287.504z M248,216v-55.504c28.906,3.621,51.883,26.598,55.5,55.504
			H248z"/>
	</g>
</g>
<g>
	<g>
		<rect x="32" y="96" width="16" height="16"/>
	</g>
</g>
<g>
	<g>
		<rect x="48" y="112" width="16" height="16"/>
	</g>
</g>
<g>
	<g>
		<rect x="32" y="128" width="16" height="16"/>
	</g>
</g>
<g>
	<g>
		<rect x="64" y="96" width="16" height="16"/>
	</g>
</g>
<g>
	<g>
		<rect x="64" y="128" width="16" height="16"/>
	</g>
</g>
<g>
	<g>
		<rect x="96" y="96" width="16" height="16"/>
	</g>
</g>
<g>
	<g>
		<rect x="80" y="112" width="16" height="16"/>
	</g>
</g>
<g>
	<g>
		<rect x="48" y="144" width="16" height="16"/>
	</g>
</g>
<g>
	<g>
		<rect x="32" y="160" width="16" height="16"/>
	</g>
</g>
<g>
	<g>
		<rect x="432" y="336" width="16" height="16"/>
	</g>
</g>
<g>
	<g>
		<rect x="432" y="304" width="16" height="16"/>
	</g>
</g>
<g>
	<g>
		<rect x="416" y="320" width="16" height="16"/>
	</g>
</g>
<g>
	<g>
		<rect x="400" y="336" width="16" height="16"/>
	</g>
</g>
<g>
	<g>
		<rect x="368" y="336" width="16" height="16"/>
	</g>
</g>
<g>
	<g>
		<rect x="384" y="320" width="16" height="16"/>
	</g>
</g>
<g>
	<g>
		<rect x="400" y="304" width="16" height="16"/>
	</g>
</g>
<g>
	<g>
		<rect x="416" y="288" width="16" height="16"/>
	</g>
</g>
<g>
	<g>
		<rect x="432" y="272" width="16" height="16"/>
	</g>
</g>
<g>
</g>
<g>
</g>
<g>
</g>
<g>
</g>
<g>
</g>
<g>
</g>
<g>
</g>
<g>
</g>
<g>
</g>
<g>
</g>
<g>
</g>
<g>
</g>
<g>
</g>
<g>
</g>
<g>
</g>
</svg>
