<svg height="512pt" viewBox="0 -4 512.002 512" width="512pt" xmlns="http://www.w3.org/2000/svg"><path d="m145.910156 306.863281c0 4.144531 3.359375 7.5 7.5 7.5h102.824219c4.144531 0 7.5-3.355469 7.5-7.5 0-4.140625-3.355469-7.5-7.5-7.5h-102.824219c-4.140625 0-7.5 3.359375-7.5 7.5zm0 0"/><path d="m256.234375 328.605469h-102.824219c-4.140625 0-7.5 3.359375-7.5 7.5 0 4.144531 3.359375 7.5 7.5 7.5h102.824219c4.144531 0 7.5-3.355469 7.5-7.5 0-4.140625-3.355469-7.5-7.5-7.5zm0 0"/><path d="m256.234375 357.847656h-102.824219c-4.140625 0-7.5 3.359375-7.5 7.5 0 4.144532 3.359375 7.5 7.5 7.5h102.824219c4.144531 0 7.5-3.355468 7.5-7.5 0-4.140625-3.355469-7.5-7.5-7.5zm0 0"/><path d="m210.027344 387.089844h-56.617188c-4.140625 0-7.5 3.359375-7.5 7.5s3.359375 7.5 7.5 7.5h56.617188c4.144531 0 7.5-3.359375 7.5-7.5s-3.355469-7.5-7.5-7.5zm0 0"/><path d="m301.691406 89.96875c-15.480468 0-28.078125 12.664062-28.078125 28.234375 0 15.566406 12.597657 28.230469 28.078125 28.230469 15.480469 0 28.078125-12.664063 28.078125-28.230469 0-15.570313-12.59375-28.234375-28.078125-28.234375zm0 41.464844c-7.210937 0-13.078125-5.933594-13.078125-13.230469s5.867188-13.234375 13.078125-13.234375c7.210938 0 13.078125 5.9375 13.078125 13.234375s-5.867187 13.230469-13.078125 13.230469zm0 0"/><path d="m483.304688 208.171875c0-15.429687-12.480469-27.984375-27.824219-27.984375s-27.828125 12.554688-27.828125 27.984375c0 15.425781 12.484375 27.976563 27.828125 27.976563 15.339843 0 27.824219-12.550782 27.824219-27.976563zm-27.824219 12.976563c-7.074219 0-12.828125-5.820313-12.828125-12.976563 0-7.160156 5.753906-12.984375 12.828125-12.984375 7.070312 0 12.824219 5.824219 12.824219 12.984375 0 7.15625-5.753907 12.976563-12.824219 12.976563zm0 0"/><path d="m498.523438 151.277344h-16.523438c-4.144531 0-7.5 3.355468-7.5 7.5 0 4.140625 3.355469 7.5 7.5 7.5h15v164.09375c-11.925781 4.5-21.214844 14.355468-24.902344 26.855468-.550781 1.875-.972656 3.777344-1.253906 5.699219-9.425781.398438-18.257812 3.75-25.460938 9.335938-8.277343-5.746094-18.121093-9.367188-28.753906-10.035157-3.933594-18.628906-20.394531-32.652343-40.0625-32.652343-1.929687 0-3.847656.132812-5.742187.402343-5.9375-17.429687-21.8125-29.613281-40.566407-30.46875v-133.230468h115.742188c4.144531 0 7.5-3.359375 7.5-7.5 0-4.144532-3.355469-7.5-7.5-7.5h-51.878906v-98.539063c0-11.066406-8.960938-20.066406-19.972656-20.066406h-285.785157c-4.960937-18.785156-21.996093-32.671875-42.203125-32.671875h-2.496094c-24.074218 0-43.664062 19.710938-43.664062 43.941406v387.015625c0 .691407.0234375 1.34375.0546875 1.980469.0195313.417969.0507815.832031.0820315 1.25.003906.03125.003906.066406.007812.101562 1.765625 23.382813 21.160157 41.867188 44.769531 41.867188h270.347657v13.722656c0 7.457032 6.046875 13.523438 13.476562 13.523438h169.785157c7.433593 0 13.480468-6.066406 13.480468-13.523438v-325.078125c-.003906-7.457031-6.050781-13.523437-13.480468-13.523437zm-140.585938 188.886718c.34375 2.210938 1.652344 4.15625 3.578125 5.300782 1.921875 1.144531 4.257813 1.367187 6.363281.613281 2.789063-1 5.710938-1.503906 8.6875-1.503906 11.738282 0 21.675782 7.90625 24.882813 18.71875-7.519531 1.558593-14.636719 4.621093-20.960938 9.054687-9.90625-13.191406-25.382812-21.089844-42.1875-21.089844-2.707031 0-5.394531.21875-8.042969.625v-37.351562c13.820313 1 25.523438 11.683594 27.679688 25.632812zm-342.9375-296.222656c0-15.957031 12.859375-28.941406 28.664062-28.941406h2.496094c15.808594 0 28.664063 12.984375 28.664063 28.941406v353.222656c-7.945313-7.167968-18.425781-11.542968-29.910157-11.542968-11.480468 0-21.964843 4.363281-29.914062 11.519531zm300.257812 390.824219h-139.257812c-4.144531 0-7.5 3.359375-7.5 7.5 0 4.144531 3.355469 7.5 7.5 7.5h139.257812v11.390625h-270.34375c-16.496093-.003906-29.914062-13.609375-29.914062-30.339844 0-16.648437 13.417969-30.195312 29.914062-30.195312 16.492188 0 29.910157 13.546875 29.910157 30.195312v11.449219c0 4.140625 3.359375 7.5 7.5 7.5h57.675781c4.140625 0 7.5-3.359375 7.5-7.5s-3.359375-7.5-7.5-7.5h-16.101562v-313.0625c0-4.144531-3.359376-7.5-7.5-7.5-4.144532 0-7.5 3.355469-7.5 7.5v313.0625h-19.074219v-387.09375h19.074219v39.03125c0 4.140625 3.355468 7.5 7.5 7.5 4.140624 0 7.5-3.359375 7.5-7.5v-39.03125h250.25c2.695312 0 4.972656 2.320313 4.972656 5.066406v98.539063h-24.90625v-70.539063c0-7.597656-6.164063-13.78125-13.738282-13.78125h-180.832031c-7.570312 0-13.734375 6.183594-13.734375 13.78125v185.613281c0 7.597657 6.164063 13.78125 13.734375 13.78125h155.613281zm-154.347656-183.65625 42.386719-73.96875 50.417969 87.992187h-92.804688zm154.347656 14.023437h-44.253906l-4.058594-7.082031 28.753907-50.179687 19.558593 34.132812zm0-100.332031v47.035157l-9.933593-17.339844c-2.191407-3.820313-5.699219-6.011719-9.625-6.011719s-7.433594 2.191406-9.625 6.015625l-27.773438 48.46875-45.378906-79.199219c-2.191406-3.824219-5.699219-6.015625-9.625-6.015625-3.929687 0-7.4375 2.191406-9.628906 6.015625l-32.757813 57.167969v-138.980469h178.304688v69.320313h-10.476563c-7.433593 0-13.480469 6.066406-13.480469 13.523437zm125.546876 323.601563h-110.546876v-55.71875h110.546876zm-110.546876-70.71875v-50.5625c2.632813-.570313 5.320313-.863282 8.046876-.863282 14.226562 0 27.140624 7.933594 33.699218 20.710938 1.085938 2.109375 3.105469 3.585938 5.449219 3.972656 2.34375.386719 4.730469-.359375 6.4375-2.011718 7.886719-7.628907 18.234375-11.832032 29.140625-11.832032 22.589844 0 41.078125 18.039063 42.074219 40.585938zm166.742188 70.71875h-41.195312v-55.71875h41.195312zm0-70.71875h-26.890625c-.4375-13.324219-5.398437-25.511719-13.386719-35.058594 5.808594-3.734375 12.886719-5.453125 20.207032-4.457031 2.210937.304687 4.445312-.398438 6.089843-1.90625 1.644531-1.511719 2.527344-3.675781 2.414063-5.910157-.15625-3.003906.199218-5.992187 1.050781-8.875 1.765625-5.984374 5.535156-11.011718 10.515625-14.351562zm0 0"/><path d="m375.695312 204.554688c0-4.140626-3.359374-7.5-7.5-7.5h-4.785156c-4.140625 0-7.5 3.359374-7.5 7.5 0 4.140624 3.359375 7.5 7.5 7.5h4.785156c4.140626 0 7.5-3.359376 7.5-7.5zm0 0"/><path d="m404.066406 231.992188h-4.785156c-4.140625 0-7.5 3.359374-7.5 7.5 0 4.140624 3.359375 7.5 7.5 7.5h4.785156c4.140625 0 7.5-3.359376 7.5-7.5 0-4.140626-3.359375-7.5-7.5-7.5zm0 0"/><path d="m462.652344 269.339844c-4.144532 0-7.5 3.355468-7.5 7.5 0 4.140625 3.355468 7.5 7.5 7.5h4.78125c4.144531 0 7.5-3.359375 7.5-7.5 0-4.144532-3.355469-7.5-7.5-7.5zm0 0"/><path d="m404.066406 289.816406h-4.785156c-4.140625 0-7.5 3.359375-7.5 7.5 0 4.144532 3.359375 7.5 7.5 7.5h4.785156c4.140625 0 7.5-3.355468 7.5-7.5 0-4.140625-3.359375-7.5-7.5-7.5zm0 0"/><path d="m362.21875 265.722656h-4.785156c-4.144532 0-7.5 3.359375-7.5 7.5 0 4.144532 3.355468 7.5 7.5 7.5h4.785156c4.140625 0 7.5-3.355468 7.5-7.5 0-4.140625-3.359375-7.5-7.5-7.5zm0 0"/><path d="m346 457.203125h70c4.144531 0 7.5-3.359375 7.5-7.5 0-4.144531-3.355469-7.5-7.5-7.5h-70c-4.144531 0-7.5 3.355469-7.5 7.5 0 4.140625 3.355469 7.5 7.5 7.5zm0 0"/><path d="m346 478.203125h45c4.144531 0 7.5-3.359375 7.5-7.5 0-4.144531-3.355469-7.5-7.5-7.5h-45c-4.144531 0-7.5 3.355469-7.5 7.5 0 4.140625 3.355469 7.5 7.5 7.5zm0 0"/></svg>