<svg xmlns="http://www.w3.org/2000/svg" width="201" height="281" fill="none"  xmlns:v="https://vecta.io/nano"><path d="M175.848 170.57c5.702-5.702 14.68-5.702 20.38 0a14.63 14.63 0 0 1 0 20.38l-85.4 85.413c-1.364 1.362-2.985 2.442-4.768 3.176a14.62 14.62 0 0 1-5.621 1.101c-1.93.006-3.842-.369-5.627-1.103s-3.408-1.812-4.775-3.174l-85.4-85.413c-5.702-5.702-5.702-14.678 0-20.38s14.678-5.702 20.38 0l60.95 61.154V14.628C85.954 6.678 92.477.36 100.427.36s14.267 6.32 14.267 14.268V231.71l61.154-61.14z" fill="#fff"/></svg>