<svg xmlns="http://www.w3.org/2000/svg" viewBox="0 0 449.28 331.31" fill="#343a40" xmlns:v="https://vecta.io/nano"><path d="M21.8 331.3l.37-5.75c.64-5 1.84-11 2.55-14.46.75-3.6 2.1-7.1 2.66-10.72.66-4.3.68-8.7 1.15-13 .55-5.14 1.4-10.25 1.93-15.4.65-6.44 1-12.92 1.67-19.37.35-3.55 1.22-7.05 1.43-10.6.32-5.56.17-11.14.44-16.7.3-6.55.93-13.1 1.26-19.64a108.52 108.52 0 0 0 .15-13.25c-.46-6.47-.17-12.6 3.84-18.13 1.64-2.25.87-5.75-1.34-7.8 5.28-4.87 3.12-12.1 5.95-17.95-2.74-1.46-7 1.16-7.92-2.87-8.22-1.5-13.88-7-19.73-10.26-.1-2.24.4-4.42-.45-5.26s-3-.44-4.37-.55c-2.3-2.13-5-4-6.82-6.5-2.93-4.1-6-8.36-3.8-14.08.55-1.46-.4-3.43-.26-5.12a53.43 53.43 0 0 1 1.45-6.42l-2-1.6 2.3-.25-.38-2.4c2.36 0 4.45-.14 6.5 0 3.42.3 6.92.4 10.17 1.33 1.9.54 3.4 2.52 5.65 4.33 7.7 2.66 14.2 8.5 19.8 15.4l-2.2.7 5.36 3.76c.82.57 2.38 1 2.42 1.6.2 3 2.18 3.94 4.26 4.48.66-3.6 1.12-7.15 2-10.6.46-1.8.46-2.7-1.38-3.68-1.5-.8-2.56-2.47-4-4l3.07-.83-4.3-3.93c-3.46.7-5.57-.4-7.5-4.5-2-4.28-4.3-8.54-5.64-13a89.6 89.6 0 0 1-2.58-14.36 72.54 72.54 0 0 1-.58-11.31c0-1.22 1.5-2.4 2.3-3.6.24-.36.44-.76.7-1.1.5-.66 1-1.84 1.57-1.83a42.09 42.09 0 0 1 5.78.73c.35.05.68.26 1 .3 5.1.4 6.14 1.1 9.4 5.2.7.88 2.18 1.15 3.57 1.84l-1 3.62c5 .62 10.58 6.25 11.5 11.33a48.62 48.62 0 0 0 1.51 5.18l-1.37.6c2.13 2.2 3.66 1.17 4.9-.7a38.32 38.32 0 0 0 3-5.31 2.8 2.8 0 0 0-.25-2.45c-1.67-2-3.76-3.7-5.33-5.8a82.83 82.83 0 0 1-6.35-9.62c-2.76-5-5.8-10-7.5-15.33-1.35-4.27-.9-9.1-1.2-13.7-.1-1.35 0-2.7 0-4.33l4 .3-3.34-2.47c1.38-3.65 4.22-5 7.5-3.77 2.4.9 4.93 1.44 7.38 2.24 1.47.48 2.88 1.13 4.63 1.82l.7-1.6 8.92 10-2.17 1.7c3.27 0 4.65 1.08 3.77 4.2 3.6 1.73.4 7.56 5.3 8.7.8.2 1.28 1.88 1.83 2.77l5.8-1.6-.65-.43c2-2.68 3.5-6.24 6.18-7.88 9.56-5.87 19.2-11.8 29.42-16.36 8.74-3.9 18.32-5.93 27.5-8.86 2.27-.73 4.4-1.93 6.68-2.55 1.47-.4 3.15 0 4.7-.25a16.36 16.36 0 0 0 5.41-1.35 35.1 35.1 0 0 1 12.79-3.86c6.62-.9 13.1-3 19.74-3.68 7-.7 14.06-.27 21.1-.4C237.2.2 242.13-.3 247 .03a67.63 67.63 0 0 1 13.93 2.28 135.71 135.71 0 0 1 16.4 6 54.49 54.49 0 0 1 10.23 5.64c7.68 5.43 14.77 11.77 22.78 16.62 9.57 5.78 15.05 14.72 21 23.47a17.28 17.28 0 0 0 2.61 2.48c1.4-4.87 12.22-13.8 15-13.05.9-1.5 1.43-3.27 2.6-4.2 3.47-2.73 7.38-4.92 10.8-7.7 2.6-2.15 5.07-3.7 8.53-2.4a1.53 1.53 0 0 0 1.31-.24c3-2.67 6.2-2.33 9.94-.34l-.38-2.37 4.47 1.4a26.78 26.78 0 0 1 2.13 2.56c3 4.38 2.6 11.36-.72 15.8-.25.34.2 1.15 0 1.64-2.05 6-5.2 11.42-10.27 15.4-4.27 3.36-8.7 6.5-13.18 9.56-4.95 3.4-10 6.6-14.74 9.7 1.88 3.6 4.05 7.2 5.67 11 1.34 3.2 2.9 4 6.37 1.72l-3.63-.2c1.48-1.7 2.25-3.22 3.46-3.78 1.63-.76 3.6-.77 5.44-1.1l.3 1 2.4-2.12-2.24-.64c2.84-2.33 5.46-4.74 8.38-6.72 1.06-.72 2.83-.4 4.84-.6.06-.18.35-1.17.64-2.15l.73.82c2.08-1.56 4.12-3.18 6.26-4.65a10.62 10.62 0 0 1 2.3-.65c1.78-.63 3.52-1.36 5.3-2 .65-.23 1.4-.2 2-.46 1.12-.48 2.2-1.08 3-1.5l8.72.5c1.57.1 3.14.34 4.7.6 2.47.42 4.92 1 7.4 1.32a9.21 9.21 0 0 1 8.1 6.84c.4 1.53.75 2.87-1.1 4.3-1.22 1-1.12 3.54-1.73 5.36-.7 2.1-.8 5.1-4.5 3.54-.26-.1-.9.67-1.43 1.1l2.34 1.34a17.2 17.2 0 0 0-3.05.6 6.15 6.15 0 0 0-1.53 1l-5.32-1.9-.3.52 3.17 2.44c-1.57 1.18-2.82 2.6-4.4 3.2-7.48 2.82-14.46 6.93-22.68 7.9-3.84.45-7.47 2.55-11.25 3.7-2.25.7-4.6 1-7.73 1.7l-4.5-2.92c-1.7 4.3.54 7.42 1.7 10.36l4.05-.55a4.49 4.49 0 0 1-.09-1.95 3 3 0 0 1 1.63-1.64c.4-.13 1.46.54 1.63 1a39.66 39.66 0 0 1 1.85 7.22c.06.44-1.95 1.15-3.4 1.94v4.9a80.33 80.33 0 0 1 25.35-11.06c.46-4.23 4.9-3.9 7.8-5.42 1.54-.8 4 .08 5.5-.73 2.92-1.55 6.93-.68 9-4.14.22-.37 1.53-.12 2.33-.12a9.08 9.08 0 0 0 2.7 0c5.14-1.72 10-.67 14.93 1a18.39 18.39 0 0 0 3.4.92c4.37.6 6.1 3.5 4.93 7.62-.52 1.83-.12 3.9-.2 5.86-.1 2.3-.55 4.1-3.6 2.8-.54-.23-1.4.3-1.56.35.14 2.33 1 4.9.18 5.86-1.48 1.64-4.08 2.3-6.4 3-2.85 3.77-24.56 11.1-31.22 9.94l-.52-2.75c-1.17 4.27-3.7 4-7 2.87-1-.35-2.4.66-3.66.84-2.64.38-5.33.52-8 .94-1.87.3-3.68.9-5.82 1.45.76 5.36 1.7 10.66 2.12 16 .1 1-1.72 2.22-2.7 3.38 2.23 1.27 6.2 1 4.38 6-.68 1.87 1.8 4.7 2.2 7.18.7 4.4.95 8.88 1.26 13.33.17 2.57.9 3.82 3.82 1.83v6.5c0 1.3-.66 3-.06 3.86 2.1 3 1.87 6.76 3.37 9.92l3.46 7.3-4.12 1.55 1.2 3.26 1.65-1.3c1.74 2.76 3.76 5.66 5.47 8.73 1.52 2.72 2.5 5.6-.4 7.23 1.23 1.55 3.12 2.87 3.25 4.35.24 2.7-.55 5.5-.92 8.25l-1.22.14 1.88 1.3c-1.6 3.33-1.78 6.64 1.16 9.58.25.24.36.83.6.86 7.1.8 3.4 6.4 4.8 9.72l-.82.53-1.83-2.2c-2.4 3.36-2.32 4.27-.1 6.7-.2 2.37-.76 3.92-.36 5.15 1.26 3.84 2.9 7.55 4.34 11.33.32.84.84 2.37.56 2.57-2.88 2-.43 3.74.14 5.52s6.6 10 5.35 20.88M142 214.1c.26 2.5.66 5.64.9 8.8.2 2.64-.4 5.5.44 7.88 2.3 6.53 5 12.76 9.6 18.36a83.85 83.85 0 0 0 19 16.55c5.4 3.58 11.53 5.26 17.72 7.15a45.22 45.22 0 0 0 19 1.75c4.77-.57 9.54-1.82 14.3-1.76a25.83 25.83 0 0 0 14.62-4.53c1.64-1 2.85-2.9 4.58-3.62 7.86-3.26 12.4-10.1 16.52-16.63 6.95-11 9.06-23.66 9.76-36.6.2-3.85-1.36-4-4.15-3.6a53.15 53.15 0 0 1-7.1.61c-5.37 0-10.73-.34-16.1-.4-3.1 0-6.23.2-9.35.27-1.18 0-2.35-.07-3.53 0-3.5 0-7 .38-10.47.17-7.45-.46-15-.68-22.3-2-6-1-11.5 2.26-17.42.53a100.31 100.31 0 0 0-13.58-2.67c-5.5-.82-11-1.6-16.6-1.88-2.86-.15-5.33 1.2-5.3 4.87-.01 2-.3 4.04-.52 6.75zm115.6-77.6a65.1 65.1 0 0 0-8.09.12 3.54 3.54 0 0 0-2.31 2.57c.17 4.3 1.27 8.64 1.06 12.9-.42 8.8 2.87 16.2 7.58 23.2a36.3 36.3 0 0 0 4.19 4.51c2 2.05 3.6 4.73 6 6a59.3 59.3 0 0 0 30.8 7.11c7.32-.33 14.2-1.55 19.38-6.94a90 90 0 0 0 9.87-12.69 22 22 0 0 0 3.09-8.23 135.7 135.7 0 0 0 1.47-14.67c.37-6 .58-12 .6-17.94a3.45 3.45 0 0 0-2.41-2.37c-4.12 0-8.24.4-12.74.7v13.37c-.1 4.3-.3 8.45-.74 12.65a26 26 0 0 1-6.22 14.43c-3.7 4.35-7.67 6.24-13.83 6-7.95-.26-15.6-.5-22-5.48-2.76-2.14-5.56-5.05-6.77-8.22-3.46-8.8-6.02-17.97-8.92-27.03zm-102-10.47c-1.16 6.95-2.06 13.87-3.52 20.67s-5.1 12.6-11.44 16.36c-5.3 3.14-11.08 2.37-16.62 2-4.22-.28-8.62-1.45-12-4.66a60.77 60.77 0 0 1-5.21-5.19c-1.93-2.35-4.17-4.73-5.16-7.5-1.18-3.3-1.17-7-1.7-10.58-.7-4.6-2-5.52-6.58-5-1.62.2-3.34-.07-4.88.35a3.18 3.18 0 0 0-1.58 2.37c-.07.75.78 1.6 1.2 2.34-1.76 2-1.2 1.94-.8 8.2.42 6.56 3.92 11.88 7 16.8 3.34 5.35 7.24 11 14.08 13.75a58.88 58.88 0 0 0 21.15 4.66c6.9.1 13.22-2.3 19.37-5.27a25.39 25.39 0 0 0 12-12.87 90.9 90.9 0 0 0 5.47-17c1.5-6.64 2.3-13.44.56-20.66zm257.46-42.66c-2.44-.44-4.48-.5-6.3-1.2-3.73-1.42-7.13-.52-10.5 1-2 .88-3.87 2.1-5.9 2.83s-4.86.4-6.28 1.67a28.51 28.51 0 0 1-11.52 6.79c-.65.2-1 1.2-1.66 1.6-1 .66-2.53 1.9-3.15 1.6-2.2-1.13-2.82.24-3.57 1.63-.64 1.2-1.16 2.44-1.7 3.63l-5-.4c1.14 1.2 1.58 2.06 2.05 2.1 8.9.43 16.77-3.8 25.18-5.6.54-.1.84-1.33.94-1.5a26.43 26.43 0 0 0 3.1-.34c1.24-.28 2.45-.72 3.67-1.1.5.5.54-.13.83-.27 4.4-2.23 8.72-4.68 13.3-6.45a10.8 10.8 0 0 0 6.52-5.98zM371.7 37.5l4.2-.93-.28-1.13c-1.64.46-4.55.66-4.7 1.43-.64 3.05-2.78 3.07-4.94 3.36a21.16 21.16 0 0 1-2.76 0l.73.93c-2 2.1-3.88 4.35-6 6.32q-5.12 4.73-10.5 9.1c-.7.56-2 .4-2.92.56l-6.37 7-3.4-2.58-.44.57 3.35 9.58h3.65a66.66 66.66 0 0 1 5.08-4.67l19.28-14.24a25.32 25.32 0 0 0 5.52-6.4c1.37-2.15 1.6-5.16 5.1-5.2.17 0 .33-1 .42-1.25zm60.92 84.8c-3.76-.2-7.44-.47-11.12-.5a11.55 11.55 0 0 0-3.41 1l-8.94 3a19.35 19.35 0 0 0-4.1 1.66c-1.84 1.16-3.32 3-5.26 3.87a66.27 66.27 0 0 1-8.55 2.52l-5-2.3c1.3 1.7 2.66 2.74 2.6 3.7s-1.7 1.6-2.72 2.26c-1.22.77-2.54 1.38-3.82 2.06 5.93-1.13 11.56 1.82 17.74-.2 5.56-1.8 11.4-3.7 17.3-4.28l-.43-1.82 3.43.2c1.27-3.5 4.85-3.65 7.65-4.77s5.13-2.1 4.63-6.4zM21.5 128.65v-.34l21.4 8.34c-1.17-2.62-1.54-5.33-3.08-6.52-3.8-2.93-5.64-7.38-9.46-10.47-4.1-3.3-9.27-5.5-12.2-10.2-.1-.14-.45-.1-.7-.14-4-.57-7.87-1.53-10.8-4.88L8 112.96l-1 .35 3.1 4.26c1.42-.12 5 3.26 5.7 5.46a10.31 10.31 0 0 0 2.69 3.66 17.31 17.31 0 0 0 3 1.96zM59.67 99c0-.4-.36-1.6.07-2.28 1.17-1.86 1.2-3.22-.2-5.13a42.58 42.58 0 0 1-4.72-8.54 49.22 49.22 0 0 0-14.88-19.74c-1.14 13.83 5.63 24.16 13.83 34.1l-2.18.2 3.6 5zm4.1-71.7c-2.27 1.88-2.75 4.52-2 10.87.87.3 2.13.32 2.45.88 2.57 4.47 5 9 7.38 13.58a1.93 1.93 0 0 1 .21 1.28c-.6 2.5.85 4.4 3.52 4.5-.54 4 .72 5 5.75 4.2-.84-14.03-8.35-24.94-17.3-35.3zm333.47 216.64c-.24-2-.08-4.1-.58-4.28-1.4-.48-3-.17-4.6-.17l-.22 1.4z"/><path d="M253.3 225.83c-.86 11.2-6.3 19.86-14.8 27-5.23 4.4-10.92 7.65-17.76 8.2-8.33.66-16.76 1.72-25 1.07-6.83-.53-13.15-4-19-7.9a71 71 0 0 1-18.42-17.45 26.51 26.51 0 0 1-5.1-20.18 3.41 3.41 0 0 1 2.8-1.8c5.92 1.24 11.75 3 17.7 4.13 2.75.52 5.7-.08 8.56 0l25 .7c7.07.3 14.16 1.48 21.17 1.06 6.4-.38 12.8-.2 19.18-.66 5.67-.44 5.8-.2 5.7 5.82z"/></svg>