<svg xmlns="http://www.w3.org/2000/svg" width="1440" height="629" fill="none" xmlns:v="https://vecta.io/nano"><g clip-path="url(#A)"><path d="M2067.13 323.975l17.16 15.04c54.04 47.377 85.03 115.756 85.03 187.626v443.874c0 163.724-131.26 297.214-294.97 299.954l-2462.264 41.3c-165.813 2.78-302.426-129.5-304.993-295.32l-14.688-949.035c-1.212-78.3 44.646-149.69 116.36-181.147 69.143-30.33 149.6-17.908 206.365 31.863l2.07 1.815c58.04 50.878 140.276 63.575 210.957 32.572S-218.926-65.8-160.887-14.92-20.612 48.654 50.07 17.65 202.987-.656 261.026 50.222 401.3 113.797 471.982 82.794l8.616-3.78c75.938-33.31 164.292-19.668 226.648 34.995s150.71 68.304 226.647 34.994 164.297-19.668 226.647 34.994c62.36 54.662 150.7 68.304 226.65 34.995s164.3-19.668 226.65 34.994c62.35 54.662 150.7 68.304 226.64 34.994 75.94-33.31 164.3-19.667 226.65 34.995z" fill="#dee2e6"/></g><defs><clipPath id="A"><path fill="#fff" d="M0 0h1440v629H0z"/></clipPath></defs></svg>