<svg xmlns="http://www.w3.org/2000/svg" width="1440" height="537" fill="none" xmlns:v="https://vecta.io/nano"><g clip-path="url(#A)"><path d="M-880.065 142.72l-17.16-15.04a249.51 249.51 0 0 1-85.034-187.625V-503.82c0-163.724 131.268-297.213 294.97-299.957L1774.98-845.06c165.8-2.78 302.43 129.5 305 295.315l14.7 949.035c1.2 78.3-44.65 149.69-116.36 181.147-69.14 30.33-149.6 17.908-206.36-31.862l-2.07-1.815c-58.04-50.878-140.28-63.575-210.96-32.572s-152.92 18.306-210.96-32.572-140.27-63.575-210.95-32.57-152.92 18.306-210.96-32.572-140.275-63.575-210.956-32.57l-8.616 3.78C630.53 421 542.176 407.35 479.82 352.687s-150.71-68.304-226.647-34.995S88.88 337.36 26.525 282.698s-150.71-68.304-226.647-34.994-164.292 19.667-226.648-34.995-150.71-68.304-226.647-34.994-164.293 19.668-226.648-34.995z" fill="#96ffe7"/></g><defs><clipPath id="A"><path fill="#000" d="M0 0h1440v537H0z"/></clipPath></defs></svg>