<svg xmlns="http://www.w3.org/2000/svg" width="31" height="30" fill="none" xmlns:v="https://vecta.io/nano"><path d="M22.476 0H7.524C3.38 0 0 3.38 0 7.524V22.5C0 26.62 3.38 30 7.524 30H22.5c4.143 0 7.524-3.38 7.524-7.524V7.524C30 3.38 26.62 0 22.476 0zM10 24.286H5.714v-12.38H10v12.38zM7.833 10c-1.214 0-2.2-.976-2.2-2.2s.976-2.2 2.2-2.2 2.2.976 2.2 2.2c-.024 1.214-1 2.2-2.2 2.2h0zM24.3 24.286h-3.595v-6c0-1.452-.19-3.31-2.167-3.31-2.024 0-2.357 1.57-2.357 3.214v6.095H12.62v-12.38h3.333v1.667h.095c.524-.952 1.738-1.7 3.643-1.7 3.928 0 4.62 2.262 4.62 5.62v6.786z" fill="#343a40"/></svg>